font.ufo
<glyph name="exclam" format="2">
	<unicode hex="0021"/>
	<advance width="290"/>
	<outline>
		<contour>
			<point x="127" y="175" type="line"/>
			<point x="148" y="175" type="line"/>
			<point x="244" y="539"/>
			<point x="269" y="626"/>
			<point x="270" y="661" type="curve" smooth="yes"/>
			<point x="270" y="678"/>
			<point x="261" y="688"/>
			<point x="242" y="688" type="curve" smooth="yes"/>
			<point x="224" y="688"/>
			<point x="210" y="678"/>
			<point x="203" y="643" type="curve" smooth="yes"/>
			<point x="194" y="597"/>
			<point x="181" y="518"/>
			<point x="163" y="391" type="curve" smooth="yes"/>
		</contour>
		<contour>
			<point x="65" y="31" type="curve" smooth="yes"/>
			<point x="65" y="10"/>
			<point x="81" y="-8"/>
			<point x="104" y="-8" type="curve" smooth="yes"/>
			<point x="130" y="-8"/>
			<point x="152" y="12"/>
			<point x="152" y="39" type="curve" smooth="yes"/>
			<point x="152" y="60"/>
			<point x="137" y="79"/>
			<point x="114" y="79" type="curve" smooth="yes"/>
			<point x="88" y="79"/>
			<point x="65" y="58"/>
		</contour>
	</outline>
</glyph>
<glyph name="numbersign" format="2">
	<unicode hex="0023"/>
	<advance width="558"/>
	<outline>
		<contour>
			<point x="86" y="0" type="line"/>
			<point x="118" y="0" type="line"/>
			<point x="291" y="652" type="line"/>
			<point x="260" y="652" type="line"/>
		</contour>
		<contour>
			<point x="49" y="246" type="line"/>
			<point x="39" y="197" type="line"/>
			<point x="497" y="197" type="line"/>
			<point x="506" y="246" type="line"/>
		</contour>
		<contour>
			<point x="556" y="424" type="line"/>
			<point x="565" y="472" type="line"/>
			<point x="108" y="472" type="line"/>
			<point x="98" y="424" type="line"/>
		</contour>
		<contour>
			<point x="311" y="0" type="line"/>
			<point x="342" y="0" type="line"/>
			<point x="516" y="652" type="line"/>
			<point x="484" y="652" type="line"/>
		</contour>
	</outline>
</glyph>
<glyph name="dollar" format="2">
	<unicode hex="0024"/>
	<advance width="510"/>
	<outline>
		<contour>
			<point x="224" y="-13" type="curve" smooth="yes"/>
			<point x="348" y="-13"/>
			<point x="439" y="51"/>
			<point x="439" y="162" type="curve" smooth="yes"/>
			<point x="439" y="231"/>
			<point x="413" y="279"/>
			<point x="322" y="334" type="curve" smooth="yes"/>
			<point x="279" y="361" type="line" smooth="yes"/>
			<point x="214" y="401"/>
			<point x="179" y="432"/>
			<point x="179" y="505" type="curve" smooth="yes"/>
			<point x="179" y="581"/>
			<point x="241" y="636"/>
			<point x="332" y="636" type="curve" smooth="yes"/>
			<point x="385" y="636"/>
			<point x="425" y="625"/>
			<point x="467" y="580" type="curve"/>
			<point x="432" y="626" type="line"/>
			<point x="438" y="546" type="line" smooth="yes"/>
			<point x="440" y="516"/>
			<point x="454" y="503"/>
			<point x="472" y="503" type="curve" smooth="yes"/>
			<point x="487" y="503"/>
			<point x="497" y="511"/>
			<point x="501" y="529" type="curve"/>
			<point x="493" y="616"/>
			<point x="436" y="664"/>
			<point x="336" y="664" type="curve" smooth="yes"/>
			<point x="225" y="664"/>
			<point x="136" y="595"/>
			<point x="136" y="489" type="curve" smooth="yes"/>
			<point x="136" y="419"/>
			<point x="169" y="368"/>
			<point x="246" y="320" type="curve" smooth="yes"/>
			<point x="290" y="293" type="line" smooth="yes"/>
			<point x="365" y="247"/>
			<point x="395" y="215"/>
			<point x="395" y="150" type="curve" smooth="yes"/>
			<point x="395" y="64"/>
			<point x="325" y="14"/>
			<point x="229" y="14" type="curve" smooth="yes"/>
			<point x="162" y="14"/>
			<point x="122" y="32"/>
			<point x="81" y="70" type="curve"/>
			<point x="116" y="27" type="line"/>
			<point x="109" y="113" type="line" smooth="yes"/>
			<point x="106" y="145"/>
			<point x="92" y="153"/>
			<point x="76" y="153" type="curve" smooth="yes"/>
			<point x="60" y="153"/>
			<point x="51" y="144"/>
			<point x="46" y="129" type="curve"/>
			<point x="53" y="40"/>
			<point x="108" y="-13"/>
		</contour>
		<contour>
			<point x="177" y="-115" type="line"/>
			<point x="206" y="-115" type="line"/>
			<point x="298" y="326" type="line"/>
			<point x="269" y="326" type="line"/>
		</contour>
		<contour>
			<point x="269" y="326" type="line"/>
			<point x="298" y="326" type="line"/>
			<point x="387" y="755" type="line"/>
			<point x="358" y="755" type="line"/>
		</contour>
	</outline>
</glyph>
<glyph name="ampersand" format="1">
	<unicode hex="0026"/>
	<advance width="660"/>
	<outline>
		<contour>
			<point x="296" y="-13" type="curve" smooth="yes"/>
			<point x="410" y="-13"/>
			<point x="510" y="47"/>
			<point x="510" y="154" type="curve" smooth="yes"/>
			<point x="510" y="211"/>
			<point x="483" y="257"/>
			<point x="416" y="265" type="curve"/>
			<point x="414" y="255" type="line"/>
			<point x="558" y="255"/>
			<point x="646" y="309"/>
			<point x="690" y="435" type="curve"/>
			<point x="643" y="451" type="line"/>
			<point x="615" y="336"/>
			<point x="541" y="280"/>
			<point x="415" y="280" type="curve" smooth="yes"/>
			<point x="374" y="280" type="line"/>
			<point x="369" y="253" type="line"/>
			<point x="391" y="253" type="line" smooth="yes"/>
			<point x="448" y="253"/>
			<point x="479" y="218"/>
			<point x="479" y="156" type="curve" smooth="yes"/>
			<point x="479" y="85"/>
			<point x="409" y="28"/>
			<point x="300" y="28" type="curve" smooth="yes"/>
			<point x="186" y="28"/>
			<point x="112" y="104"/>
			<point x="112" y="206" type="curve" smooth="yes"/>
			<point x="112" y="295"/>
			<point x="171" y="394"/>
			<point x="278" y="406" type="curve"/>
			<point x="248" y="436"/>
			<point x="238" y="468"/>
			<point x="238" y="508" type="curve" smooth="yes"/>
			<point x="238" y="577"/>
			<point x="295" y="664"/>
			<point x="400" y="664" type="curve" smooth="yes"/>
			<point x="423" y="664"/>
			<point x="444" y="661"/>
			<point x="462" y="655" type="curve"/>
			<point x="433" y="676" type="line"/>
			<point x="464" y="623" type="line" smooth="yes"/>
			<point x="474" y="603"/>
			<point x="483" y="594"/>
			<point x="499" y="594" type="curve" smooth="yes"/>
			<point x="512" y="594"/>
			<point x="522" y="601"/>
			<point x="525" y="614" type="curve"/>
			<point x="506" y="662"/>
			<point x="455" y="688"/>
			<point x="392" y="688" type="curve" smooth="yes"/>
			<point x="264" y="688"/>
			<point x="201" y="602"/>
			<point x="201" y="517" type="curve" smooth="yes"/>
			<point x="201" y="438"/>
			<point x="252" y="383"/>
			<point x="325" y="362" type="curve"/>
			<point x="345" y="367"/>
			<point x="355" y="376"/>
			<point x="355" y="392" type="curve" smooth="yes"/>
			<point x="355" y="412"/>
			<point x="325" y="426"/>
			<point x="285" y="426" type="curve" smooth="yes"/>
			<point x="172" y="426"/>
			<point x="68" y="326"/>
			<point x="68" y="200" type="curve" smooth="yes"/>
			<point x="68" y="83"/>
			<point x="145" y="-13"/>
		</contour>
	</outline>
</glyph>
<glyph name="quotesingle" format="2">
	<unicode hex="0027"/>
	<advance width="219"/>
	<outline>
		<contour>
			<point x="204" y="743" type="curve" smooth="yes"/>
			<point x="185" y="743"/>
			<point x="173" y="732"/>
			<point x="167" y="704" type="curve" smooth="yes"/>
			<point x="161" y="670"/>
			<point x="157" y="605"/>
			<point x="152" y="553" type="curve" smooth="yes"/>
			<point x="142" y="455" type="line"/>
			<point x="164" y="455" type="line"/>
			<point x="204" y="609"/>
			<point x="228" y="688"/>
			<point x="228" y="711" type="curve" smooth="yes"/>
			<point x="228" y="729"/>
			<point x="220" y="743"/>
		</contour>
	</outline>
</glyph>
<glyph name="parenleft" format="2">
	<unicode hex="0028"/>
	<advance width="350"/>
	<outline>
		<contour>
			<point x="214" y="-208" type="curve"/>
			<point x="235" y="-193" type="line"/>
			<point x="154" y="-66"/>
			<point x="126" y="42"/>
			<point x="126" y="170" type="curve" smooth="yes"/>
			<point x="126" y="377"/>
			<point x="203" y="542"/>
			<point x="416" y="718" type="curve"/>
			<point x="400" y="739" type="line"/>
			<point x="166" y="567"/>
			<point x="78" y="373"/>
			<point x="78" y="171" type="curve" smooth="yes"/>
			<point x="78" y="35"/>
			<point x="119" y="-92"/>
		</contour>
	</outline>
</glyph>
<glyph name="asterisk" format="2">
	<unicode hex="002A"/>
	<advance width="473"/>
	<outline>
		<contour>
			<point x="253" y="728" type="curve" smooth="yes"/>
			<point x="253" y="706"/>
			<point x="268" y="662"/>
			<point x="305" y="538" type="curve"/>
			<point x="317" y="539" type="line"/>
			<point x="310" y="670"/>
			<point x="305" y="711"/>
			<point x="303" y="729" type="curve" smooth="yes"/>
			<point x="299" y="749"/>
			<point x="290" y="755"/>
			<point x="277" y="755" type="curve" smooth="yes"/>
			<point x="259" y="755"/>
			<point x="253" y="742"/>
		</contour>
		<contour>
			<point x="103" y="573" type="curve" smooth="yes"/>
			<point x="103" y="544"/>
			<point x="136" y="541"/>
			<point x="317" y="539" type="curve"/>
			<point x="319" y="553" type="line"/>
			<point x="183" y="587"/>
			<point x="144" y="597"/>
			<point x="128" y="597" type="curve" smooth="yes"/>
			<point x="109" y="597"/>
			<point x="103" y="585"/>
		</contour>
		<contour>
			<point x="205" y="378" type="curve" smooth="yes"/>
			<point x="205" y="363"/>
			<point x="215" y="356"/>
			<point x="226" y="356" type="curve" smooth="yes"/>
			<point x="253" y="356"/>
			<point x="269" y="405"/>
			<point x="320" y="553" type="curve"/>
			<point x="308" y="558" type="line"/>
			<point x="227" y="430"/>
			<point x="205" y="400"/>
		</contour>
		<contour>
			<point x="299" y="550" type="line"/>
			<point x="400" y="426"/>
			<point x="426" y="393"/>
			<point x="448" y="395" type="curve" smooth="yes"/>
			<point x="460" y="396"/>
			<point x="469" y="406"/>
			<point x="468" y="419" type="curve" smooth="yes"/>
			<point x="466" y="440"/>
			<point x="429" y="465"/>
			<point x="307" y="559" type="curve"/>
		</contour>
		<contour>
			<point x="476" y="658" type="curve" smooth="yes"/>
			<point x="453" y="658"/>
			<point x="418" y="630"/>
			<point x="298" y="549" type="curve"/>
			<point x="305" y="537" type="line"/>
			<point x="466" y="602"/>
			<point x="497" y="610"/>
			<point x="497" y="636" type="curve" smooth="yes"/>
			<point x="497" y="652"/>
			<point x="488" y="658"/>
		</contour>
	</outline>
</glyph>
<glyph name="plus" format="2">
	<unicode hex="002B"/>
	<advance width="530"/>
	<outline>
		<contour>
			<point x="264" y="99" type="line"/>
			<point x="301" y="99" type="line"/>
			<point x="301" y="564" type="line"/>
			<point x="264" y="564" type="line"/>
		</contour>
		<contour>
			<point x="503" y="316" type="line"/>
			<point x="503" y="351" type="line"/>
			<point x="62" y="351" type="line"/>
			<point x="62" y="316" type="line"/>
		</contour>
	</outline>
</glyph>
<glyph name="comma" format="2">
	<unicode hex="002C"/>
	<advance width="294"/>
	<outline>
		<contour>
			<point x="154" y="41" type="curve" smooth="yes"/>
			<point x="154" y="50"/>
			<point x="153" y="57"/>
			<point x="151" y="63" type="curve"/>
			<point x="142" y="75"/>
			<point x="131" y="80"/>
			<point x="113" y="80" type="curve" smooth="yes"/>
			<point x="91" y="80"/>
			<point x="70" y="62"/>
			<point x="70" y="36" type="curve" smooth="yes"/>
			<point x="70" y="17"/>
			<point x="77" y="6"/>
			<point x="97" y="-8" type="curve" smooth="yes"/>
			<point x="126" y="-27" type="line"/>
			<point x="120" y="-6" type="line"/>
			<point x="101" y="-73"/>
			<point x="66" y="-112"/>
			<point x="-2" y="-135" type="curve"/>
			<point x="6" y="-160" type="line"/>
			<point x="96" y="-135"/>
			<point x="154" y="-55"/>
		</contour>
	</outline>
</glyph>
<glyph name="hyphen" format="2">
	<unicode hex="002D"/>
	<unicode hex="00AD"/>
	<unicode hex="2010"/>
	<advance width="310"/>
	<outline>
		<contour>
			<point x="47" y="222" type="line"/>
			<point x="277" y="222" type="line"/>
			<point x="277" y="263" type="line"/>
			<point x="47" y="263" type="line"/>
		</contour>
	</outline>
</glyph>
<glyph name="period" format="2">
	<unicode hex="002E"/>
	<advance width="294"/>
	<outline>
		<contour>
			<point x="110" y="-7" type="curve" smooth="yes"/>
			<point x="136" y="-7"/>
			<point x="158" y="12"/>
			<point x="158" y="40" type="curve" smooth="yes"/>
			<point x="158" y="61"/>
			<point x="143" y="79"/>
			<point x="118" y="79" type="curve" smooth="yes"/>
			<point x="92" y="79"/>
			<point x="70" y="59"/>
			<point x="70" y="32" type="curve" smooth="yes"/>
			<point x="70" y="11"/>
			<point x="86" y="-7"/>
		</contour>
	</outline>
</glyph>
<glyph name="slash" format="1">
	<unicode hex="002F"/>
	<advance width="305"/>
	<outline>
		<contour>
			<point x="-70" y="-160" type="line"/>
			<point x="-28" y="-160" type="line"/>
			<point x="417" y="710" type="line"/>
			<point x="377" y="710" type="line"/>
		</contour>
	</outline>
</glyph>
<glyph name="one" format="1">
	<unicode hex="0031"/>
	<advance width="510"/>
	<outline>
		<contour>
			<point x="187" y="612" type="line"/>
			<point x="181" y="584" type="line"/>
			<point x="349" y="611" type="line"/>
			<point x="334" y="630" type="line"/>
			<point x="206" y="0" type="line"/>
			<point x="252" y="0" type="line"/>
			<point x="265" y="70"/>
			<point x="280" y="142"/>
			<point x="294" y="212" type="curve" smooth="yes"/>
			<point x="353" y="507" type="line"/>
			<point x="387" y="651" type="line"/>
			<point x="376" y="663" type="line"/>
		</contour>
		<contour>
			<point x="253" y="36" type="line"/>
			<point x="221" y="36" type="line"/>
			<point x="66" y="26" type="line"/>
			<point x="60" y="0" type="line"/>
			<point x="405" y="0" type="line"/>
			<point x="411" y="26" type="line"/>
		</contour>
	</outline>
</glyph>
<glyph name="less" format="1">
	<unicode hex="003C"/>
	<advance width="530"/>
	<outline>
		<contour>
			<point x="75" y="318" type="line"/>
			<point x="461" y="89" type="line"/>
			<point x="480" y="122" type="line"/>
			<point x="106" y="342" type="line"/>
			<point x="106" y="326" type="line"/>
			<point x="480" y="545" type="line"/>
			<point x="461" y="579" type="line"/>
			<point x="75" y="349" type="line"/>
		</contour>
	</outline>
</glyph>
<glyph name="question" format="1">
	<unicode hex="003F"/>
	<advance width="396"/>
	<outline>
		<contour>
			<point x="41" y="30" type="curve" smooth="yes"/>
			<point x="41" y="7"/>
			<point x="59" y="-11"/>
			<point x="84" y="-11" type="curve" smooth="yes"/>
			<point x="109" y="-11"/>
			<point x="130" y="10"/>
			<point x="130" y="34" type="curve" smooth="yes"/>
			<point x="130" y="57"/>
			<point x="113" y="76"/>
			<point x="88" y="76" type="curve" smooth="yes"/>
			<point x="62" y="76"/>
			<point x="41" y="56"/>
		</contour>
		<contour>
			<point x="86" y="162" type="curve"/>
			<point x="111" y="160" type="line"/>
			<point x="123" y="259"/>
			<point x="137" y="282"/>
			<point x="161" y="307" type="curve" smooth="yes"/>
			<point x="181" y="326"/>
			<point x="216" y="345"/>
			<point x="284" y="384" type="curve" smooth="yes"/>
			<point x="383" y="440"/>
			<point x="443" y="478"/>
			<point x="443" y="563" type="curve" smooth="yes"/>
			<point x="443" y="646"/>
			<point x="377" y="688"/>
			<point x="287" y="688" type="curve" smooth="yes"/>
			<point x="214" y="688"/>
			<point x="171" y="655"/>
			<point x="160" y="614" type="curve"/>
			<point x="160" y="601"/>
			<point x="173" y="587"/>
			<point x="190" y="587" type="curve" smooth="yes"/>
			<point x="203" y="587"/>
			<point x="216" y="592"/>
			<point x="223" y="613" type="curve" smooth="yes"/>
			<point x="248" y="676" type="line"/>
			<point x="204" y="652" type="line"/>
			<point x="223" y="659"/>
			<point x="246" y="664"/>
			<point x="271" y="664" type="curve" smooth="yes"/>
			<point x="357" y="665"/>
			<point x="399" y="628"/>
			<point x="399" y="568" type="curve" smooth="yes"/>
			<point x="399" y="520"/>
			<point x="373" y="483"/>
			<point x="269" y="424" type="curve" smooth="yes"/>
			<point x="193" y="380"/>
			<point x="158" y="359"/>
			<point x="138" y="339" type="curve" smooth="yes"/>
			<point x="107" y="308"/>
			<point x="96" y="273"/>
		</contour>
	</outline>
</glyph>
<glyph name="at" format="1">
	<unicode hex="0040"/>
	<advance width="822"/>
	<outline>
		<contour>
			<point x="339" y="50" type="curve" smooth="yes"/>
			<point x="407" y="50"/>
			<point x="474" y="124"/>
			<point x="535" y="212" type="curve"/>
			<point x="530" y="224" type="line"/>
			<point x="457" y="136"/>
			<point x="409" y="87"/>
			<point x="357" y="87" type="curve" smooth="yes"/>
			<point x="320" y="87"/>
			<point x="294" y="113"/>
			<point x="294" y="177" type="curve" smooth="yes"/>
			<point x="294" y="312"/>
			<point x="401" y="450"/>
			<point x="503" y="450" type="curve" smooth="yes"/>
			<point x="529" y="450"/>
			<point x="555" y="438"/>
			<point x="574" y="415" type="curve"/>
			<point x="591" y="434" type="line"/>
			<point x="573" y="467"/>
			<point x="550" y="486"/>
			<point x="516" y="486" type="curve" smooth="yes"/>
			<point x="394" y="486"/>
			<point x="250" y="307"/>
			<point x="250" y="158" type="curve" smooth="yes"/>
			<point x="250" y="78"/>
			<point x="293" y="50"/>
		</contour>
		<contour>
			<point x="554" y="50" type="curve" smooth="yes"/>
			<point x="653" y="50"/>
			<point x="816" y="152"/>
			<point x="816" y="370" type="curve" smooth="yes"/>
			<point x="816" y="529"/>
			<point x="720" y="662"/>
			<point x="518" y="662" type="curve" smooth="yes"/>
			<point x="268" y="662"/>
			<point x="45" y="461"/>
			<point x="45" y="159" type="curve" smooth="yes"/>
			<point x="45" y="-28"/>
			<point x="163" y="-155"/>
			<point x="361" y="-155" type="curve" smooth="yes"/>
			<point x="428" y="-155"/>
			<point x="494" y="-142"/>
			<point x="553" y="-112" type="curve"/>
			<point x="546" y="-91" type="line"/>
			<point x="493" y="-114"/>
			<point x="443" y="-125"/>
			<point x="375" y="-125" type="curve" smooth="yes"/>
			<point x="192" y="-125"/>
			<point x="86" y="-13"/>
			<point x="86" y="167" type="curve" smooth="yes"/>
			<point x="86" y="446"/>
			<point x="286" y="634"/>
			<point x="516" y="634" type="curve" smooth="yes"/>
			<point x="687" y="634"/>
			<point x="780" y="524"/>
			<point x="780" y="372" type="curve" smooth="yes"/>
			<point x="780" y="173"/>
			<point x="644" y="82"/>
			<point x="569" y="82" type="curve" smooth="yes"/>
			<point x="538" y="82"/>
			<point x="525" y="98"/>
			<point x="538" y="156" type="curve" smooth="yes"/>
			<point x="609" y="484" type="line"/>
			<point x="599" y="490" type="line"/>
			<point x="560" y="450" type="line"/>
			<point x="497" y="159" type="line" smooth="yes"/>
			<point x="484" y="100"/>
			<point x="494" y="50"/>
		</contour>
	</outline>
</glyph>
<glyph name="A" format="2">
	<unicode hex="0041"/>
	<advance width="661"/>
	<outline>
		<contour>
			<point x="-35" y="0" type="line"/>
			<point x="174" y="0" type="line"/>
			<point x="180" y="28" type="line"/>
			<point x="82" y="38" type="line"/>
			<point x="67" y="38" type="line"/>
			<point x="-29" y="28" type="line"/>
		</contour>
		<contour>
			<point x="34" y="0" type="line"/>
			<point x="72" y="0" type="line"/>
			<point x="397" y="632" type="line"/>
			<point x="383" y="632" type="line"/>
			<point x="466" y="0" type="line"/>
			<point x="522" y="0" type="line"/>
			<point x="428" y="678" type="line"/>
			<point x="393" y="678" type="line"/>
		</contour>
		<contour>
			<point x="180" y="246" type="line"/>
			<point x="465" y="246" type="line"/>
			<point x="468" y="276" type="line"/>
			<point x="193" y="276" type="line"/>
		</contour>
		<contour>
			<point x="354" y="0" type="line"/>
			<point x="608" y="0" type="line"/>
			<point x="614" y="28" type="line"/>
			<point x="498" y="38" type="line"/>
			<point x="483" y="38" type="line"/>
			<point x="359" y="28" type="line"/>
		</contour>
	</outline>
	<anchor name="aboveUC" x="410" y="694"/>
	<anchor name="belowLC" x="271" y="-20"/>
	<anchor name="ogonek" x="513" y="0"/>
</glyph>
<glyph name="B" format="2">
	<unicode hex="0042"/>
	<advance width="585"/>
	<outline>
		<contour>
			<point x="6" y="0" type="line"/>
			<point x="128" y="0" type="line"/>
			<point x="135" y="38" type="line"/>
			<point x="128" y="38" type="line"/>
			<point x="12" y="28" type="line"/>
		</contour>
		<contour>
			<point x="103" y="0" type="line"/>
			<point x="159" y="0" type="line"/>
			<point x="175" y="104"/>
			<point x="193" y="208"/>
			<point x="212" y="312" type="curve" smooth="yes"/>
			<point x="280" y="674" type="line"/>
			<point x="225" y="674" type="line"/>
			<point x="208" y="570"/>
			<point x="191" y="466"/>
			<point x="171" y="362" type="curve" smooth="yes"/>
		</contour>
		<contour>
			<point x="117" y="645" type="line"/>
			<point x="237" y="635" type="line"/>
			<point x="246" y="635" type="line"/>
			<point x="254" y="674" type="line"/>
			<point x="123" y="674" type="line"/>
		</contour>
		<contour>
			<point x="128" y="0" type="line"/>
			<point x="267" y="0" type="line" smooth="yes"/>
			<point x="433" y="0"/>
			<point x="532" y="75"/>
			<point x="532" y="200" type="curve" smooth="yes"/>
			<point x="532" y="288"/>
			<point x="462" y="357"/>
			<point x="312" y="358" type="curve"/>
			<point x="309" y="346" type="line"/>
			<point x="463" y="353"/>
			<point x="547" y="430"/>
			<point x="547" y="536" type="curve" smooth="yes"/>
			<point x="547" y="617"/>
			<point x="483" y="674"/>
			<point x="341" y="674" type="curve" smooth="yes"/>
			<point x="254" y="674" type="line"/>
			<point x="248" y="642" type="line"/>
			<point x="327" y="642" type="line" smooth="yes"/>
			<point x="451" y="642"/>
			<point x="496" y="598"/>
			<point x="496" y="525" type="curve" smooth="yes"/>
			<point x="496" y="429"/>
			<point x="428" y="367"/>
			<point x="283" y="367" type="curve" smooth="yes"/>
			<point x="196" y="367" type="line"/>
			<point x="191" y="336" type="line"/>
			<point x="281" y="336" type="line" smooth="yes"/>
			<point x="410" y="336"/>
			<point x="478" y="288"/>
			<point x="478" y="200" type="curve" smooth="yes"/>
			<point x="478" y="95"/>
			<point x="405" y="32"/>
			<point x="266" y="32" type="curve" smooth="yes"/>
			<point x="134" y="32" type="line"/>
		</contour>
	</outline>
	<anchor name="aboveUC" x="352" y="694"/>
	<anchor name="belowLC" x="264" y="-20"/>
</glyph>
<glyph name="C" format="2">
	<unicode hex="0043"/>
	<advance width="598"/>
	<outline>
		<contour>
			<point x="337" y="-14" type="curve" smooth="yes"/>
			<point x="410" y="-14"/>
			<point x="464" y="2"/>
			<point x="525" y="32" type="curve"/>
			<point x="554" y="177" type="line"/>
			<point x="516" y="177" type="line"/>
			<point x="470" y="32" type="line"/>
			<point x="506" y="62" type="line"/>
			<point x="456" y="33"/>
			<point x="406" y="20"/>
			<point x="352" y="20" type="curve" smooth="yes"/>
			<point x="215" y="20"/>
			<point x="111" y="108"/>
			<point x="111" y="282" type="curve" smooth="yes"/>
			<point x="111" y="494"/>
			<point x="244" y="654"/>
			<point x="425" y="654" type="curve" smooth="yes"/>
			<point x="491" y="654"/>
			<point x="538" y="640"/>
			<point x="582" y="606" type="curve"/>
			<point x="556" y="638" type="line"/>
			<point x="551" y="495" type="line"/>
			<point x="588" y="495" type="line"/>
			<point x="610" y="634" type="line"/>
			<point x="552" y="672"/>
			<point x="499" y="687"/>
			<point x="432" y="687" type="curve" smooth="yes"/>
			<point x="223" y="687"/>
			<point x="55" y="516"/>
			<point x="55" y="280" type="curve" smooth="yes"/>
			<point x="55" y="99"/>
			<point x="165" y="-14"/>
		</contour>
	</outline>
	<anchor name="aboveUC" x="438" y="694"/>
	<anchor name="belowLC" x="324" y="-20"/>
	<anchor name="baseLC" x="336" y="0"/>
</glyph>
<glyph name="D" format="2">
	<unicode hex="0044"/>
	<advance width="681"/>
	<outline>
		<contour>
			<point x="6" y="0" type="line"/>
			<point x="128" y="0" type="line"/>
			<point x="135" y="38" type="line"/>
			<point x="128" y="38" type="line"/>
			<point x="12" y="28" type="line"/>
		</contour>
		<contour>
			<point x="103" y="0" type="line"/>
			<point x="159" y="0" type="line"/>
			<point x="175" y="104"/>
			<point x="193" y="208"/>
			<point x="212" y="312" type="curve" smooth="yes"/>
			<point x="280" y="674" type="line"/>
			<point x="225" y="674" type="line"/>
			<point x="208" y="570"/>
			<point x="191" y="466"/>
			<point x="171" y="362" type="curve" smooth="yes"/>
		</contour>
		<contour>
			<point x="117" y="645" type="line"/>
			<point x="238" y="635" type="line"/>
			<point x="248" y="635" type="line"/>
			<point x="255" y="674" type="line"/>
			<point x="123" y="674" type="line"/>
		</contour>
		<contour>
			<point x="128" y="0" type="line"/>
			<point x="261" y="0" type="line" smooth="yes"/>
			<point x="495" y="0"/>
			<point x="660" y="152"/>
			<point x="660" y="393" type="curve" smooth="yes"/>
			<point x="660" y="570"/>
			<point x="550" y="674"/>
			<point x="358" y="674" type="curve" smooth="yes"/>
			<point x="255" y="674" type="line"/>
			<point x="249" y="642" type="line"/>
			<point x="342" y="642" type="line" smooth="yes"/>
			<point x="512" y="642"/>
			<point x="604" y="555"/>
			<point x="604" y="393" type="curve" smooth="yes"/>
			<point x="603" y="199"/>
			<point x="490" y="31"/>
			<point x="261" y="31" type="curve" smooth="yes"/>
			<point x="134" y="31" type="line"/>
		</contour>
	</outline>
	<anchor name="aboveUC" x="405" y="694"/>
	<anchor name="belowLC" x="281" y="-20"/>
</glyph>
<glyph name="E" format="2">
	<unicode hex="0045"/>
	<advance width="577"/>
	<outline>
		<contour>
			<point x="13" y="0" type="line"/>
			<point x="134" y="0" type="line"/>
			<point x="141" y="38" type="line"/>
			<point x="135" y="38" type="line"/>
			<point x="19" y="28" type="line"/>
		</contour>
		<contour>
			<point x="109" y="0" type="line"/>
			<point x="165" y="0" type="line"/>
			<point x="181" y="104"/>
			<point x="200" y="208"/>
			<point x="219" y="312" type="curve" smooth="yes"/>
			<point x="287" y="674" type="line"/>
			<point x="231" y="674" type="line"/>
			<point x="215" y="571"/>
			<point x="197" y="466"/>
			<point x="178" y="362" type="curve" smooth="yes"/>
		</contour>
		<contour>
			<point x="124" y="646" type="line"/>
			<point x="244" y="636" type="line"/>
			<point x="253" y="636" type="line"/>
			<point x="261" y="674" type="line"/>
			<point x="129" y="674" type="line"/>
		</contour>
		<contour>
			<point x="134" y="0" type="line"/>
			<point x="502" y="0" type="line"/>
			<point x="541" y="163" type="line"/>
			<point x="506" y="163" type="line"/>
			<point x="452" y="0" type="line"/>
			<point x="485" y="33" type="line"/>
			<point x="141" y="33" type="line"/>
		</contour>
		<contour>
			<point x="197" y="326" type="line"/>
			<point x="420" y="326" type="line"/>
			<point x="425" y="358" type="line"/>
			<point x="203" y="358" type="line"/>
		</contour>
		<contour>
			<point x="254" y="641" type="line"/>
			<point x="558" y="641" type="line"/>
			<point x="539" y="674" type="line"/>
			<point x="533" y="511" type="line"/>
			<point x="568" y="511" type="line"/>
			<point x="589" y="674" type="line"/>
			<point x="261" y="674" type="line"/>
		</contour>
		<contour>
			<point x="396" y="230" type="line"/>
			<point x="424" y="230" type="line"/>
			<point x="467" y="454" type="line"/>
			<point x="438" y="454" type="line"/>
			<point x="406" y="353" type="line"/>
			<point x="403" y="333" type="line"/>
		</contour>
	</outline>
	<anchor name="aboveUC" x="401" y="686"/>
	<anchor name="belowLC" x="297" y="-22"/>
	<anchor name="ogonek" x="430" y="0"/>
</glyph>
<glyph name="F" format="2">
	<unicode hex="0046"/>
	<advance width="549"/>
	<outline>
		<contour>
			<point x="13" y="0" type="line"/>
			<point x="272" y="0" type="line"/>
			<point x="278" y="28" type="line"/>
			<point x="152" y="38" type="line"/>
			<point x="137" y="38" type="line"/>
			<point x="19" y="28" type="line"/>
		</contour>
		<contour>
			<point x="109" y="0" type="line"/>
			<point x="165" y="0" type="line"/>
			<point x="181" y="104"/>
			<point x="200" y="208"/>
			<point x="219" y="312" type="curve" smooth="yes"/>
			<point x="287" y="674" type="line"/>
			<point x="231" y="674" type="line"/>
			<point x="215" y="571"/>
			<point x="197" y="466"/>
			<point x="178" y="362" type="curve" smooth="yes"/>
		</contour>
		<contour>
			<point x="124" y="646" type="line"/>
			<point x="244" y="636" type="line"/>
			<point x="253" y="636" type="line"/>
			<point x="261" y="674" type="line"/>
			<point x="129" y="674" type="line"/>
		</contour>
		<contour>
			<point x="197" y="326" type="line"/>
			<point x="420" y="326" type="line"/>
			<point x="425" y="358" type="line"/>
			<point x="203" y="358" type="line"/>
		</contour>
		<contour>
			<point x="254" y="641" type="line"/>
			<point x="570" y="641" type="line"/>
			<point x="550" y="674" type="line"/>
			<point x="544" y="511" type="line"/>
			<point x="578" y="511" type="line"/>
			<point x="601" y="674" type="line"/>
			<point x="261" y="674" type="line"/>
		</contour>
		<contour>
			<point x="396" y="226" type="line"/>
			<point x="424" y="226" type="line"/>
			<point x="466" y="454" type="line"/>
			<point x="438" y="454" type="line"/>
			<point x="406" y="353" type="line"/>
			<point x="403" y="333" type="line"/>
		</contour>
	</outline>
	<anchor name="aboveUC" x="402" y="686"/>
	<anchor name="belowLC" x="142" y="-22"/>
</glyph>
<glyph name="G" format="2">
	<unicode hex="0047"/>
	<advance width="660"/>
	<outline>
		<contour>
			<point x="55" y="278" type="curve" smooth="yes"/>
			<point x="55" y="99"/>
			<point x="171" y="-14"/>
			<point x="349" y="-14" type="curve" smooth="yes"/>
			<point x="424" y="-14"/>
			<point x="477" y="3"/>
			<point x="543" y="36" type="curve"/>
			<point x="595" y="319" type="line"/>
			<point x="540" y="319" type="line"/>
			<point x="528" y="245"/>
			<point x="514" y="169"/>
			<point x="501" y="94" type="curve" smooth="yes"/>
			<point x="492" y="37" type="line"/>
			<point x="523" y="63" type="line"/>
			<point x="468" y="34"/>
			<point x="422" y="20"/>
			<point x="360" y="20" type="curve" smooth="yes"/>
			<point x="223" y="20"/>
			<point x="111" y="112"/>
			<point x="111" y="280" type="curve" smooth="yes"/>
			<point x="111" y="497"/>
			<point x="239" y="654"/>
			<point x="430" y="654" type="curve" smooth="yes"/>
			<point x="502" y="654"/>
			<point x="558" y="638"/>
			<point x="603" y="602" type="curve"/>
			<point x="577" y="634" type="line"/>
			<point x="572" y="492" type="line"/>
			<point x="609" y="492" type="line"/>
			<point x="631" y="631" type="line"/>
			<point x="573" y="670"/>
			<point x="516" y="687"/>
			<point x="430" y="687" type="curve" smooth="yes"/>
			<point x="223" y="687"/>
			<point x="55" y="522"/>
		</contour>
		<contour>
			<point x="423" y="291" type="line"/>
			<point x="549" y="281" type="line"/>
			<point x="565" y="281" type="line"/>
			<point x="665" y="291" type="line"/>
			<point x="670" y="319" type="line"/>
			<point x="428" y="319" type="line"/>
		</contour>
	</outline>
	<anchor name="aboveUC" x="438" y="694"/>
	<anchor name="belowLC" x="343" y="-20"/>
</glyph>
<glyph name="H" format="2">
	<unicode hex="0048"/>
	<advance width="765"/>
	<outline>
		<contour>
			<point x="13" y="0" type="line"/>
			<point x="268" y="0" type="line"/>
			<point x="274" y="28" type="line"/>
			<point x="153" y="38" type="line"/>
			<point x="138" y="38" type="line"/>
			<point x="19" y="28" type="line"/>
		</contour>
		<contour>
			<point x="109" y="0" type="line"/>
			<point x="165" y="0" type="line"/>
			<point x="181" y="104"/>
			<point x="200" y="208"/>
			<point x="219" y="312" type="curve" smooth="yes"/>
			<point x="287" y="674" type="line"/>
			<point x="232" y="674" type="line"/>
			<point x="215" y="571"/>
			<point x="197" y="466"/>
			<point x="178" y="362" type="curve" smooth="yes"/>
		</contour>
		<contour>
			<point x="124" y="646" type="line"/>
			<point x="245" y="636" type="line"/>
			<point x="261" y="636" type="line"/>
			<point x="378" y="646" type="line"/>
			<point x="384" y="674" type="line"/>
			<point x="129" y="674" type="line"/>
		</contour>
		<contour>
			<point x="199" y="337" type="line"/>
			<point x="615" y="337" type="line"/>
			<point x="620" y="368" type="line"/>
			<point x="206" y="368" type="line"/>
		</contour>
		<contour>
			<point x="434" y="0" type="line"/>
			<point x="689" y="0" type="line"/>
			<point x="694" y="28" type="line"/>
			<point x="574" y="38" type="line"/>
			<point x="559" y="38" type="line"/>
			<point x="440" y="28" type="line"/>
		</contour>
		<contour>
			<point x="530" y="0" type="line"/>
			<point x="586" y="0" type="line"/>
			<point x="602" y="104"/>
			<point x="621" y="208"/>
			<point x="640" y="312" type="curve" smooth="yes"/>
			<point x="708" y="674" type="line"/>
			<point x="652" y="674" type="line"/>
			<point x="636" y="571"/>
			<point x="618" y="466"/>
			<point x="599" y="362" type="curve" smooth="yes"/>
		</contour>
		<contour>
			<point x="545" y="646" type="line"/>
			<point x="666" y="636" type="line"/>
			<point x="682" y="636" type="line"/>
			<point x="799" y="646" type="line"/>
			<point x="805" y="674" type="line"/>
			<point x="550" y="674" type="line"/>
		</contour>
	</outline>
	<anchor name="aboveUC" x="468" y="686"/>
	<anchor name="belowLC" x="355" y="-22"/>
	<note>
		skew 10 scale 120
	</note>
</glyph>
<glyph name="I" format="2">
	<unicode hex="0049"/>
	<advance width="343"/>
	<outline>
		<contour>
			<point x="6" y="0" type="line"/>
			<point x="261" y="0" type="line"/>
			<point x="267" y="28" type="line"/>
			<point x="146" y="38" type="line"/>
			<point x="131" y="38" type="line"/>
			<point x="12" y="28" type="line"/>
		</contour>
		<contour>
			<point x="103" y="0" type="line"/>
			<point x="159" y="0" type="line"/>
			<point x="175" y="104"/>
			<point x="193" y="208"/>
			<point x="212" y="312" type="curve" smooth="yes"/>
			<point x="280" y="674" type="line"/>
			<point x="225" y="674" type="line"/>
			<point x="208" y="570"/>
			<point x="191" y="466"/>
			<point x="171" y="362" type="curve" smooth="yes"/>
		</contour>
		<contour>
			<point x="117" y="645" type="line"/>
			<point x="238" y="635" type="line"/>
			<point x="254" y="635" type="line"/>
			<point x="372" y="645" type="line"/>
			<point x="378" y="674" type="line"/>
			<point x="123" y="674" type="line"/>
		</contour>
	</outline>
	<anchor name="aboveUC" x="253" y="694"/>
	<anchor name="belowLC" x="128" y="-20"/>
	<anchor name="ogonek" x="175" y="0"/>
</glyph>
<glyph name="J" format="2">
	<unicode hex="004A"/>
	<advance width="402"/>
	<outline>
		<contour>
			<point x="-26" y="0" type="curve"/>
			<point x="-19" y="-26"/>
			<point x="14" y="-42"/>
			<point x="62" y="-42" type="curve" smooth="yes"/>
			<point x="136" y="-42"/>
			<point x="213" y="18"/>
			<point x="247" y="140" type="curve" smooth="yes"/>
			<point x="259" y="177"/>
			<point x="267" y="212"/>
			<point x="281" y="287" type="curve" smooth="yes"/>
			<point x="350" y="674" type="line"/>
			<point x="295" y="674" type="line"/>
			<point x="275" y="551"/>
			<point x="260" y="454"/>
			<point x="245" y="372" type="curve" smooth="yes"/>
			<point x="230" y="286"/>
			<point x="222" y="231"/>
			<point x="210" y="175" type="curve" smooth="yes"/>
			<point x="189" y="68"/>
			<point x="150" y="10"/>
			<point x="85" y="-15" type="curve"/>
			<point x="85" y="-21" type="line"/>
			<point x="111" y="-21" type="line"/>
			<point x="111" y="-15" type="line"/>
			<point x="58" y="20"/>
			<point x="35" y="31"/>
			<point x="17" y="31" type="curve" smooth="yes"/>
			<point x="-7" y="31"/>
			<point x="-22" y="19"/>
		</contour>
		<contour>
			<point x="180" y="645" type="line"/>
			<point x="306" y="635" type="line"/>
			<point x="323" y="635" type="line"/>
			<point x="444" y="645" type="line"/>
			<point x="449" y="674" type="line"/>
			<point x="186" y="674" type="line"/>
		</contour>
	</outline>
	<anchor name="aboveUC" x="324" y="694"/>
	<anchor name="belowLC" x="127" y="-62"/>
</glyph>
<glyph name="K" format="2">
	<unicode hex="004B"/>
	<advance width="657"/>
	<outline>
		<contour>
			<point x="6" y="0" type="line"/>
			<point x="261" y="0" type="line"/>
			<point x="266" y="28" type="line"/>
			<point x="146" y="38" type="line"/>
			<point x="131" y="38" type="line"/>
			<point x="12" y="28" type="line"/>
		</contour>
		<contour>
			<point x="103" y="0" type="line"/>
			<point x="159" y="0" type="line"/>
			<point x="175" y="104"/>
			<point x="193" y="208"/>
			<point x="212" y="312" type="curve" smooth="yes"/>
			<point x="280" y="674" type="line"/>
			<point x="225" y="674" type="line"/>
			<point x="208" y="570"/>
			<point x="191" y="466"/>
			<point x="171" y="362" type="curve" smooth="yes"/>
		</contour>
		<contour>
			<point x="117" y="645" type="line"/>
			<point x="238" y="635" type="line"/>
			<point x="254" y="635" type="line"/>
			<point x="372" y="645" type="line"/>
			<point x="377" y="674" type="line"/>
			<point x="123" y="674" type="line"/>
		</contour>
		<contour>
			<point x="169" y="234" type="line"/>
			<point x="650" y="674" type="line"/>
			<point x="607" y="674" type="line"/>
			<point x="177" y="279" type="line"/>
			<point x="170" y="279" type="line"/>
		</contour>
		<contour>
			<point x="505" y="0" type="line"/>
			<point x="561" y="0" type="line"/>
			<point x="340" y="406" type="line"/>
			<point x="301" y="369" type="line"/>
		</contour>
		<contour>
			<point x="390" y="0" type="line"/>
			<point x="627" y="0" type="line"/>
			<point x="632" y="28" type="line"/>
			<point x="526" y="38" type="line"/>
			<point x="510" y="38" type="line"/>
			<point x="395" y="28" type="line"/>
		</contour>
		<contour>
			<point x="473" y="645" type="line"/>
			<point x="583" y="635" type="line"/>
			<point x="599" y="635" type="line"/>
			<point x="698" y="645" type="line"/>
			<point x="703" y="674" type="line"/>
			<point x="479" y="674" type="line"/>
		</contour>
	</outline>
	<anchor name="aboveUC" x="418" y="694"/>
	<anchor name="belowLC" x="326" y="-20"/>
</glyph>
<glyph name="L" format="2">
	<unicode hex="004C"/>
	<advance width="550"/>
	<outline>
		<contour>
			<point x="6" y="0" type="line"/>
			<point x="128" y="0" type="line"/>
			<point x="135" y="38" type="line"/>
			<point x="127" y="38" type="line"/>
			<point x="12" y="28" type="line"/>
		</contour>
		<contour>
			<point x="103" y="0" type="line"/>
			<point x="159" y="0" type="line"/>
			<point x="175" y="104"/>
			<point x="193" y="208"/>
			<point x="212" y="312" type="curve" smooth="yes"/>
			<point x="280" y="674" type="line"/>
			<point x="225" y="674" type="line"/>
			<point x="208" y="570"/>
			<point x="191" y="466"/>
			<point x="171" y="362" type="curve" smooth="yes"/>
		</contour>
		<contour>
			<point x="117" y="645" type="line"/>
			<point x="238" y="635" type="line"/>
			<point x="258" y="635" type="line"/>
			<point x="376" y="645" type="line"/>
			<point x="381" y="674" type="line"/>
			<point x="123" y="674" type="line"/>
		</contour>
		<contour>
			<point x="128" y="0" type="line"/>
			<point x="485" y="0" type="line"/>
			<point x="524" y="173" type="line"/>
			<point x="487" y="173" type="line"/>
			<point x="430" y="0" type="line"/>
			<point x="466" y="33" type="line"/>
			<point x="134" y="33" type="line"/>
		</contour>
	</outline>
	<anchor name="aboveUC" x="250" y="694"/>
	<anchor name="belowLC" x="283" y="-20"/>
</glyph>
<glyph name="M" format="2">
	<unicode hex="004D"/>
	<advance width="914"/>
	<outline>
		<contour>
			<point x="-3" y="0" type="line"/>
			<point x="220" y="0" type="line"/>
			<point x="226" y="28" type="line"/>
			<point x="119" y="38" type="line"/>
			<point x="103" y="38" type="line"/>
			<point x="3" y="28" type="line"/>
		</contour>
		<contour>
			<point x="87" y="0" type="line"/>
			<point x="121" y="0" type="line"/>
			<point x="193" y="311" type="line"/>
			<point x="276" y="663" type="line"/>
			<point x="243" y="663" type="line"/>
		</contour>
		<contour>
			<point x="391" y="0" type="line"/>
			<point x="414" y="0" type="line"/>
			<point x="783" y="621" type="line"/>
			<point x="791" y="634" type="line"/>
			<point x="806" y="634" type="line"/>
			<point x="806" y="674" type="line"/>
			<point x="781" y="674" type="line"/>
			<point x="418" y="65" type="line"/>
			<point x="411" y="52" type="line"/>
			<point x="432" y="52" type="line"/>
			<point x="299" y="674" type="line"/>
			<point x="148" y="674" type="line"/>
			<point x="143" y="645" type="line"/>
			<point x="252" y="634" type="line"/>
			<point x="254" y="622" type="line"/>
			<point x="256" y="614" type="line"/>
		</contour>
		<contour>
			<point x="592" y="0" type="line"/>
			<point x="838" y="0" type="line"/>
			<point x="843" y="29" type="line"/>
			<point x="726" y="39" type="line"/>
			<point x="710" y="39" type="line"/>
			<point x="596" y="29" type="line"/>
		</contour>
		<contour>
			<point x="684" y="0" type="line"/>
			<point x="738" y="0" type="line"/>
			<point x="753" y="102"/>
			<point x="764" y="207"/>
			<point x="779" y="311" type="curve" smooth="yes"/>
			<point x="833" y="674" type="line"/>
			<point x="796" y="674" type="line"/>
			<point x="776" y="635" type="line"/>
		</contour>
		<contour>
			<point x="795" y="635" type="line"/>
			<point x="807" y="635" type="line"/>
			<point x="926" y="645" type="line"/>
			<point x="930" y="674" type="line"/>
			<point x="798" y="674" type="line"/>
		</contour>
	</outline>
	<anchor name="aboveUC" x="536" y="694"/>
	<anchor name="belowLC" x="404" y="-20"/>
</glyph>
<glyph name="N" format="2">
	<unicode hex="004E"/>
	<advance width="727"/>
	<outline>
		<contour>
			<point x="7" y="0" type="line"/>
			<point x="239" y="0" type="line"/>
			<point x="244" y="28" type="line"/>
			<point x="127" y="38" type="line"/>
			<point x="111" y="38" type="line"/>
			<point x="12" y="28" type="line"/>
		</contour>
		<contour>
			<point x="93" y="0" type="line"/>
			<point x="127" y="0" type="line"/>
			<point x="252" y="659" type="line"/>
			<point x="221" y="674" type="line"/>
		</contour>
		<contour>
			<point x="545" y="645" type="line"/>
			<point x="666" y="635" type="line"/>
			<point x="682" y="635" type="line"/>
			<point x="776" y="645" type="line"/>
			<point x="782" y="674" type="line"/>
			<point x="550" y="674" type="line"/>
		</contour>
		<contour>
			<point x="576" y="67" type="line"/>
			<point x="564" y="67" type="line"/>
			<point x="268" y="674" type="line"/>
			<point x="121" y="674" type="line"/>
			<point x="115" y="645" type="line"/>
			<point x="256" y="636" type="line"/>
			<point x="217" y="653" type="line"/>
			<point x="546" y="-10" type="line"/>
			<point x="570" y="-10" type="line"/>
			<point x="698" y="674" type="line"/>
			<point x="664" y="674" type="line"/>
			<point x="545" y="36" type="line"/>
		</contour>
	</outline>
	<anchor name="aboveUC" x="432" y="694"/>
	<anchor name="belowLC" x="362" y="-20"/>
</glyph>
<glyph name="O" format="1">
	<unicode hex="004F"/>
	<advance width="656"/>
	<outline>
		<contour>
			<point x="307" y="-15" type="curve" smooth="yes"/>
			<point x="495" y="-15"/>
			<point x="645" y="171"/>
			<point x="645" y="411" type="curve" smooth="yes"/>
			<point x="645" y="574"/>
			<point x="553" y="689"/>
			<point x="401" y="689" type="curve" smooth="yes"/>
			<point x="219" y="689"/>
			<point x="65" y="496"/>
			<point x="65" y="263" type="curve" smooth="yes"/>
			<point x="65" y="99"/>
			<point x="160" y="-15"/>
		</contour>
		<contour>
			<point x="314" y="18" type="curve" smooth="yes"/>
			<point x="187" y="18"/>
			<point x="119" y="124"/>
			<point x="119" y="270" type="curve" smooth="yes"/>
			<point x="119" y="474"/>
			<point x="241" y="656"/>
			<point x="395" y="656" type="curve" smooth="yes"/>
			<point x="524" y="656"/>
			<point x="590" y="555"/>
			<point x="590" y="403" type="curve" smooth="yes"/>
			<point x="590" y="186"/>
			<point x="468" y="18"/>
		</contour>
		<contour>
			<point name="aboveUC" x="401" y="686" type="move"/>
		</contour>
		<contour>
			<point name="hornLC" x="601" y="671" type="move"/>
		</contour>
		<contour>
			<point name="ogonek" x="391" y="0" type="move"/>
		</contour>
		<contour>
			<point name="belowLC" x="299" y="-22" type="move"/>
		</contour>
	</outline>
</glyph>
<glyph name="P" format="2">
	<unicode hex="0050"/>
	<advance width="555"/>
	<outline>
		<contour>
			<point x="13" y="0" type="line"/>
			<point x="272" y="0" type="line"/>
			<point x="278" y="28" type="line"/>
			<point x="152" y="38" type="line"/>
			<point x="137" y="38" type="line"/>
			<point x="19" y="28" type="line"/>
		</contour>
		<contour>
			<point x="109" y="0" type="line"/>
			<point x="165" y="0" type="line"/>
			<point x="181" y="104"/>
			<point x="200" y="208"/>
			<point x="219" y="312" type="curve" smooth="yes"/>
			<point x="287" y="674" type="line"/>
			<point x="231" y="674" type="line"/>
			<point x="215" y="571"/>
			<point x="197" y="466"/>
			<point x="178" y="362" type="curve" smooth="yes"/>
		</contour>
		<contour>
			<point x="124" y="646" type="line"/>
			<point x="244" y="636" type="line"/>
			<point x="254" y="636" type="line"/>
			<point x="262" y="674" type="line"/>
			<point x="129" y="674" type="line"/>
		</contour>
		<contour>
			<point x="185" y="275" type="line"/>
			<point x="301" y="275" type="line" smooth="yes"/>
			<point x="476" y="275"/>
			<point x="572" y="370"/>
			<point x="572" y="496" type="curve" smooth="yes"/>
			<point x="572" y="608"/>
			<point x="504" y="674"/>
			<point x="356" y="674" type="curve" smooth="yes"/>
			<point x="262" y="674" type="line"/>
			<point x="256" y="642" type="line"/>
			<point x="345" y="642" type="line" smooth="yes"/>
			<point x="463" y="642"/>
			<point x="517" y="592"/>
			<point x="517" y="492" type="curve" smooth="yes"/>
			<point x="517" y="387"/>
			<point x="450" y="305"/>
			<point x="295" y="305" type="curve" smooth="yes"/>
			<point x="191" y="305" type="line"/>
		</contour>
	</outline>
	<anchor name="aboveUC" x="353" y="686"/>
	<anchor name="belowLC" x="144" y="-22"/>
</glyph>
<glyph name="Q" format="2">
	<unicode hex="0051"/>
	<advance width="656"/>
	<outline>
		<contour>
			<point x="483" y="-247" type="curve" smooth="yes"/>
			<point x="555" y="-247"/>
			<point x="605" y="-220"/>
			<point x="647" y="-183" type="curve"/>
			<point x="636" y="-163" type="line"/>
			<point x="593" y="-191"/>
			<point x="555" y="-206"/>
			<point x="496" y="-206" type="curve" smooth="yes"/>
			<point x="381" y="-206"/>
			<point x="312" y="-135"/>
			<point x="312" y="8" type="curve"/>
			<point x="261" y="8" type="line"/>
			<point x="261" y="-148"/>
			<point x="343" y="-247"/>
		</contour>
		<component base="O"/>
	</outline>
	<anchor name="aboveUC" x="396" y="694"/>
</glyph>
<glyph name="R" format="2">
	<unicode hex="0052"/>
	<advance width="632"/>
	<outline>
		<contour>
			<point x="13" y="0" type="line"/>
			<point x="272" y="0" type="line"/>
			<point x="278" y="28" type="line"/>
			<point x="152" y="38" type="line"/>
			<point x="137" y="38" type="line"/>
			<point x="19" y="28" type="line"/>
		</contour>
		<contour>
			<point x="109" y="0" type="line"/>
			<point x="165" y="0" type="line"/>
			<point x="181" y="105"/>
			<point x="200" y="211"/>
			<point x="219" y="315" type="curve" smooth="yes"/>
			<point x="287" y="674" type="line"/>
			<point x="231" y="674" type="line"/>
			<point x="215" y="571"/>
			<point x="197" y="466"/>
			<point x="178" y="362" type="curve" smooth="yes"/>
		</contour>
		<contour>
			<point x="124" y="646" type="line"/>
			<point x="244" y="636" type="line"/>
			<point x="254" y="636" type="line"/>
			<point x="261" y="674" type="line"/>
			<point x="129" y="674" type="line"/>
		</contour>
		<contour>
			<point x="544" y="-7" type="curve" smooth="yes"/>
			<point x="578" y="-7"/>
			<point x="601" y="-3"/>
			<point x="617" y="0" type="curve"/>
			<point x="623" y="27" type="line"/>
			<point x="487" y="38" type="line"/>
			<point x="526" y="22" type="line"/>
			<point x="448" y="214" type="line" smooth="yes"/>
			<point x="417" y="291"/>
			<point x="398" y="317"/>
			<point x="341" y="326" type="curve"/>
			<point x="348" y="316" type="line"/>
			<point x="490" y="323"/>
			<point x="572" y="409"/>
			<point x="572" y="514" type="curve" smooth="yes"/>
			<point x="572" y="617"/>
			<point x="500" y="674"/>
			<point x="369" y="674" type="curve" smooth="yes"/>
			<point x="262" y="674" type="line"/>
			<point x="256" y="642" type="line"/>
			<point x="358" y="642" type="line" smooth="yes"/>
			<point x="471" y="642"/>
			<point x="518" y="593"/>
			<point x="518" y="512" type="curve" smooth="yes"/>
			<point x="518" y="416"/>
			<point x="449" y="344"/>
			<point x="330" y="344" type="curve" smooth="yes"/>
			<point x="200" y="344" type="line"/>
			<point x="194" y="314" type="line"/>
			<point x="284" y="314" type="line" smooth="yes"/>
			<point x="347" y="314"/>
			<point x="364" y="300"/>
			<point x="398" y="213" type="curve" smooth="yes"/>
			<point x="464" y="44" type="line" smooth="yes"/>
			<point x="479" y="5"/>
			<point x="497" y="-7"/>
		</contour>
	</outline>
	<anchor name="aboveUC" x="358" y="686"/>
	<anchor name="belowLC" x="358" y="-22"/>
</glyph>
<glyph name="S" format="2">
	<unicode hex="0053"/>
	<advance width="506"/>
	<outline>
		<contour>
			<point x="31" y="39" type="line"/>
			<point x="72" y="9"/>
			<point x="137" y="-14"/>
			<point x="207" y="-14" type="curve" smooth="yes"/>
			<point x="338" y="-14"/>
			<point x="430" y="53"/>
			<point x="430" y="165" type="curve" smooth="yes"/>
			<point x="430" y="237"/>
			<point x="395" y="282"/>
			<point x="286" y="365" type="curve" smooth="yes"/>
			<point x="205" y="425"/>
			<point x="177" y="460"/>
			<point x="177" y="523" type="curve" smooth="yes"/>
			<point x="177" y="608"/>
			<point x="244" y="654"/>
			<point x="338" y="654" type="curve" smooth="yes"/>
			<point x="383" y="654"/>
			<point x="416" y="647"/>
			<point x="467" y="617" type="curve"/>
			<point x="443" y="644" type="line"/>
			<point x="439" y="512" type="line"/>
			<point x="476" y="512" type="line"/>
			<point x="499" y="642" type="line"/>
			<point x="443" y="674"/>
			<point x="400" y="687"/>
			<point x="334" y="687" type="curve" smooth="yes"/>
			<point x="222" y="687"/>
			<point x="130" y="622"/>
			<point x="130" y="511" type="curve" smooth="yes"/>
			<point x="130" y="446"/>
			<point x="160" y="395"/>
			<point x="258" y="321" type="curve" smooth="yes"/>
			<point x="353" y="249"/>
			<point x="381" y="216"/>
			<point x="381" y="155" type="curve" smooth="yes"/>
			<point x="381" y="74"/>
			<point x="317" y="20"/>
			<point x="206" y="20" type="curve" smooth="yes"/>
			<point x="146" y="20"/>
			<point x="103" y="34"/>
			<point x="55" y="66" type="curve"/>
			<point x="88" y="38" type="line"/>
			<point x="86" y="169" type="line"/>
			<point x="50" y="169" type="line"/>
		</contour>
	</outline>
	<anchor name="aboveUC" x="353" y="694"/>
	<anchor name="belowLC" x="213" y="-20"/>
	<anchor name="baseLC" x="206" y="0"/>
</glyph>
<glyph name="T" format="2">
	<unicode hex="0054"/>
	<advance width="595"/>
	<outline>
		<contour>
			<point x="78" y="504" type="line"/>
			<point x="112" y="504" type="line"/>
			<point x="168" y="674" type="line"/>
			<point x="136" y="640" type="line"/>
			<point x="614" y="640" type="line"/>
			<point x="593" y="674" type="line"/>
			<point x="586" y="504" type="line"/>
			<point x="621" y="504" type="line"/>
			<point x="645" y="674" type="line"/>
			<point x="117" y="674" type="line"/>
		</contour>
		<contour>
			<point x="130" y="0" type="line"/>
			<point x="395" y="0" type="line"/>
			<point x="400" y="28" type="line"/>
			<point x="273" y="38" type="line"/>
			<point x="257" y="38" type="line"/>
			<point x="135" y="28" type="line"/>
		</contour>
		<contour>
			<point x="230" y="0" type="line"/>
			<point x="286" y="0" type="line"/>
			<point x="302" y="104"/>
			<point x="321" y="208"/>
			<point x="340" y="312" type="curve" smooth="yes"/>
			<point x="408" y="674" type="line"/>
			<point x="352" y="674" type="line"/>
			<point x="336" y="570"/>
			<point x="318" y="466"/>
			<point x="299" y="362" type="curve" smooth="yes"/>
		</contour>
	</outline>
	<anchor name="aboveUC" x="385" y="694"/>
	<anchor name="belowLC" x="260" y="-20"/>
	<anchor name="baseLC" x="260" y="0"/>
</glyph>
<glyph name="U" format="2">
	<unicode hex="0055"/>
	<advance width="720"/>
	<outline>
		<contour>
			<point x="127" y="167" type="curve" smooth="yes"/>
			<point x="127" y="47"/>
			<point x="204" y="-15"/>
			<point x="328" y="-15" type="curve" smooth="yes"/>
			<point x="480" y="-15"/>
			<point x="565" y="63"/>
			<point x="602" y="257" type="curve" smooth="yes"/>
			<point x="680" y="674" type="line"/>
			<point x="645" y="674" type="line"/>
			<point x="571" y="282" type="line" smooth="yes"/>
			<point x="533" y="84"/>
			<point x="472" y="28"/>
			<point x="335" y="28" type="curve" smooth="yes"/>
			<point x="244" y="28"/>
			<point x="178" y="76"/>
			<point x="179" y="173" type="curve" smooth="yes"/>
			<point x="179" y="207"/>
			<point x="183" y="234"/>
			<point x="188" y="265" type="curve" smooth="yes"/>
			<point x="265" y="674" type="line"/>
			<point x="211" y="674" type="line"/>
			<point x="194" y="570"/>
			<point x="175" y="465"/>
			<point x="156" y="361" type="curve" smooth="yes"/>
			<point x="137" y="262" type="line" smooth="yes"/>
			<point x="131" y="228"/>
			<point x="127" y="196"/>
		</contour>
		<contour>
			<point x="109" y="645" type="line"/>
			<point x="224" y="635" type="line"/>
			<point x="240" y="635" type="line"/>
			<point x="357" y="645" type="line"/>
			<point x="363" y="674" type="line"/>
			<point x="114" y="674" type="line"/>
		</contour>
		<contour>
			<point x="528" y="645" type="line"/>
			<point x="647" y="635" type="line"/>
			<point x="663" y="635" type="line"/>
			<point x="766" y="645" type="line"/>
			<point x="772" y="674" type="line"/>
			<point x="533" y="674" type="line"/>
		</contour>
	</outline>
	<anchor name="aboveUC" x="449" y="694"/>
	<anchor name="belowLC" x="331" y="-20"/>
	<anchor name="ogonek" x="421" y="0"/>
	<anchor name="hornLC" x="657" y="603"/>
</glyph>
<glyph name="V" format="2">
	<unicode hex="0056"/>
	<advance width="608"/>
	<outline>
		<contour>
			<point x="59" y="645" type="line"/>
			<point x="170" y="635" type="line"/>
			<point x="184" y="635" type="line"/>
			<point x="308" y="645" type="line"/>
			<point x="313" y="674" type="line"/>
			<point x="64" y="674" type="line"/>
		</contour>
		<contour>
			<point x="247" y="-10" type="line"/>
			<point x="276" y="-10" type="line"/>
			<point x="636" y="674" type="line"/>
			<point x="597" y="674" type="line"/>
			<point x="269" y="42" type="line"/>
			<point x="287" y="42" type="line"/>
			<point x="196" y="674" type="line"/>
			<point x="141" y="674" type="line"/>
		</contour>
		<contour>
			<point x="480" y="645" type="line"/>
			<point x="590" y="635" type="line"/>
			<point x="606" y="635" type="line"/>
			<point x="706" y="645" type="line"/>
			<point x="711" y="674" type="line"/>
			<point x="485" y="674" type="line"/>
		</contour>
	</outline>
	<anchor name="aboveUC" x="397" y="694"/>
	<anchor name="belowLC" x="257" y="-20"/>
</glyph>
<glyph name="W" format="2">
	<unicode hex="0057"/>
	<advance width="880"/>
	<outline>
		<contour>
			<point x="59" y="645" type="line"/>
			<point x="169" y="635" type="line"/>
			<point x="185" y="635" type="line"/>
			<point x="300" y="645" type="line"/>
			<point x="305" y="674" type="line"/>
			<point x="64" y="674" type="line"/>
		</contour>
		<contour>
			<point x="197" y="-10" type="line"/>
			<point x="225" y="-10" type="line"/>
			<point x="517" y="613" type="line"/>
			<point x="497" y="598" type="line"/>
			<point x="572" y="-10" type="line"/>
			<point x="600" y="-10" type="line"/>
			<point x="900" y="674" type="line"/>
			<point x="864" y="674" type="line"/>
			<point x="593" y="44" type="line"/>
			<point x="609" y="54" type="line"/>
			<point x="538" y="674" type="line"/>
			<point x="512" y="674" type="line"/>
			<point x="220" y="45" type="line"/>
			<point x="237" y="54" type="line"/>
			<point x="197" y="674" type="line"/>
			<point x="143" y="674" type="line"/>
		</contour>
		<contour>
			<point x="400" y="645" type="line"/>
			<point x="510" y="635" type="line"/>
			<point x="527" y="635" type="line"/>
			<point x="642" y="645" type="line"/>
			<point x="647" y="674" type="line"/>
			<point x="405" y="674" type="line"/>
		</contour>
		<contour>
			<point x="753" y="645" type="line"/>
			<point x="856" y="635" type="line"/>
			<point x="872" y="635" type="line"/>
			<point x="979" y="645" type="line"/>
			<point x="984" y="674" type="line"/>
			<point x="758" y="674" type="line"/>
		</contour>
	</outline>
	<anchor name="aboveUC" x="521" y="694"/>
	<anchor name="belowLC" x="406" y="-20"/>
</glyph>
<glyph name="X" format="2">
	<unicode hex="0058"/>
	<advance width="637"/>
	<outline>
		<contour>
			<point x="-15" y="0" type="line"/>
			<point x="220" y="0" type="line"/>
			<point x="225" y="28" type="line"/>
			<point x="110" y="38" type="line"/>
			<point x="95" y="38" type="line"/>
			<point x="-9" y="28" type="line"/>
		</contour>
		<contour>
			<point x="49" y="0" type="line"/>
			<point x="90" y="0" type="line"/>
			<point x="346" y="326" type="line"/>
			<point x="330" y="349" type="line"/>
		</contour>
		<contour>
			<point x="108" y="645" type="line"/>
			<point x="215" y="635" type="line"/>
			<point x="231" y="635" type="line"/>
			<point x="351" y="645" type="line"/>
			<point x="356" y="674" type="line"/>
			<point x="113" y="674" type="line"/>
		</contour>
		<contour>
			<point x="460" y="0" type="line"/>
			<point x="516" y="0" type="line"/>
			<point x="363" y="362" type="line"/>
			<point x="361" y="366" type="line"/>
			<point x="232" y="674" type="line"/>
			<point x="177" y="674" type="line"/>
			<point x="325" y="323" type="line"/>
			<point x="326" y="319" type="line"/>
		</contour>
		<contour>
			<point x="343" y="0" type="line"/>
			<point x="587" y="0" type="line"/>
			<point x="593" y="28" type="line"/>
			<point x="486" y="38" type="line"/>
			<point x="471" y="38" type="line"/>
			<point x="348" y="28" type="line"/>
		</contour>
		<contour>
			<point x="334" y="350" type="line"/>
			<point x="349" y="327" type="line"/>
			<point x="627" y="674" type="line"/>
			<point x="587" y="674" type="line"/>
		</contour>
		<contour>
			<point x="454" y="645" type="line"/>
			<point x="566" y="635" type="line"/>
			<point x="582" y="635" type="line"/>
			<point x="687" y="645" type="line"/>
			<point x="692" y="674" type="line"/>
			<point x="458" y="674" type="line"/>
		</contour>
	</outline>
	<anchor name="aboveUC" x="412" y="694"/>
	<anchor name="belowLC" x="280" y="-20"/>
</glyph>
<glyph name="Y" format="2">
	<unicode hex="0059"/>
	<advance width="556"/>
	<outline>
		<contour>
			<point x="58" y="645" type="line"/>
			<point x="161" y="635" type="line"/>
			<point x="177" y="635" type="line"/>
			<point x="298" y="645" type="line"/>
			<point x="304" y="674" type="line"/>
			<point x="64" y="674" type="line"/>
		</contour>
		<contour>
			<point x="108" y="0" type="line"/>
			<point x="382" y="0" type="line"/>
			<point x="388" y="28" type="line"/>
			<point x="261" y="38" type="line"/>
			<point x="245" y="38" type="line"/>
			<point x="113" y="28" type="line"/>
		</contour>
		<contour>
			<point x="277" y="250" type="line"/>
			<point x="304" y="252" type="line"/>
			<point x="591" y="674" type="line"/>
			<point x="555" y="674" type="line"/>
			<point x="300" y="293" type="line"/>
			<point x="315" y="296" type="line"/>
			<point x="185" y="674" type="line"/>
			<point x="126" y="674" type="line"/>
		</contour>
		<contour>
			<point x="217" y="0" type="line"/>
			<point x="270" y="0" type="line"/>
			<point x="288" y="99"/>
			<point x="306" y="199"/>
			<point x="324" y="298" type="curve"/>
			<point x="273" y="298" type="line"/>
		</contour>
		<contour>
			<point x="431" y="645" type="line"/>
			<point x="540" y="635" type="line"/>
			<point x="556" y="635" type="line"/>
			<point x="654" y="645" type="line"/>
			<point x="660" y="674" type="line"/>
			<point x="436" y="674" type="line"/>
		</contour>
	</outline>
	<anchor name="aboveUC" x="363" y="694"/>
	<anchor name="belowLC" x="241" y="-20"/>
</glyph>
<glyph name="Z" format="2">
	<unicode hex="005A"/>
	<advance width="540"/>
	<outline>
		<contour>
			<point x="-3" y="0" type="line"/>
			<point x="39" y="0" type="line"/>
			<point x="577" y="648" type="line"/>
			<point x="582" y="674" type="line"/>
			<point x="541" y="674" type="line"/>
			<point x="2" y="26" type="line"/>
		</contour>
		<contour>
			<point x="87" y="505" type="line"/>
			<point x="124" y="505" type="line"/>
			<point x="181" y="674" type="line"/>
			<point x="144" y="641" type="line"/>
			<point x="558" y="641" type="line"/>
			<point x="564" y="674" type="line"/>
			<point x="124" y="674" type="line"/>
		</contour>
		<contour>
			<point x="22" y="0" type="line"/>
			<point x="481" y="0" type="line"/>
			<point x="520" y="169" type="line"/>
			<point x="483" y="169" type="line"/>
			<point x="425" y="0" type="line"/>
			<point x="461" y="33" type="line"/>
			<point x="28" y="33" type="line"/>
		</contour>
	</outline>
	<anchor name="aboveUC" x="350" y="686"/>
	<anchor name="belowLC" x="254" y="-22"/>
</glyph>
<glyph name="bracketleft" format="1">
	<unicode hex="005B"/>
	<advance width="299"/>
	<outline>
		<contour>
			<point x="34" y="-159" type="curve"/>
			<point x="84" y="-159" type="line"/>
			<point x="100" y="-54"/>
			<point x="121" y="53"/>
			<point x="141" y="158" type="curve" smooth="yes"/>
			<point x="186" y="398" type="line" smooth="yes"/>
			<point x="206" y="505"/>
			<point x="227" y="612"/>
			<point x="249" y="715" type="curve"/>
			<point x="199" y="715" type="line"/>
			<point x="182" y="610"/>
			<point x="162" y="503"/>
			<point x="142" y="398" type="curve" smooth="yes"/>
			<point x="97" y="158" type="line" smooth="yes"/>
			<point x="77" y="51"/>
			<point x="56" y="-56"/>
		</contour>
		<contour>
			<point x="63" y="-159" type="line"/>
			<point x="198" y="-159" type="line"/>
			<point x="203" y="-130" type="line"/>
			<point x="83" y="-120" type="line"/>
			<point x="70" y="-120" type="line"/>
		</contour>
		<contour>
			<point x="221" y="676" type="line"/>
			<point x="233" y="676" type="line"/>
			<point x="357" y="686" type="line"/>
			<point x="363" y="715" type="line"/>
			<point x="228" y="715" type="line"/>
		</contour>
	</outline>
</glyph>
<glyph name="backslash" format="2">
	<unicode hex="005C"/>
	<advance width="294"/>
	<outline>
		<contour>
			<point x="230" y="-160" type="line"/>
			<point x="139" y="710" type="line"/>
			<point x="104" y="710" type="line"/>
			<point x="193" y="-160" type="line"/>
		</contour>
	</outline>
</glyph>
<glyph name="asciicircum" format="1">
	<unicode hex="005E"/>
	<advance width="530"/>
	<outline>
		<contour>
			<point x="124" y="233" type="line"/>
			<point x="154" y="212" type="line"/>
			<point x="314" y="468" type="line"/>
			<point x="285" y="468" type="line"/>
			<point x="452" y="212" type="line"/>
			<point x="481" y="233" type="line"/>
			<point x="319" y="486" type="line"/>
			<point x="281" y="486" type="line"/>
		</contour>
	</outline>
</glyph>
<glyph name="a" format="1">
	<unicode hex="0061"/>
	<advance width="509"/>
	<outline>
		<contour>
			<point x="144" y="-13" type="curve" smooth="yes"/>
			<point x="222" y="-13"/>
			<point x="299" y="72"/>
			<point x="368" y="172" type="curve"/>
			<point x="362" y="186" type="line"/>
			<point x="279" y="85"/>
			<point x="224" y="30"/>
			<point x="165" y="30" type="curve" smooth="yes"/>
			<point x="123" y="30"/>
			<point x="94" y="59"/>
			<point x="94" y="132" type="curve" smooth="yes"/>
			<point x="94" y="222"/>
			<point x="135" y="316"/>
			<point x="195" y="377" type="curve" smooth="yes"/>
			<point x="236" y="418"/>
			<point x="285" y="444"/>
			<point x="332" y="444" type="curve" smooth="yes"/>
			<point x="362" y="444"/>
			<point x="391" y="430"/>
			<point x="413" y="403" type="curve"/>
			<point x="431" y="425" type="line"/>
			<point x="411" y="462"/>
			<point x="386" y="485"/>
			<point x="349" y="485" type="curve" smooth="yes"/>
			<point x="209" y="485"/>
			<point x="46" y="280"/>
			<point x="46" y="111" type="curve" smooth="yes"/>
			<point x="46" y="20"/>
			<point x="94" y="-13"/>
		</contour>
		<contour>
			<point x="361" y="-13" type="curve" smooth="yes"/>
			<point x="421" y="-13"/>
			<point x="473" y="39"/>
			<point x="513" y="99" type="curve"/>
			<point x="496" y="112" type="line"/>
			<point x="460" y="64"/>
			<point x="419" y="30"/>
			<point x="387" y="30" type="curve" smooth="yes"/>
			<point x="372" y="30"/>
			<point x="360" y="36"/>
			<point x="360" y="52" type="curve" smooth="yes"/>
			<point x="360" y="69"/>
			<point x="365" y="92"/>
			<point x="370" y="114" type="curve" smooth="yes"/>
			<point x="450" y="481" type="line"/>
			<point x="438" y="489" type="line"/>
			<point x="396" y="444" type="line"/>
			<point x="325" y="110" type="line" smooth="yes"/>
			<point x="318" y="79"/>
			<point x="315" y="62"/>
			<point x="315" y="37" type="curve" smooth="yes"/>
			<point x="315" y="4"/>
			<point x="336" y="-13"/>
		</contour>
		<contour>
			<point name="aboveLC" x="336" y="502" type="move"/>
		</contour>
		<contour>
			<point name="ogonek" x="399" y="0" type="move"/>
		</contour>
		<contour>
			<point name="belowLC" x="219" y="-22" type="move"/>
		</contour>
	</outline>
</glyph>
<glyph name="b" format="1">
	<unicode hex="0062"/>
	<advance width="490"/>
	<outline>
		<contour>
			<point x="159" y="-13" type="curve" smooth="yes"/>
			<point x="315" y="-13"/>
			<point x="475" y="191"/>
			<point x="475" y="364" type="curve" smooth="yes"/>
			<point x="475" y="453"/>
			<point x="437" y="485"/>
			<point x="385" y="485" type="curve" smooth="yes"/>
			<point x="308" y="485"/>
			<point x="201" y="405"/>
			<point x="138" y="295" type="curve"/>
			<point x="145" y="290" type="line"/>
			<point x="227" y="383"/>
			<point x="300" y="443"/>
			<point x="364" y="443" type="curve" smooth="yes"/>
			<point x="404" y="443"/>
			<point x="428" y="412"/>
			<point x="428" y="343" type="curve" smooth="yes"/>
			<point x="428" y="251"/>
			<point x="382" y="149"/>
			<point x="319" y="88" type="curve" smooth="yes"/>
			<point x="271" y="43"/>
			<point x="222" y="27"/>
			<point x="183" y="27" type="curve" smooth="yes"/>
			<point x="140" y="27"/>
			<point x="122" y="50"/>
			<point x="122" y="89" type="curve" smooth="yes"/>
			<point x="122" y="128"/>
			<point x="128" y="151"/>
			<point x="143" y="220" type="curve" smooth="yes"/>
			<point x="164" y="321" type="line"/>
			<point x="167" y="332" type="line"/>
			<point x="251" y="736" type="line"/>
			<point x="241" y="745" type="line"/>
			<point x="87" y="716" type="line"/>
			<point x="83" y="696" type="line"/>
			<point x="208" y="691" type="line"/>
			<point x="201" y="702" type="line"/>
			<point x="98" y="215" type="line" smooth="yes"/>
			<point x="87" y="163"/>
			<point x="75" y="116"/>
			<point x="75" y="73" type="curve" smooth="yes"/>
			<point x="75" y="19"/>
			<point x="110" y="-13"/>
		</contour>
		<contour>
			<point name="aboveLC" x="213" y="734" type="move"/>
		</contour>
		<contour>
			<point name="belowLC" x="177" y="-22" type="move"/>
		</contour>
	</outline>
</glyph>
<glyph name="c" format="2">
	<unicode hex="0063"/>
	<advance width="407"/>
	<outline>
		<contour>
			<point x="202" y="-13" type="curve" smooth="yes"/>
			<point x="271" y="-13"/>
			<point x="332" y="32"/>
			<point x="373" y="99" type="curve"/>
			<point x="357" y="111" type="line"/>
			<point x="322" y="64"/>
			<point x="278" y="30"/>
			<point x="221" y="30" type="curve" smooth="yes"/>
			<point x="149" y="30"/>
			<point x="102" y="77"/>
			<point x="102" y="175" type="curve" smooth="yes"/>
			<point x="102" y="313"/>
			<point x="201" y="458"/>
			<point x="323" y="463" type="curve"/>
			<point x="323" y="469" type="line"/>
			<point x="296" y="469" type="line"/>
			<point x="342" y="421" type="line" smooth="yes"/>
			<point x="358" y="405"/>
			<point x="369" y="397"/>
			<point x="383" y="397" type="curve" smooth="yes"/>
			<point x="396" y="397"/>
			<point x="409" y="405"/>
			<point x="410" y="421" type="curve"/>
			<point x="401" y="453"/>
			<point x="364" y="485"/>
			<point x="312" y="485" type="curve" smooth="yes"/>
			<point x="185" y="485"/>
			<point x="56" y="334"/>
			<point x="56" y="165" type="curve" smooth="yes"/>
			<point x="56" y="42"/>
			<point x="122" y="-13"/>
		</contour>
	</outline>
	<anchor name="aboveLC" x="314" y="492"/>
	<anchor name="belowLC" x="182" y="-20"/>
	<anchor name="baseLC" x="185" y="0"/>
</glyph>
<glyph name="d" format="1">
	<unicode hex="0064"/>
	<advance width="527"/>
	<outline>
		<contour>
			<point x="138" y="-13" type="curve" smooth="yes"/>
			<point x="215" y="-13"/>
			<point x="311" y="72"/>
			<point x="378" y="172" type="curve"/>
			<point x="372" y="186" type="line"/>
			<point x="284" y="84"/>
			<point x="222" y="30"/>
			<point x="161" y="30" type="curve" smooth="yes"/>
			<point x="121" y="30"/>
			<point x="95" y="59"/>
			<point x="95" y="129" type="curve" smooth="yes"/>
			<point x="95" y="211"/>
			<point x="129" y="296"/>
			<point x="180" y="357" type="curve" smooth="yes"/>
			<point x="224" y="409"/>
			<point x="281" y="444"/>
			<point x="340" y="444" type="curve" smooth="yes"/>
			<point x="365" y="444"/>
			<point x="393" y="434"/>
			<point x="420" y="407" type="curve"/>
			<point x="440" y="439" type="line"/>
			<point x="413" y="472"/>
			<point x="390" y="485"/>
			<point x="356" y="485" type="curve" smooth="yes"/>
			<point x="212" y="485"/>
			<point x="48" y="280"/>
			<point x="48" y="109" type="curve" smooth="yes"/>
			<point x="48" y="20"/>
			<point x="87" y="-13"/>
		</contour>
		<contour>
			<point x="389" y="114" type="curve" smooth="yes"/>
			<point x="514" y="736" type="line"/>
			<point x="503" y="745" type="line"/>
			<point x="351" y="716" type="line"/>
			<point x="348" y="696" type="line"/>
			<point x="472" y="691" type="line"/>
			<point x="464" y="705" type="line"/>
			<point x="414" y="454" type="line"/>
			<point x="409" y="434" type="line"/>
			<point x="343" y="103" type="line" smooth="yes"/>
			<point x="336" y="68"/>
			<point x="334" y="53"/>
			<point x="334" y="34" type="curve" smooth="yes"/>
			<point x="334" y="3"/>
			<point x="354" y="-13"/>
			<point x="381" y="-13" type="curve" smooth="yes"/>
			<point x="441" y="-13"/>
			<point x="492" y="40"/>
			<point x="533" y="99" type="curve"/>
			<point x="518" y="111" type="line"/>
			<point x="479" y="62"/>
			<point x="439" y="30"/>
			<point x="408" y="30" type="curve" smooth="yes"/>
			<point x="392" y="30"/>
			<point x="381" y="38"/>
			<point x="381" y="55" type="curve" smooth="yes"/>
			<point x="381" y="69"/>
			<point x="385" y="92"/>
		</contour>
		<contour>
			<point name="aboveLC" x="469" y="734" type="move"/>
		</contour>
		<contour>
			<point name="belowLC" x="263" y="-22" type="move"/>
		</contour>
	</outline>
</glyph>
<glyph name="e" format="2">
	<unicode hex="0065"/>
	<advance width="407"/>
	<outline>
		<contour>
			<point x="201" y="-13" type="curve" smooth="yes"/>
			<point x="273" y="-13"/>
			<point x="331" y="33"/>
			<point x="373" y="99" type="curve"/>
			<point x="357" y="111" type="line"/>
			<point x="322" y="64"/>
			<point x="276" y="30"/>
			<point x="216" y="30" type="curve" smooth="yes"/>
			<point x="144" y="30"/>
			<point x="99" y="76"/>
			<point x="99" y="180" type="curve" smooth="yes"/>
			<point x="99" y="316"/>
			<point x="209" y="456"/>
			<point x="302" y="456" type="curve" smooth="yes"/>
			<point x="340" y="456"/>
			<point x="366" y="436"/>
			<point x="366" y="397" type="curve" smooth="yes"/>
			<point x="366" y="321"/>
			<point x="272" y="243"/>
			<point x="80" y="193" type="curve"/>
			<point x="83" y="168" type="line"/>
			<point x="306" y="226"/>
			<point x="407" y="318"/>
			<point x="407" y="403" type="curve" smooth="yes"/>
			<point x="407" y="458"/>
			<point x="369" y="485"/>
			<point x="314" y="485" type="curve" smooth="yes"/>
			<point x="178" y="485"/>
			<point x="57" y="325"/>
			<point x="57" y="166" type="curve" smooth="yes"/>
			<point x="57" y="38"/>
			<point x="123" y="-13"/>
		</contour>
	</outline>
	<anchor name="aboveLC" x="314" y="492"/>
	<anchor name="belowLC" x="200" y="-20"/>
	<anchor name="ogonek" x="250" y="0"/>
</glyph>
<glyph name="f" format="1">
	<unicode hex="0066"/>
	<advance width="298"/>
	<outline>
		<contour>
			<point x="382" y="755" type="curve" smooth="yes"/>
			<point x="350" y="755"/>
			<point x="325" y="746"/>
			<point x="299" y="728" type="curve" smooth="yes"/>
			<point x="236" y="690"/>
			<point x="198" y="624"/>
			<point x="177" y="495" type="curve" smooth="yes"/>
			<point x="153" y="339"/>
			<point x="132" y="192"/>
			<point x="106" y="39" type="curve" smooth="yes"/>
			<point x="87" y="-75"/>
			<point x="71" y="-131"/>
			<point x="36" y="-175" type="curve" smooth="yes"/>
			<point x="8" y="-211"/>
			<point x="-17" y="-226"/>
			<point x="-55" y="-231" type="curve"/>
			<point x="-26" y="-232" type="line"/>
			<point x="-61" y="-198" type="line" smooth="yes"/>
			<point x="-76" y="-183"/>
			<point x="-90" y="-172"/>
			<point x="-108" y="-172" type="curve" smooth="yes"/>
			<point x="-123" y="-172"/>
			<point x="-136" y="-182"/>
			<point x="-137" y="-199" type="curve"/>
			<point x="-128" y="-229"/>
			<point x="-93" y="-253"/>
			<point x="-54" y="-253" type="curve" smooth="yes"/>
			<point x="-16" y="-253"/>
			<point x="15" y="-240"/>
			<point x="54" y="-201" type="curve" smooth="yes"/>
			<point x="109" y="-148"/>
			<point x="126" y="-75"/>
			<point x="147" y="39" type="curve" smooth="yes"/>
			<point x="174" y="190"/>
			<point x="196" y="346"/>
			<point x="221" y="495" type="curve" smooth="yes"/>
			<point x="245" y="635"/>
			<point x="277" y="683"/>
			<point x="325" y="713" type="curve" smooth="yes"/>
			<point x="350" y="729"/>
			<point x="370" y="735"/>
			<point x="402" y="736" type="curve"/>
			<point x="370" y="740" type="line"/>
			<point x="408" y="700" type="line" smooth="yes"/>
			<point x="429" y="675"/>
			<point x="438" y="667"/>
			<point x="456" y="667" type="curve" smooth="yes"/>
			<point x="469" y="667"/>
			<point x="481" y="676"/>
			<point x="483" y="691" type="curve"/>
			<point x="476" y="722"/>
			<point x="437" y="755"/>
		</contour>
		<contour>
			<point x="55" y="443" type="line"/>
			<point x="192" y="444" type="line"/>
			<point x="352" y="439" type="line"/>
			<point x="358" y="475" type="line"/>
			<point x="195" y="475" type="line"/>
			<point x="195" y="478" type="line"/>
			<point x="60" y="467" type="line"/>
		</contour>
		<contour>
			<point name="aboveLC" x="365" y="744" type="move"/>
		</contour>
		<contour>
			<point name="belowLC" x="-39" y="-252" type="move"/>
		</contour>
	</outline>
</glyph>
<glyph name="g" format="2">
	<unicode hex="0067"/>
	<advance width="474"/>
	<outline>
		<contour>
			<point x="51" y="85" type="curve" smooth="yes"/>
			<point x="51" y="57"/>
			<point x="67" y="21"/>
			<point x="132" y="12" type="curve" smooth="yes"/>
			<point x="139" y="11" type="line"/>
			<point x="240" y="-2" type="line" smooth="yes"/>
			<point x="339" y="-14"/>
			<point x="360" y="-43"/>
			<point x="360" y="-86" type="curve" smooth="yes"/>
			<point x="360" y="-161"/>
			<point x="274" y="-212"/>
			<point x="162" y="-212" type="curve" smooth="yes"/>
			<point x="72" y="-212"/>
			<point x="22" y="-175"/>
			<point x="22" y="-116" type="curve" smooth="yes"/>
			<point x="22" y="-57"/>
			<point x="63" y="-19"/>
			<point x="139" y="21" type="curve"/>
			<point x="126" y="30" type="line"/>
			<point x="47" y="2"/>
			<point x="-26" y="-58"/>
			<point x="-26" y="-132" type="curve" smooth="yes"/>
			<point x="-26" y="-207"/>
			<point x="41" y="-243"/>
			<point x="141" y="-243" type="curve" smooth="yes"/>
			<point x="297" y="-243"/>
			<point x="403" y="-156"/>
			<point x="403" y="-66" type="curve" smooth="yes"/>
			<point x="403" y="-13"/>
			<point x="370" y="24"/>
			<point x="267" y="38" type="curve" smooth="yes"/>
			<point x="149" y="54" type="line" smooth="yes"/>
			<point x="107" y="60"/>
			<point x="93" y="80"/>
			<point x="93" y="104" type="curve" smooth="yes"/>
			<point x="93" y="124"/>
			<point x="100" y="148"/>
			<point x="147" y="186" type="curve"/>
			<point x="137" y="201" type="line"/>
			<point x="137" y="196" type="line"/>
			<point x="81" y="161"/>
			<point x="51" y="124"/>
		</contour>
		<contour>
			<point x="220" y="175" type="curve" smooth="yes"/>
			<point x="157" y="175"/>
			<point x="126" y="214"/>
			<point x="126" y="288" type="curve" smooth="yes"/>
			<point x="126" y="380"/>
			<point x="179" y="459"/>
			<point x="259" y="460" type="curve" smooth="yes"/>
			<point x="321" y="460"/>
			<point x="352" y="415"/>
			<point x="352" y="345" type="curve" smooth="yes"/>
			<point x="352" y="249"/>
			<point x="296" y="176"/>
		</contour>
		<contour>
			<point x="80" y="282" type="curve" smooth="yes"/>
			<point x="80" y="198"/>
			<point x="132" y="150"/>
			<point x="214" y="150" type="curve" smooth="yes"/>
			<point x="300" y="150"/>
			<point x="373" y="210"/>
			<point x="395" y="343" type="curve" smooth="yes"/>
			<point x="402" y="386"/>
			<point x="410" y="411"/>
			<point x="423" y="437" type="curve"/>
			<point x="402" y="413" type="line"/>
			<point x="467" y="434"/>
			<point x="499" y="447"/>
			<point x="499" y="476" type="curve" smooth="yes"/>
			<point x="499" y="482"/>
			<point x="497" y="486"/>
			<point x="494" y="490" type="curve"/>
			<point x="487" y="493"/>
			<point x="480" y="495"/>
			<point x="470" y="495" type="curve" smooth="yes"/>
			<point x="435" y="495"/>
			<point x="394" y="463"/>
			<point x="380" y="372" type="curve"/>
			<point x="385" y="373" type="line"/>
			<point x="379" y="444"/>
			<point x="332" y="485"/>
			<point x="267" y="485" type="curve" smooth="yes"/>
			<point x="162" y="485"/>
			<point x="80" y="395"/>
		</contour>
	</outline>
	<anchor name="aboveLC" x="282" y="492"/>
	<anchor name="belowLC" x="147" y="-263"/>
</glyph>
<glyph name="h" format="1">
	<unicode hex="0068"/>
	<advance width="544"/>
	<outline>
		<contour>
			<point x="83" y="-6" type="line"/>
			<point x="122" y="0" type="line"/>
			<point x="134" y="69"/>
			<point x="148" y="139"/>
			<point x="162" y="208" type="curve" smooth="yes"/>
			<point x="191" y="349" type="line"/>
			<point x="193" y="360" type="line"/>
			<point x="270" y="736" type="line"/>
			<point x="260" y="745" type="line"/>
			<point x="106" y="716" type="line"/>
			<point x="103" y="696" type="line"/>
			<point x="227" y="691" type="line"/>
			<point x="216" y="708" type="line"/>
			<point x="204" y="639"/>
			<point x="191" y="570"/>
			<point x="177" y="501" type="curve" smooth="yes"/>
			<point x="76" y="0" type="line"/>
		</contour>
		<contour>
			<point x="391" y="-13" type="curve" smooth="yes"/>
			<point x="451" y="-13"/>
			<point x="504" y="39"/>
			<point x="545" y="99" type="curve"/>
			<point x="529" y="111" type="line"/>
			<point x="489" y="62"/>
			<point x="450" y="30"/>
			<point x="419" y="30" type="curve" smooth="yes"/>
			<point x="403" y="30"/>
			<point x="394" y="37"/>
			<point x="394" y="53" type="curve" smooth="yes"/>
			<point x="394" y="68"/>
			<point x="400" y="91"/>
			<point x="406" y="114" type="curve" smooth="yes"/>
			<point x="455" y="321" type="line" smooth="yes"/>
			<point x="463" y="358"/>
			<point x="472" y="387"/>
			<point x="472" y="419" type="curve" smooth="yes"/>
			<point x="472" y="460"/>
			<point x="450" y="485"/>
			<point x="407" y="485" type="curve" smooth="yes"/>
			<point x="348" y="485"/>
			<point x="251" y="429"/>
			<point x="177" y="350" type="curve"/>
			<point x="174" y="324" type="line"/>
			<point x="272" y="410"/>
			<point x="335" y="443"/>
			<point x="383" y="443" type="curve" smooth="yes"/>
			<point x="409" y="443"/>
			<point x="423" y="431"/>
			<point x="423" y="398" type="curve" smooth="yes"/>
			<point x="423" y="374"/>
			<point x="415" y="342"/>
			<point x="408" y="309" type="curve" smooth="yes"/>
			<point x="359" y="103" type="line" smooth="yes"/>
			<point x="351" y="68"/>
			<point x="346" y="53"/>
			<point x="346" y="28" type="curve" smooth="yes"/>
			<point x="346" y="4"/>
			<point x="364" y="-13"/>
		</contour>
		<contour>
			<point name="aboveLC" x="222" y="734" type="move"/>
		</contour>
		<contour>
			<point name="belowLC" x="238" y="-18" type="move"/>
		</contour>
	</outline>
</glyph>
<glyph name="i" format="1">
	<unicode hex="0069"/>
	<advance width="291"/>
	<outline>
		<contour>
			<point x="94" y="32" type="curve" smooth="yes"/>
			<point x="94" y="4"/>
			<point x="115" y="-13"/>
			<point x="140" y="-13" type="curve" smooth="yes"/>
			<point x="202" y="-13"/>
			<point x="249" y="39"/>
			<point x="292" y="99" type="curve"/>
			<point x="276" y="111" type="line"/>
			<point x="235" y="60"/>
			<point x="197" y="30"/>
			<point x="167" y="30" type="curve" smooth="yes"/>
			<point x="152" y="30"/>
			<point x="141" y="38"/>
			<point x="141" y="54" type="curve" smooth="yes"/>
			<point x="141" y="69"/>
			<point x="147" y="92"/>
			<point x="152" y="114" type="curve" smooth="yes"/>
			<point x="229" y="475" type="line"/>
			<point x="216" y="485" type="line"/>
			<point x="64" y="455" type="line"/>
			<point x="61" y="435" type="line"/>
			<point x="186" y="431" type="line"/>
			<point x="177" y="441" type="line"/>
			<point x="105" y="103" type="line" smooth="yes"/>
			<point x="97" y="68"/>
			<point x="94" y="53"/>
		</contour>
		<contour>
			<point x="240" y="649" type="curve" smooth="yes"/>
			<point x="261" y="649"/>
			<point x="283" y="669"/>
			<point x="283" y="695" type="curve" smooth="yes"/>
			<point x="283" y="720"/>
			<point x="266" y="735"/>
			<point x="244" y="735" type="curve" smooth="yes"/>
			<point x="223" y="735"/>
			<point x="201" y="716"/>
			<point x="201" y="689" type="curve" smooth="yes"/>
			<point x="201" y="663"/>
			<point x="218" y="649"/>
		</contour>
		<contour>
			<point name="aboveLC" x="235" y="707" type="move"/>
		</contour>
		<contour>
			<point name="ogonek" x="186" y="0" type="move"/>
		</contour>
		<contour>
			<point name="belowLC" x="143" y="-22" type="move"/>
		</contour>
	</outline>
</glyph>
<glyph name="j" format="2">
	<unicode hex="006A"/>
	<advance width="251"/>
	<outline>
		<contour>
			<point x="-75" y="-255" type="line"/>
			<point x="-41" y="-249"/>
			<point x="-9" y="-235"/>
			<point x="23" y="-207" type="curve" smooth="yes"/>
			<point x="86" y="-151"/>
			<point x="115" y="-80"/>
			<point x="136" y="25" type="curve" smooth="yes"/>
			<point x="223" y="475" type="line"/>
			<point x="210" y="485" type="line"/>
			<point x="59" y="455" type="line"/>
			<point x="56" y="436" type="line"/>
			<point x="187" y="432" type="line"/>
			<point x="175" y="448" type="line"/>
			<point x="96" y="40" type="line" smooth="yes"/>
			<point x="74" y="-77"/>
			<point x="49" y="-131"/>
			<point x="12" y="-175" type="curve" smooth="yes"/>
			<point x="-15" y="-208"/>
			<point x="-44" y="-223"/>
			<point x="-80" y="-235" type="curve"/>
		</contour>
		<contour>
			<point x="232" y="644" type="curve" smooth="yes"/>
			<point x="253" y="644"/>
			<point x="274" y="663"/>
			<point x="274" y="690" type="curve" smooth="yes"/>
			<point x="274" y="713"/>
			<point x="258" y="728"/>
			<point x="236" y="728" type="curve" smooth="yes"/>
			<point x="216" y="728"/>
			<point x="195" y="709"/>
			<point x="195" y="682" type="curve" smooth="yes"/>
			<point x="195" y="658"/>
			<point x="211" y="644"/>
		</contour>
	</outline>
	<anchor name="aboveLC" x="237" y="728"/>
	<anchor name="belowLC" x="-20" y="-263"/>
</glyph>
<glyph name="k" format="1">
	<unicode hex="006B"/>
	<advance width="481"/>
	<outline>
		<contour>
			<point x="73" y="0" type="line"/>
			<point x="81" y="-6" type="line"/>
			<point x="119" y="0" type="line"/>
			<point x="132" y="69"/>
			<point x="145" y="139"/>
			<point x="159" y="208" type="curve" smooth="yes"/>
			<point x="265" y="736" type="line"/>
			<point x="257" y="745" type="line"/>
			<point x="103" y="716" type="line"/>
			<point x="100" y="696" type="line"/>
			<point x="224" y="691" type="line"/>
			<point x="213" y="708" type="line"/>
			<point x="202" y="639"/>
			<point x="189" y="570"/>
			<point x="175" y="501" type="curve" smooth="yes"/>
		</contour>
		<contour>
			<point x="477" y="1" type="curve"/>
			<point x="480" y="21" type="line"/>
			<point x="428" y="23" type="line" smooth="yes"/>
			<point x="396" y="25"/>
			<point x="375" y="34"/>
			<point x="357" y="70" type="curve" smooth="yes"/>
			<point x="316" y="155" type="line" smooth="yes"/>
			<point x="287" y="214"/>
			<point x="260" y="243"/>
			<point x="203" y="257" type="curve" smooth="yes"/>
			<point x="175" y="263" type="line"/>
			<point x="173" y="255" type="line"/>
			<point x="453" y="424" type="line" smooth="yes"/>
			<point x="475" y="437"/>
			<point x="482" y="445"/>
			<point x="482" y="457" type="curve" smooth="yes"/>
			<point x="482" y="469"/>
			<point x="472" y="481"/>
			<point x="458" y="482" type="curve"/>
			<point x="157" y="262" type="line"/>
			<point x="160" y="247" type="line"/>
			<point x="183" y="241" type="line" smooth="yes"/>
			<point x="229" y="228"/>
			<point x="246" y="208"/>
			<point x="273" y="151" type="curve" smooth="yes"/>
			<point x="315" y="59" type="line" smooth="yes"/>
			<point x="338" y="7"/>
			<point x="369" y="-9"/>
			<point x="413" y="-9" type="curve" smooth="yes"/>
			<point x="431" y="-9"/>
			<point x="451" y="-7"/>
		</contour>
		<contour>
			<point name="aboveLC" x="235" y="734" type="move"/>
		</contour>
		<contour>
			<point name="belowLC" x="237" y="-22" type="move"/>
		</contour>
	</outline>
</glyph>
<glyph name="l" format="1">
	<unicode hex="006C"/>
	<advance width="278"/>
	<outline>
		<contour>
			<point x="133" y="-13" type="curve" smooth="yes"/>
			<point x="194" y="-13"/>
			<point x="241" y="39"/>
			<point x="283" y="99" type="curve"/>
			<point x="268" y="111" type="line"/>
			<point x="227" y="61"/>
			<point x="189" y="30"/>
			<point x="160" y="30" type="curve" smooth="yes"/>
			<point x="143" y="30"/>
			<point x="133" y="38"/>
			<point x="133" y="56" type="curve" smooth="yes"/>
			<point x="133" y="69"/>
			<point x="136" y="92"/>
			<point x="141" y="114" type="curve" smooth="yes"/>
			<point x="267" y="736" type="line"/>
			<point x="256" y="745" type="line"/>
			<point x="103" y="716" type="line"/>
			<point x="100" y="696" type="line"/>
			<point x="224" y="691" type="line"/>
			<point x="212" y="708" type="line"/>
			<point x="202" y="639"/>
			<point x="189" y="570"/>
			<point x="175" y="501" type="curve" smooth="yes"/>
			<point x="95" y="103" type="line" smooth="yes"/>
			<point x="89" y="71"/>
			<point x="86" y="56"/>
			<point x="86" y="37" type="curve" smooth="yes"/>
			<point x="86" y="5"/>
			<point x="106" y="-13"/>
		</contour>
		<contour>
			<point name="aboveLC" x="232" y="734" type="move"/>
		</contour>
		<contour>
			<point name="belowLC" x="130" y="-22" type="move"/>
		</contour>
	</outline>
</glyph>
<glyph name="m" format="2">
	<unicode hex="006D"/>
	<advance width="810"/>
	<outline>
		<contour>
			<point x="649" y="-13" type="curve" smooth="yes"/>
			<point x="711" y="-13"/>
			<point x="760" y="39"/>
			<point x="803" y="99" type="curve"/>
			<point x="787" y="111" type="line"/>
			<point x="746" y="60"/>
			<point x="708" y="30"/>
			<point x="677" y="30" type="curve" smooth="yes"/>
			<point x="662" y="30"/>
			<point x="652" y="37"/>
			<point x="652" y="53" type="curve" smooth="yes"/>
			<point x="652" y="68"/>
			<point x="659" y="91"/>
			<point x="664" y="114" type="curve" smooth="yes"/>
			<point x="713" y="321" type="line" smooth="yes"/>
			<point x="721" y="358"/>
			<point x="730" y="387"/>
			<point x="730" y="419" type="curve" smooth="yes"/>
			<point x="730" y="460"/>
			<point x="709" y="485"/>
			<point x="666" y="485" type="curve" smooth="yes"/>
			<point x="608" y="485"/>
			<point x="524" y="431"/>
			<point x="450" y="353" type="curve"/>
			<point x="447" y="353" type="line"/>
			<point x="447" y="327" type="line"/>
			<point x="543" y="412"/>
			<point x="595" y="443"/>
			<point x="642" y="443" type="curve" smooth="yes"/>
			<point x="668" y="443"/>
			<point x="682" y="431"/>
			<point x="682" y="398" type="curve" smooth="yes"/>
			<point x="682" y="374"/>
			<point x="673" y="342"/>
			<point x="666" y="309" type="curve" smooth="yes"/>
			<point x="617" y="103" type="line" smooth="yes"/>
			<point x="609" y="68"/>
			<point x="604" y="53"/>
			<point x="604" y="28" type="curve" smooth="yes"/>
			<point x="604" y="4"/>
			<point x="622" y="-13"/>
		</contour>
		<contour>
			<point x="125" y="0" type="line"/>
			<point x="138" y="70"/>
			<point x="151" y="139"/>
			<point x="166" y="208" type="curve" smooth="yes"/>
			<point x="198" y="351" type="line"/>
			<point x="198" y="353" type="line"/>
			<point x="222" y="475" type="line"/>
			<point x="209" y="485" type="line"/>
			<point x="59" y="455" type="line"/>
			<point x="55" y="435" type="line"/>
			<point x="181" y="431" type="line"/>
			<point x="171" y="441" type="line"/>
			<point x="78" y="0" type="line"/>
			<point x="86" y="-6" type="line"/>
		</contour>
		<contour>
			<point x="389" y="0" type="line"/>
			<point x="403" y="70"/>
			<point x="416" y="139"/>
			<point x="431" y="208" type="curve" smooth="yes"/>
			<point x="461" y="342" type="line"/>
			<point x="463" y="353" type="line" smooth="yes"/>
			<point x="467" y="373"/>
			<point x="473" y="396"/>
			<point x="473" y="420" type="curve" smooth="yes"/>
			<point x="473" y="460"/>
			<point x="452" y="485"/>
			<point x="409" y="485" type="curve" smooth="yes"/>
			<point x="349" y="485"/>
			<point x="258" y="429"/>
			<point x="184" y="350" type="curve"/>
			<point x="181" y="350" type="line"/>
			<point x="181" y="324" type="line"/>
			<point x="278" y="410"/>
			<point x="337" y="443"/>
			<point x="385" y="443" type="curve" smooth="yes"/>
			<point x="410" y="443"/>
			<point x="424" y="431"/>
			<point x="424" y="399" type="curve" smooth="yes"/>
			<point x="424" y="377"/>
			<point x="417" y="348"/>
			<point x="412" y="325" type="curve" smooth="yes"/>
			<point x="343" y="0" type="line"/>
			<point x="350" y="-6" type="line"/>
		</contour>
	</outline>
	<anchor name="aboveLC" x="449" y="492"/>
	<anchor name="belowLC" x="366" y="-20"/>
</glyph>
<glyph name="n" format="1">
	<unicode hex="006E"/>
	<advance width="556"/>
	<outline>
		<contour>
			<point x="358" y="28" type="curve" smooth="yes"/>
			<point x="358" y="4"/>
			<point x="376" y="-13"/>
			<point x="403" y="-13" type="curve" smooth="yes"/>
			<point x="463" y="-13"/>
			<point x="516" y="39"/>
			<point x="557" y="99" type="curve"/>
			<point x="541" y="111" type="line"/>
			<point x="501" y="62"/>
			<point x="462" y="30"/>
			<point x="431" y="30" type="curve" smooth="yes"/>
			<point x="415" y="30"/>
			<point x="406" y="37"/>
			<point x="406" y="53" type="curve" smooth="yes"/>
			<point x="406" y="68"/>
			<point x="413" y="91"/>
			<point x="418" y="114" type="curve" smooth="yes"/>
			<point x="467" y="321" type="line" smooth="yes"/>
			<point x="476" y="358"/>
			<point x="484" y="387"/>
			<point x="484" y="419" type="curve" smooth="yes"/>
			<point x="484" y="460"/>
			<point x="463" y="485"/>
			<point x="419" y="485" type="curve" smooth="yes"/>
			<point x="360" y="485"/>
			<point x="264" y="429"/>
			<point x="189" y="350" type="curve"/>
			<point x="186" y="324" type="line"/>
			<point x="284" y="410"/>
			<point x="347" y="443"/>
			<point x="395" y="443" type="curve" smooth="yes"/>
			<point x="421" y="443"/>
			<point x="435" y="431"/>
			<point x="435" y="398" type="curve" smooth="yes"/>
			<point x="435" y="374"/>
			<point x="427" y="342"/>
			<point x="420" y="309" type="curve" smooth="yes"/>
			<point x="371" y="103" type="line" smooth="yes"/>
			<point x="363" y="68"/>
			<point x="358" y="53"/>
		</contour>
		<contour>
			<point x="130" y="0" type="line"/>
			<point x="144" y="70"/>
			<point x="156" y="139"/>
			<point x="172" y="208" type="curve" smooth="yes"/>
			<point x="203" y="351" type="line"/>
			<point x="228" y="475" type="line"/>
			<point x="215" y="485" type="line"/>
			<point x="64" y="455" type="line"/>
			<point x="61" y="435" type="line"/>
			<point x="186" y="431" type="line"/>
			<point x="177" y="441" type="line"/>
			<point x="84" y="0" type="line"/>
			<point x="91" y="-6" type="line"/>
		</contour>
		<contour>
			<point name="aboveLC" x="324" y="502" type="move"/>
		</contour>
		<contour>
			<point name="belowLC" x="248" y="-18" type="move"/>
		</contour>
	</outline>
</glyph>
<glyph name="o" format="2">
	<unicode hex="006F"/>
	<advance width="485"/>
	<outline>
		<contour>
			<point x="210" y="-13" type="curve" smooth="yes"/>
			<point x="346" y="-13"/>
			<point x="455" y="139"/>
			<point x="455" y="308" type="curve" smooth="yes"/>
			<point x="455" y="430"/>
			<point x="386" y="485"/>
			<point x="301" y="485" type="curve" smooth="yes"/>
			<point x="162" y="485"/>
			<point x="54" y="325"/>
			<point x="54" y="162" type="curve" smooth="yes"/>
			<point x="54" y="39"/>
			<point x="133" y="-13"/>
		</contour>
		<contour>
			<point x="217" y="15" type="curve" smooth="yes"/>
			<point x="153" y="15"/>
			<point x="104" y="62"/>
			<point x="104" y="170" type="curve" smooth="yes"/>
			<point x="104" y="309"/>
			<point x="183" y="456"/>
			<point x="296" y="456" type="curve" smooth="yes"/>
			<point x="361" y="456"/>
			<point x="406" y="410"/>
			<point x="406" y="297" type="curve" smooth="yes"/>
			<point x="406" y="164"/>
			<point x="327" y="15"/>
		</contour>
	</outline>
	<anchor name="aboveLC" x="299" y="492"/>
	<anchor name="belowLC" x="198" y="-20"/>
	<anchor name="hornLC" x="396" y="408"/>
	<anchor name="ogonek" x="276" y="1"/>
</glyph>
<glyph name="p" format="2">
	<unicode hex="0070"/>
	<advance width="521"/>
	<outline>
		<contour>
			<point x="194" y="-13" type="curve" smooth="yes"/>
			<point x="341" y="-13"/>
			<point x="500" y="191"/>
			<point x="500" y="364" type="curve" smooth="yes"/>
			<point x="500" y="453"/>
			<point x="461" y="485"/>
			<point x="409" y="485" type="curve" smooth="yes"/>
			<point x="333" y="485"/>
			<point x="224" y="404"/>
			<point x="161" y="295" type="curve"/>
			<point x="157" y="295" type="line"/>
			<point x="168" y="290" type="line"/>
			<point x="251" y="383"/>
			<point x="326" y="443"/>
			<point x="388" y="443" type="curve" smooth="yes"/>
			<point x="428" y="443"/>
			<point x="453" y="412"/>
			<point x="453" y="343" type="curve" smooth="yes"/>
			<point x="453" y="266"/>
			<point x="423" y="184"/>
			<point x="375" y="122" type="curve" smooth="yes"/>
			<point x="332" y="66"/>
			<point x="275" y="29"/>
			<point x="215" y="29" type="curve" smooth="yes"/>
			<point x="183" y="29"/>
			<point x="150" y="39"/>
			<point x="119" y="69" type="curve"/>
			<point x="98" y="32" type="line"/>
			<point x="126" y="-1"/>
			<point x="159" y="-13"/>
		</contour>
		<contour>
			<point x="26" y="-243" type="line"/>
			<point x="73" y="-243" type="line"/>
			<point x="85" y="-174"/>
			<point x="98" y="-107"/>
			<point x="125" y="19" type="curve"/>
			<point x="128" y="31" type="line"/>
			<point x="191" y="324" type="line"/>
			<point x="192" y="327" type="line"/>
			<point x="224" y="475" type="line"/>
			<point x="211" y="485" type="line"/>
			<point x="59" y="455" type="line"/>
			<point x="55" y="435" type="line"/>
			<point x="180" y="431" type="line"/>
			<point x="171" y="441" type="line"/>
		</contour>
		<contour>
			<point x="-61" y="-243" type="line"/>
			<point x="174" y="-243" type="line"/>
			<point x="179" y="-217" type="line"/>
			<point x="64" y="-206" type="line"/>
			<point x="51" y="-206" type="line"/>
			<point x="-56" y="-217" type="line"/>
		</contour>
	</outline>
	<anchor name="aboveLC" x="317" y="492"/>
	<anchor name="belowLC" x="48" y="-263"/>
</glyph>
<glyph name="q" format="1">
	<unicode hex="0071"/>
	<advance width="484"/>
	<outline>
		<contour>
			<point x="138" y="-13" type="curve" smooth="yes"/>
			<point x="215" y="-13"/>
			<point x="316" y="72"/>
			<point x="384" y="172" type="curve"/>
			<point x="378" y="186" type="line"/>
			<point x="290" y="84"/>
			<point x="222" y="30"/>
			<point x="160" y="30" type="curve" smooth="yes"/>
			<point x="118" y="30"/>
			<point x="95" y="62"/>
			<point x="95" y="127" type="curve" smooth="yes"/>
			<point x="95" y="217"/>
			<point x="137" y="312"/>
			<point x="198" y="375" type="curve" smooth="yes"/>
			<point x="240" y="417"/>
			<point x="291" y="444"/>
			<point x="343" y="444" type="curve" smooth="yes"/>
			<point x="368" y="444"/>
			<point x="396" y="435"/>
			<point x="426" y="409" type="curve"/>
			<point x="446" y="439" type="line"/>
			<point x="419" y="472"/>
			<point x="395" y="485"/>
			<point x="360" y="485" type="curve" smooth="yes"/>
			<point x="214" y="485"/>
			<point x="48" y="280"/>
			<point x="48" y="109" type="curve" smooth="yes"/>
			<point x="48" y="20"/>
			<point x="86" y="-13"/>
		</contour>
		<contour>
			<point x="173" y="-243" type="line"/>
			<point x="408" y="-243" type="line"/>
			<point x="413" y="-218" type="line"/>
			<point x="304" y="-207" type="line"/>
			<point x="291" y="-207" type="line"/>
			<point x="178" y="-218" type="line"/>
		</contour>
		<contour>
			<point x="464" y="477" type="line"/>
			<point x="452" y="485" type="line"/>
			<point x="412" y="441" type="line"/>
			<point x="349" y="144" type="line"/>
			<point x="347" y="135" type="line"/>
			<point x="268" y="-243" type="line"/>
			<point x="314" y="-243" type="line"/>
			<point x="326" y="-175"/>
			<point x="340" y="-107"/>
			<point x="354" y="-39" type="curve" smooth="yes"/>
		</contour>
		<contour>
			<point name="aboveLC" x="356" y="502" type="move"/>
		</contour>
		<contour>
			<point name="belowLC" x="289" y="-249" type="move"/>
		</contour>
	</outline>
</glyph>
<glyph name="r" format="2">
	<unicode hex="0072"/>
	<advance width="387"/>
	<outline>
		<contour>
			<point x="178" y="270" type="line"/>
			<point x="230" y="365"/>
			<point x="284" y="435"/>
			<point x="342" y="462" type="curve"/>
			<point x="342" y="467" type="line"/>
			<point x="300" y="458" type="line"/>
			<point x="314" y="448" type="line" smooth="yes"/>
			<point x="335" y="432"/>
			<point x="356" y="422"/>
			<point x="377" y="422" type="curve" smooth="yes"/>
			<point x="400" y="422"/>
			<point x="412" y="437"/>
			<point x="413" y="460" type="curve"/>
			<point x="403" y="477"/>
			<point x="382" y="485"/>
			<point x="351" y="485" type="curve" smooth="yes"/>
			<point x="285" y="485"/>
			<point x="221" y="390"/>
			<point x="177" y="300" type="curve"/>
			<point x="168" y="300" type="line"/>
		</contour>
		<contour>
			<point x="78" y="0" type="line"/>
			<point x="86" y="-6" type="line"/>
			<point x="125" y="0" type="line"/>
			<point x="138" y="70"/>
			<point x="151" y="139"/>
			<point x="166" y="208" type="curve" smooth="yes"/>
			<point x="187" y="301" type="line"/>
			<point x="189" y="312" type="line"/>
			<point x="219" y="475" type="line"/>
			<point x="206" y="485" type="line"/>
			<point x="59" y="455" type="line"/>
			<point x="55" y="435" type="line"/>
			<point x="181" y="431" type="line"/>
			<point x="171" y="441" type="line"/>
		</contour>
	</outline>
	<anchor name="aboveLC" x="263" y="492"/>
	<anchor name="belowLC" x="101" y="-20"/>
</glyph>
<glyph name="s" format="1">
	<unicode hex="0073"/>
	<advance width="360"/>
	<outline>
		<contour>
			<point x="119" y="3" type="line"/>
			<point x="98" y="72" type="line" smooth="yes"/>
			<point x="93" y="90"/>
			<point x="84" y="99"/>
			<point x="66" y="99" type="curve" smooth="yes"/>
			<point x="54" y="99"/>
			<point x="43" y="89"/>
			<point x="40" y="76" type="curve"/>
			<point x="54" y="14"/>
			<point x="91" y="-13"/>
			<point x="165" y="-13" type="curve" smooth="yes"/>
			<point x="255" y="-13"/>
			<point x="322" y="38"/>
			<point x="322" y="125" type="curve" smooth="yes"/>
			<point x="322" y="173"/>
			<point x="300" y="205"/>
			<point x="233" y="254" type="curve" smooth="yes"/>
			<point x="179" y="295"/>
			<point x="156" y="314"/>
			<point x="156" y="364" type="curve" smooth="yes"/>
			<point x="156" y="416"/>
			<point x="193" y="459"/>
			<point x="268" y="459" type="curve" smooth="yes"/>
			<point x="288" y="459"/>
			<point x="306" y="454"/>
			<point x="321" y="446" type="curve"/>
			<point x="292" y="473" type="line"/>
			<point x="316" y="416" type="line" smooth="yes"/>
			<point x="324" y="395"/>
			<point x="336" y="386"/>
			<point x="351" y="386" type="curve" smooth="yes"/>
			<point x="364" y="386"/>
			<point x="375" y="394"/>
			<point x="378" y="407" type="curve"/>
			<point x="365" y="456"/>
			<point x="322" y="485"/>
			<point x="259" y="485" type="curve" smooth="yes"/>
			<point x="174" y="485"/>
			<point x="114" y="430"/>
			<point x="114" y="349" type="curve" smooth="yes"/>
			<point x="114" y="295"/>
			<point x="149" y="259"/>
			<point x="205" y="220" type="curve" smooth="yes"/>
			<point x="262" y="180"/>
			<point x="280" y="150"/>
			<point x="280" y="112" type="curve" smooth="yes"/>
			<point x="280" y="55"/>
			<point x="234" y="13"/>
			<point x="159" y="13" type="curve" smooth="yes"/>
			<point x="132" y="13"/>
			<point x="115" y="17"/>
			<point x="92" y="30" type="curve"/>
		</contour>
		<contour>
			<point name="aboveLC" x="251" y="502" type="move"/>
		</contour>
		<contour>
			<point name="baseLC" x="138" y="0" type="move"/>
		</contour>
		<contour>
			<point name="belowLC" x="134" y="-22" type="move"/>
		</contour>
	</outline>
</glyph>
<glyph name="t" format="2">
	<unicode hex="0074"/>
	<advance width="324"/>
	<outline>
		<contour>
			<point x="98" y="103" type="line" smooth="yes"/>
			<point x="91" y="68"/>
			<point x="88" y="53"/>
			<point x="88" y="32" type="curve" smooth="yes"/>
			<point x="88" y="4"/>
			<point x="109" y="-13"/>
			<point x="135" y="-13" type="curve" smooth="yes"/>
			<point x="195" y="-13"/>
			<point x="246" y="39"/>
			<point x="288" y="99" type="curve"/>
			<point x="272" y="111" type="line"/>
			<point x="230" y="60"/>
			<point x="193" y="30"/>
			<point x="162" y="30" type="curve" smooth="yes"/>
			<point x="146" y="30"/>
			<point x="135" y="38"/>
			<point x="135" y="55" type="curve" smooth="yes"/>
			<point x="135" y="69"/>
			<point x="140" y="92"/>
			<point x="145" y="114" type="curve" smooth="yes"/>
			<point x="250" y="609" type="line"/>
			<point x="217" y="609" type="line"/>
			<point x="171" y="447" type="line"/>
		</contour>
		<contour>
			<point x="55" y="442" type="line"/>
			<point x="195" y="442" type="line"/>
			<point x="352" y="438" type="line"/>
			<point x="358" y="475" type="line"/>
			<point x="197" y="475" type="line"/>
			<point x="197" y="476" type="line"/>
			<point x="61" y="467" type="line"/>
		</contour>
	</outline>
	<anchor name="aboveLC" x="226" y="583"/>
	<anchor name="belowLC" x="134" y="-20"/>
	<anchor name="baseLC" x="137" y="0"/>
</glyph>
<glyph name="u" format="2">
	<unicode hex="0075"/>
	<advance width="555"/>
	<outline>
		<contour>
			<point x="154" y="-13" type="curve" smooth="yes"/>
			<point x="226" y="-13"/>
			<point x="297" y="36"/>
			<point x="396" y="135" type="curve"/>
			<point x="401" y="135" type="line"/>
			<point x="395" y="155" type="line"/>
			<point x="290" y="60"/>
			<point x="226" y="31"/>
			<point x="180" y="31" type="curve" smooth="yes"/>
			<point x="151" y="31"/>
			<point x="138" y="47"/>
			<point x="138" y="75" type="curve" smooth="yes"/>
			<point x="138" y="102"/>
			<point x="149" y="160"/>
			<point x="158" y="201" type="curve" smooth="yes"/>
			<point x="220" y="475" type="line"/>
			<point x="207" y="485" type="line"/>
			<point x="62" y="456" type="line"/>
			<point x="59" y="435" type="line"/>
			<point x="172" y="432" type="line"/>
			<point x="168" y="445" type="line"/>
			<point x="111" y="186" type="line" smooth="yes"/>
			<point x="102" y="146"/>
			<point x="90" y="95"/>
			<point x="90" y="57" type="curve" smooth="yes"/>
			<point x="90" y="7"/>
			<point x="116" y="-13"/>
		</contour>
		<contour>
			<point x="400" y="-13" type="curve" smooth="yes"/>
			<point x="460" y="-13"/>
			<point x="507" y="39"/>
			<point x="551" y="99" type="curve"/>
			<point x="535" y="111" type="line"/>
			<point x="493" y="60"/>
			<point x="457" y="30"/>
			<point x="426" y="30" type="curve" smooth="yes"/>
			<point x="409" y="30"/>
			<point x="398" y="38"/>
			<point x="398" y="54" type="curve" smooth="yes"/>
			<point x="398" y="69"/>
			<point x="404" y="92"/>
			<point x="409" y="114" type="curve" smooth="yes"/>
			<point x="485" y="477" type="line"/>
			<point x="475" y="485" type="line"/>
			<point x="437" y="468" type="line"/>
			<point x="425" y="404"/>
			<point x="412" y="339"/>
			<point x="399" y="275" type="curve" smooth="yes"/>
			<point x="364" y="113" type="line"/>
			<point x="366" y="113" type="line"/>
			<point x="354" y="68"/>
			<point x="352" y="53"/>
			<point x="352" y="35" type="curve" smooth="yes"/>
			<point x="352" y="4"/>
			<point x="373" y="-13"/>
		</contour>
	</outline>
	<anchor name="aboveLC" x="328" y="492"/>
	<anchor name="belowLC" x="258" y="-20"/>
	<anchor name="hornLC" x="459" y="401"/>
	<anchor name="ogonek" x="421" y="0"/>
</glyph>
<glyph name="v" format="1">
	<unicode hex="0076"/>
	<advance width="465"/>
	<outline>
		<contour>
			<point x="186" y="-4" type="curve"/>
			<point x="192" y="-8" type="line"/>
			<point x="207" y="-6" type="line"/>
			<point x="312" y="108"/>
			<point x="389" y="219"/>
			<point x="434" y="308" type="curve" smooth="yes"/>
			<point x="475" y="387"/>
			<point x="478" y="424"/>
			<point x="478" y="447" type="curve" smooth="yes"/>
			<point x="478" y="463"/>
			<point x="477" y="469"/>
			<point x="473" y="476" type="curve"/>
			<point x="469" y="481"/>
			<point x="460" y="485"/>
			<point x="449" y="485" type="curve" smooth="yes"/>
			<point x="428" y="485"/>
			<point x="412" y="468"/>
			<point x="412" y="434" type="curve" smooth="yes"/>
			<point x="412" y="422"/>
			<point x="415" y="400"/>
			<point x="417" y="386" type="curve" smooth="yes"/>
			<point x="425" y="326" type="line"/>
			<point x="431" y="393" type="line"/>
			<point x="422" y="360"/>
			<point x="416" y="341"/>
			<point x="406" y="321" type="curve" smooth="yes"/>
			<point x="360" y="227"/>
			<point x="301" y="137"/>
			<point x="217" y="39" type="curve"/>
			<point x="226" y="39" type="line"/>
			<point x="226" y="180"/>
			<point x="223" y="297"/>
			<point x="209" y="401" type="curve" smooth="yes"/>
			<point x="201" y="462"/>
			<point x="183" y="485"/>
			<point x="147" y="485" type="curve" smooth="yes"/>
			<point x="104" y="485"/>
			<point x="68" y="453"/>
			<point x="34" y="376" type="curve"/>
			<point x="51" y="366" type="line"/>
			<point x="86" y="429"/>
			<point x="107" y="442"/>
			<point x="128" y="442" type="curve" smooth="yes"/>
			<point x="145" y="442"/>
			<point x="156" y="432"/>
			<point x="162" y="385" type="curve" smooth="yes"/>
			<point x="178" y="277"/>
			<point x="182" y="165"/>
		</contour>
		<contour>
			<point name="aboveLC" x="257" y="492" type="move"/>
		</contour>
		<contour>
			<point name="belowLC" x="140" y="-22" type="move"/>
		</contour>
	</outline>
</glyph>
<glyph name="w" format="1">
	<unicode hex="0077"/>
	<advance width="725"/>
	<outline>
		<contour>
			<point x="186" y="-4" type="curve"/>
			<point x="191" y="-8" type="line"/>
			<point x="208" y="-6" type="line"/>
			<point x="316" y="135"/>
			<point x="404" y="300"/>
			<point x="450" y="401" type="curve"/>
			<point x="430" y="384" type="line"/>
			<point x="435" y="294"/>
			<point x="444" y="120"/>
			<point x="449" y="-4" type="curve"/>
			<point x="454" y="-8" type="line"/>
			<point x="470" y="-6" type="line"/>
			<point x="570" y="102"/>
			<point x="644" y="205"/>
			<point x="694" y="308" type="curve" smooth="yes"/>
			<point x="734" y="387"/>
			<point x="738" y="423"/>
			<point x="738" y="446" type="curve" smooth="yes"/>
			<point x="738" y="462"/>
			<point x="737" y="469"/>
			<point x="733" y="476" type="curve"/>
			<point x="729" y="481"/>
			<point x="721" y="484"/>
			<point x="711" y="485" type="curve" smooth="yes"/>
			<point x="691" y="485"/>
			<point x="672" y="469"/>
			<point x="672" y="436" type="curve" smooth="yes"/>
			<point x="672" y="425"/>
			<point x="674" y="406"/>
			<point x="676" y="391" type="curve" smooth="yes"/>
			<point x="688" y="331" type="line"/>
			<point x="692" y="388" type="line"/>
			<point x="683" y="360"/>
			<point x="677" y="342"/>
			<point x="667" y="321" type="curve" smooth="yes"/>
			<point x="614" y="214"/>
			<point x="561" y="143"/>
			<point x="479" y="43" type="curve"/>
			<point x="489" y="40" type="line"/>
			<point x="487" y="138"/>
			<point x="477" y="347"/>
			<point x="471" y="472" type="curve"/>
			<point x="447" y="472" type="line"/>
			<point x="380" y="310"/>
			<point x="300" y="173"/>
			<point x="213" y="43" type="curve"/>
			<point x="226" y="40" type="line"/>
			<point x="226" y="180"/>
			<point x="222" y="304"/>
			<point x="208" y="406" type="curve" smooth="yes"/>
			<point x="200" y="464"/>
			<point x="182" y="485"/>
			<point x="146" y="485" type="curve" smooth="yes"/>
			<point x="103" y="485"/>
			<point x="68" y="453"/>
			<point x="34" y="376" type="curve"/>
			<point x="51" y="366" type="line"/>
			<point x="84" y="427"/>
			<point x="106" y="442"/>
			<point x="128" y="442" type="curve" smooth="yes"/>
			<point x="146" y="442"/>
			<point x="158" y="432"/>
			<point x="164" y="386" type="curve" smooth="yes"/>
			<point x="178" y="281"/>
			<point x="183" y="167"/>
		</contour>
		<contour>
			<point name="aboveLC" x="447" y="502" type="move"/>
		</contour>
		<contour>
			<point name="belowLC" x="328" y="-22" type="move"/>
		</contour>
	</outline>
</glyph>
<glyph name="x" format="2">
	<unicode hex="0078"/>
	<advance width="528"/>
	<outline>
		<contour>
			<point x="381" y="-13" type="curve" smooth="yes"/>
			<point x="424" y="-13"/>
			<point x="477" y="33"/>
			<point x="522" y="99" type="curve"/>
			<point x="505" y="112" type="line"/>
			<point x="468" y="63"/>
			<point x="427" y="30"/>
			<point x="398" y="30" type="curve" smooth="yes"/>
			<point x="365" y="30"/>
			<point x="352" y="49"/>
			<point x="337" y="108" type="curve" smooth="yes"/>
			<point x="298" y="263" type="line"/>
			<point x="298" y="264" type="line"/>
			<point x="265" y="397" type="line" smooth="yes"/>
			<point x="249" y="462"/>
			<point x="229" y="485"/>
			<point x="190" y="485" type="curve" smooth="yes"/>
			<point x="153" y="485"/>
			<point x="109" y="454"/>
			<point x="77" y="377" type="curve"/>
			<point x="94" y="366" type="line"/>
			<point x="127" y="428"/>
			<point x="150" y="442"/>
			<point x="176" y="442" type="curve" smooth="yes"/>
			<point x="198" y="442"/>
			<point x="212" y="430"/>
			<point x="224" y="383" type="curve" smooth="yes"/>
			<point x="267" y="218" type="line"/>
			<point x="267" y="217" type="line"/>
			<point x="303" y="83" type="line" smooth="yes"/>
			<point x="321" y="9"/>
			<point x="339" y="-13"/>
		</contour>
		<contour>
			<point x="-5" y="56" type="curve"/>
			<point x="3" y="12"/>
			<point x="36" y="-13"/>
			<point x="72" y="-13" type="curve" smooth="yes"/>
			<point x="98" y="-13"/>
			<point x="124" y="-4"/>
			<point x="148" y="25" type="curve" smooth="yes"/>
			<point x="193" y="79"/>
			<point x="237" y="149"/>
			<point x="289" y="237" type="curve"/>
			<point x="278" y="260" type="line"/>
			<point x="234" y="195"/>
			<point x="179" y="108"/>
			<point x="128" y="48" type="curve" smooth="yes"/>
			<point x="111" y="27"/>
			<point x="94" y="18"/>
			<point x="71" y="13" type="curve"/>
			<point x="71" y="3" type="line"/>
			<point x="89" y="3" type="line"/>
			<point x="56" y="62" type="line" smooth="yes"/>
			<point x="46" y="80"/>
			<point x="38" y="84"/>
			<point x="24" y="84" type="curve" smooth="yes"/>
			<point x="11" y="84"/>
			<point x="-3" y="74"/>
		</contour>
		<contour>
			<point x="291" y="232" type="line"/>
			<point x="333" y="293"/>
			<point x="380" y="364"/>
			<point x="431" y="421" type="curve" smooth="yes"/>
			<point x="449" y="440"/>
			<point x="469" y="454"/>
			<point x="488" y="458" type="curve"/>
			<point x="488" y="466" type="line"/>
			<point x="463" y="466" type="line"/>
			<point x="490" y="421" type="line" smooth="yes"/>
			<point x="501" y="404"/>
			<point x="512" y="400"/>
			<point x="524" y="400" type="curve" smooth="yes"/>
			<point x="542" y="400"/>
			<point x="554" y="415"/>
			<point x="554" y="433" type="curve"/>
			<point x="546" y="466"/>
			<point x="518" y="485"/>
			<point x="491" y="485" type="curve" smooth="yes"/>
			<point x="462" y="485"/>
			<point x="436" y="472"/>
			<point x="408" y="441" type="curve" smooth="yes"/>
			<point x="378" y="406"/>
			<point x="332" y="341"/>
			<point x="280" y="254" type="curve"/>
		</contour>
	</outline>
	<anchor name="aboveLC" x="332" y="492"/>
	<anchor name="belowLC" x="231" y="-20"/>
</glyph>
<glyph name="y" format="1">
	<unicode hex="0079"/>
	<advance width="469"/>
	<outline>
		<contour>
			<point x="-107" y="-205" type="curve"/>
			<point x="-101" y="-234"/>
			<point x="-74" y="-253"/>
			<point x="-36" y="-253" type="curve" smooth="yes"/>
			<point x="22" y="-253"/>
			<point x="74" y="-209"/>
			<point x="136" y="-142" type="curve" smooth="yes"/>
			<point x="189" y="-87"/>
			<point x="221" y="-38"/>
			<point x="255" y="14" type="curve" smooth="yes"/>
			<point x="304" y="91"/>
			<point x="344" y="164"/>
			<point x="405" y="279" type="curve" smooth="yes"/>
			<point x="436" y="338"/>
			<point x="452" y="371"/>
			<point x="470" y="410" type="curve" smooth="yes"/>
			<point x="483" y="437"/>
			<point x="486" y="449"/>
			<point x="486" y="464" type="curve" smooth="yes"/>
			<point x="486" y="478"/>
			<point x="475" y="487"/>
			<point x="459" y="487" type="curve" smooth="yes"/>
			<point x="438" y="487"/>
			<point x="424" y="474"/>
			<point x="405" y="397" type="curve" smooth="yes"/>
			<point x="379" y="286"/>
			<point x="312" y="156"/>
			<point x="233" y="23" type="curve" smooth="yes"/>
			<point x="184" y="-48"/>
			<point x="164" y="-79"/>
			<point x="119" y="-122" type="curve" smooth="yes"/>
			<point x="58" y="-182"/>
			<point x="19" y="-212"/>
			<point x="-48" y="-229" type="curve"/>
			<point x="22" y="-226" type="line"/>
			<point x="-11" y="-200" type="line" smooth="yes"/>
			<point x="-33" y="-184"/>
			<point x="-50" y="-175"/>
			<point x="-69" y="-175" type="curve" smooth="yes"/>
			<point x="-88" y="-175"/>
			<point x="-102" y="-185"/>
		</contour>
		<contour>
			<point x="238" y="18" type="line"/>
			<point x="233" y="150"/>
			<point x="226" y="262"/>
			<point x="212" y="378" type="curve" smooth="yes"/>
			<point x="202" y="464"/>
			<point x="185" y="485"/>
			<point x="148" y="485" type="curve" smooth="yes"/>
			<point x="109" y="485"/>
			<point x="71" y="456"/>
			<point x="35" y="376" type="curve"/>
			<point x="52" y="366" type="line"/>
			<point x="88" y="430"/>
			<point x="109" y="442"/>
			<point x="128" y="442" type="curve" smooth="yes"/>
			<point x="149" y="442"/>
			<point x="156" y="428"/>
			<point x="168" y="346" type="curve" smooth="yes"/>
			<point x="185" y="226"/>
			<point x="195" y="130"/>
			<point x="203" y="-26" type="curve"/>
		</contour>
		<contour>
			<point name="aboveLC" x="315" y="498" type="move"/>
		</contour>
		<contour>
			<point name="belowLC" x="-8" y="-253" type="move"/>
		</contour>
	</outline>
</glyph>
<glyph name="z" format="2">
	<unicode hex="007A"/>
	<advance width="443"/>
	<outline>
		<contour>
			<point x="258" y="-23" type="curve" smooth="yes"/>
			<point x="331" y="-23"/>
			<point x="408" y="33"/>
			<point x="408" y="100" type="curve" smooth="yes"/>
			<point x="408" y="128"/>
			<point x="400" y="145"/>
			<point x="384" y="151" type="curve"/>
			<point x="364" y="149"/>
			<point x="351" y="133"/>
			<point x="351" y="107" type="curve" smooth="yes"/>
			<point x="351" y="87"/>
			<point x="358" y="72"/>
			<point x="375" y="42" type="curve"/>
			<point x="383" y="42" type="line"/>
			<point x="383" y="63" type="line"/>
			<point x="353" y="38"/>
			<point x="316" y="21"/>
			<point x="273" y="21" type="curve" smooth="yes"/>
			<point x="220" y="21"/>
			<point x="168" y="38"/>
			<point x="83" y="104" type="curve"/>
			<point x="67" y="82" type="line"/>
			<point x="138" y="6"/>
			<point x="190" y="-23"/>
		</contour>
		<contour>
			<point x="49" y="-2" type="line"/>
			<point x="80" y="76" type="line"/>
			<point x="187" y="187"/>
			<point x="298" y="263"/>
			<point x="390" y="360" type="curve" smooth="yes"/>
			<point x="434" y="406"/>
			<point x="462" y="444"/>
			<point x="472" y="478" type="curve"/>
			<point x="465" y="484" type="line"/>
			<point x="428" y="477" type="line"/>
			<point x="399" y="406" type="line"/>
			<point x="284" y="282"/>
			<point x="170" y="203"/>
			<point x="73" y="103" type="curve" smooth="yes"/>
			<point x="42" y="71"/>
			<point x="19" y="34"/>
			<point x="6" y="-2" type="curve"/>
			<point x="11" y="-7" type="line"/>
		</contour>
		<contour>
			<point x="74" y="308" type="line"/>
			<point x="99" y="304" type="line"/>
			<point x="141" y="465" type="line"/>
			<point x="110" y="442" type="line"/>
			<point x="216" y="424"/>
			<point x="302" y="408"/>
			<point x="398" y="385" type="curve"/>
			<point x="416" y="414" type="line"/>
			<point x="323" y="445"/>
			<point x="234" y="466"/>
			<point x="139" y="485" type="curve"/>
			<point x="96" y="449" type="line"/>
		</contour>
	</outline>
	<anchor name="aboveLC" x="289" y="492"/>
	<anchor name="belowLC" x="178" y="-20"/>
</glyph>
<glyph name="braceleft" format="2">
	<unicode hex="007B"/>
	<advance width="360"/>
	<outline>
		<contour>
			<point x="43" y="264" type="line"/>
			<point x="120" y="256"/>
			<point x="151" y="229"/>
			<point x="151" y="188" type="curve" smooth="yes"/>
			<point x="151" y="134"/>
			<point x="81" y="25"/>
			<point x="81" y="-69" type="curve" smooth="yes"/>
			<point x="81" y="-127"/>
			<point x="119" y="-159"/>
			<point x="205" y="-159" type="curve" smooth="yes"/>
			<point x="253" y="-159" type="line"/>
			<point x="259" y="-130" type="line"/>
			<point x="217" y="-128" type="line" smooth="yes"/>
			<point x="151" y="-124"/>
			<point x="125" y="-104"/>
			<point x="125" y="-61" type="curve" smooth="yes"/>
			<point x="125" y="22"/>
			<point x="183" y="138"/>
			<point x="183" y="195" type="curve" smooth="yes"/>
			<point x="183" y="243"/>
			<point x="153" y="279"/>
			<point x="70" y="282" type="curve"/>
			<point x="68" y="274" type="line"/>
			<point x="180" y="279"/>
			<point x="230" y="343"/>
			<point x="230" y="416" type="curve" smooth="yes"/>
			<point x="230" y="449"/>
			<point x="224" y="496"/>
			<point x="224" y="537" type="curve" smooth="yes"/>
			<point x="224" y="638"/>
			<point x="252" y="678"/>
			<point x="372" y="685" type="curve" smooth="yes"/>
			<point x="404" y="686" type="line"/>
			<point x="410" y="715" type="line"/>
			<point x="373" y="715" type="line" smooth="yes"/>
			<point x="234" y="715"/>
			<point x="181" y="652"/>
			<point x="181" y="544" type="curve" smooth="yes"/>
			<point x="181" y="495"/>
			<point x="194" y="445"/>
			<point x="194" y="412" type="curve" smooth="yes"/>
			<point x="194" y="346"/>
			<point x="152" y="302"/>
			<point x="49" y="292" type="curve"/>
		</contour>
	</outline>
</glyph>
<glyph name="bar" format="2">
	<unicode hex="007C"/>
	<advance width="244"/>
	<outline>
		<contour>
			<point x="118" y="-250" type="line"/>
			<point x="156" y="-250" type="line"/>
			<point x="156" y="750" type="line"/>
			<point x="118" y="750" type="line"/>
		</contour>
	</outline>
</glyph>
<glyph name="asciitilde" format="1">
	<unicode hex="007E"/>
	<advance width="530"/>
	<outline>
		<contour>
			<point x="306" y="357" type="curve" smooth="yes"/>
			<point x="271" y="389"/>
			<point x="238" y="411"/>
			<point x="194" y="411" type="curve" smooth="yes"/>
			<point x="128" y="411"/>
			<point x="87" y="365"/>
			<point x="82" y="291" type="curve"/>
			<point x="116" y="285" type="line"/>
			<point x="125" y="350"/>
			<point x="153" y="373"/>
			<point x="192" y="373" type="curve" smooth="yes"/>
			<point x="224" y="373"/>
			<point x="246" y="361"/>
			<point x="277" y="331" type="curve" smooth="yes"/>
			<point x="313" y="297"/>
			<point x="344" y="278"/>
			<point x="387" y="278" type="curve" smooth="yes"/>
			<point x="455" y="278"/>
			<point x="494" y="326"/>
			<point x="499" y="399" type="curve"/>
			<point x="466" y="404" type="line"/>
			<point x="457" y="341"/>
			<point x="429" y="317"/>
			<point x="391" y="317" type="curve" smooth="yes"/>
			<point x="359" y="317"/>
			<point x="336" y="328"/>
		</contour>
	</outline>
</glyph>
<glyph name="cent" format="1">
	<unicode hex="00A2"/>
	<advance width="497"/>
	<outline>
		<contour>
			<point x="94" y="243" type="curve" smooth="yes"/>
			<point x="94" y="117"/>
			<point x="160" y="62"/>
			<point x="240" y="62" type="curve" smooth="yes"/>
			<point x="309" y="62"/>
			<point x="370" y="106"/>
			<point x="411" y="174" type="curve"/>
			<point x="395" y="186" type="line"/>
			<point x="360" y="139"/>
			<point x="316" y="104"/>
			<point x="256" y="104" type="curve" smooth="yes"/>
			<point x="187" y="104"/>
			<point x="140" y="152"/>
			<point x="140" y="250" type="curve" smooth="yes"/>
			<point x="140" y="387"/>
			<point x="222" y="530"/>
			<point x="331" y="530" type="curve" smooth="yes"/>
			<point x="365" y="530"/>
			<point x="392" y="520"/>
			<point x="418" y="504" type="curve"/>
			<point x="394" y="531" type="line"/>
			<point x="409" y="445" type="line" smooth="yes"/>
			<point x="412" y="422"/>
			<point x="420" y="406"/>
			<point x="442" y="406" type="curve" smooth="yes"/>
			<point x="457" y="406"/>
			<point x="467" y="416"/>
			<point x="469" y="438" type="curve"/>
			<point x="463" y="519"/>
			<point x="410" y="560"/>
			<point x="335" y="560" type="curve" smooth="yes"/>
			<point x="210" y="560"/>
			<point x="94" y="408"/>
		</contour>
		<contour>
			<point x="222" y="-48" type="line"/>
			<point x="367" y="664" type="line"/>
			<point x="338" y="664" type="line"/>
			<point x="194" y="-48" type="line"/>
		</contour>
	</outline>
</glyph>
<glyph name="sterling" format="1">
	<unicode hex="00A3"/>
	<advance width="468"/>
	<outline>
		<contour>
			<point x="-25" y="0" type="line"/>
			<point x="366" y="0" type="line"/>
			<point x="376" y="49" type="line"/>
			<point x="19" y="49" type="line"/>
			<point x="23" y="38" type="line"/>
			<point x="127" y="113"/>
			<point x="195" y="205"/>
			<point x="195" y="308" type="curve" smooth="yes"/>
			<point x="195" y="365"/>
			<point x="158" y="412"/>
			<point x="158" y="486" type="curve" smooth="yes"/>
			<point x="158" y="571"/>
			<point x="215" y="634"/>
			<point x="311" y="634" type="curve" smooth="yes"/>
			<point x="350" y="634"/>
			<point x="394" y="625"/>
			<point x="427" y="585" type="curve"/>
			<point x="397" y="623" type="line"/>
			<point x="396" y="603"/>
			<point x="398" y="556"/>
			<point x="398" y="534" type="curve" smooth="yes"/>
			<point x="400" y="502"/>
			<point x="412" y="486"/>
			<point x="433" y="486" type="curve" smooth="yes"/>
			<point x="444" y="486"/>
			<point x="456" y="493"/>
			<point x="464" y="508" type="curve"/>
			<point x="461" y="621"/>
			<point x="393" y="664"/>
			<point x="305" y="664" type="curve" smooth="yes"/>
			<point x="182" y="664"/>
			<point x="107" y="582"/>
			<point x="107" y="487" type="curve" smooth="yes"/>
			<point x="107" y="417"/>
			<point x="153" y="364"/>
			<point x="153" y="306" type="curve" smooth="yes"/>
			<point x="153" y="201"/>
			<point x="96" y="118"/>
			<point x="-18" y="36" type="curve"/>
		</contour>
		<contour>
			<point x="30" y="295" type="line"/>
			<point x="344" y="295" type="line"/>
			<point x="352" y="330" type="line"/>
			<point x="37" y="330" type="line"/>
		</contour>
	</outline>
</glyph>
<glyph name="currency" format="2">
	<unicode hex="00A4"/>
	<advance width="510"/>
	<outline>
		<contour>
			<point x="394" y="434" type="line"/>
			<point x="441" y="467" type="line" smooth="yes"/>
			<point x="480" y="492"/>
			<point x="498" y="508"/>
			<point x="498" y="525" type="curve" smooth="yes"/>
			<point x="498" y="539"/>
			<point x="486" y="551"/>
			<point x="472" y="551" type="curve" smooth="yes"/>
			<point x="455" y="551"/>
			<point x="439" y="532"/>
			<point x="414" y="494" type="curve" smooth="yes"/>
			<point x="381" y="447" type="line"/>
		</contour>
		<contour>
			<point x="152" y="333" type="curve" smooth="yes"/>
			<point x="152" y="409"/>
			<point x="209" y="463"/>
			<point x="280" y="463" type="curve" smooth="yes"/>
			<point x="350" y="463"/>
			<point x="407" y="409"/>
			<point x="407" y="333" type="curve" smooth="yes"/>
			<point x="407" y="259"/>
			<point x="350" y="203"/>
			<point x="280" y="203" type="curve" smooth="yes"/>
			<point x="211" y="203"/>
			<point x="152" y="256"/>
		</contour>
		<contour>
			<point x="115" y="333" type="curve" smooth="yes"/>
			<point x="115" y="236"/>
			<point x="191" y="171"/>
			<point x="280" y="171" type="curve" smooth="yes"/>
			<point x="368" y="171"/>
			<point x="444" y="236"/>
			<point x="444" y="333" type="curve" smooth="yes"/>
			<point x="444" y="430"/>
			<point x="368" y="495"/>
			<point x="280" y="495" type="curve" smooth="yes"/>
			<point x="191" y="495"/>
			<point x="115" y="430"/>
		</contour>
		<contour>
			<point x="179" y="448" type="line"/>
			<point x="145" y="495" type="line" smooth="yes"/>
			<point x="120" y="533"/>
			<point x="104" y="552"/>
			<point x="87" y="552" type="curve" smooth="yes"/>
			<point x="73" y="552"/>
			<point x="61" y="540"/>
			<point x="61" y="526" type="curve" smooth="yes"/>
			<point x="61" y="509"/>
			<point x="81" y="492"/>
			<point x="118" y="467" type="curve" smooth="yes"/>
			<point x="165" y="435" type="line"/>
		</contour>
		<contour>
			<point x="165" y="232" type="line"/>
			<point x="118" y="199" type="line" smooth="yes"/>
			<point x="79" y="174"/>
			<point x="61" y="158"/>
			<point x="61" y="141" type="curve" smooth="yes"/>
			<point x="61" y="127"/>
			<point x="73" y="115"/>
			<point x="87" y="115" type="curve" smooth="yes"/>
			<point x="104" y="115"/>
			<point x="120" y="134"/>
			<point x="145" y="172" type="curve" smooth="yes"/>
			<point x="178" y="219" type="line"/>
		</contour>
		<contour>
			<point x="380" y="219" type="line"/>
			<point x="414" y="172" type="line" smooth="yes"/>
			<point x="439" y="133"/>
			<point x="455" y="115"/>
			<point x="472" y="115" type="curve" smooth="yes"/>
			<point x="486" y="115"/>
			<point x="498" y="126"/>
			<point x="498" y="140" type="curve" smooth="yes"/>
			<point x="498" y="157"/>
			<point x="478" y="174"/>
			<point x="441" y="199" type="curve" smooth="yes"/>
			<point x="394" y="232" type="line"/>
		</contour>
	</outline>
</glyph>
<glyph name="yen" format="2">
	<unicode hex="00A5"/>
	<advance width="510"/>
	<outline>
		<contour>
			<point x="248" y="240" type="line"/>
			<point x="268" y="242" type="line"/>
			<point x="531" y="651" type="line"/>
			<point x="494" y="651" type="line"/>
			<point x="266" y="291" type="line"/>
			<point x="278" y="293" type="line"/>
			<point x="188" y="651" type="line"/>
			<point x="140" y="651" type="line"/>
		</contour>
		<contour>
			<point x="75" y="0" type="line"/>
			<point x="335" y="0" type="line"/>
			<point x="341" y="28" type="line"/>
			<point x="221" y="38" type="line"/>
			<point x="205" y="38" type="line"/>
			<point x="81" y="28" type="line"/>
		</contour>
		<contour>
			<point x="80" y="624" type="line"/>
			<point x="169" y="614" type="line"/>
			<point x="181" y="614" type="line"/>
			<point x="291" y="624" type="line"/>
			<point x="297" y="651" type="line"/>
			<point x="86" y="651" type="line"/>
		</contour>
		<contour>
			<point x="388" y="624" type="line"/>
			<point x="488" y="614" type="line"/>
			<point x="498" y="614" type="line"/>
			<point x="576" y="624" type="line"/>
			<point x="583" y="651" type="line"/>
			<point x="394" y="651" type="line"/>
		</contour>
		<contour>
			<point x="46" y="142" type="line"/>
			<point x="421" y="142" type="line"/>
			<point x="428" y="176" type="line"/>
			<point x="53" y="176" type="line"/>
		</contour>
		<contour>
			<point x="72" y="264" type="line"/>
			<point x="446" y="264" type="line"/>
			<point x="453" y="299" type="line"/>
			<point x="79" y="299" type="line"/>
		</contour>
		<contour>
			<point x="183" y="0" type="line"/>
			<point x="231" y="0" type="line"/>
			<point x="247" y="84"/>
			<point x="254" y="124"/>
			<point x="288" y="291" type="curve"/>
			<point x="243" y="291" type="line"/>
		</contour>
	</outline>
</glyph>
<glyph name="brokenbar" format="2">
	<unicode hex="00A6"/>
	<advance width="244"/>
	<outline>
		<contour>
			<point x="119" y="-250" type="line"/>
			<point x="157" y="-250" type="line"/>
			<point x="157" y="200" type="line"/>
			<point x="119" y="200" type="line"/>
		</contour>
		<contour>
			<point x="157" y="320" type="line"/>
			<point x="157" y="750" type="line"/>
			<point x="119" y="750" type="line"/>
			<point x="119" y="320" type="line"/>
		</contour>
	</outline>
</glyph>
<glyph name="section" format="2">
	<unicode hex="00A7"/>
	<advance width="464"/>
	<outline>
		<contour>
			<point x="168" y="-109" type="curve" smooth="yes"/>
			<point x="258" y="-109"/>
			<point x="325" y="-58"/>
			<point x="325" y="21" type="curve" smooth="yes"/>
			<point x="325" y="76"/>
			<point x="304" y="106"/>
			<point x="243" y="150" type="curve" smooth="yes"/>
			<point x="198" y="183" type="line" smooth="yes"/>
			<point x="141" y="225"/>
			<point x="121" y="249"/>
			<point x="121" y="297" type="curve" smooth="yes"/>
			<point x="121" y="368"/>
			<point x="176" y="423"/>
			<point x="296" y="428" type="curve"/>
			<point x="289" y="457" type="line"/>
			<point x="289" y="449" type="line"/>
			<point x="159" y="446"/>
			<point x="82" y="379"/>
			<point x="82" y="290" type="curve" smooth="yes"/>
			<point x="82" y="230"/>
			<point x="114" y="193"/>
			<point x="169" y="153" type="curve" smooth="yes"/>
			<point x="208" y="124" type="line" smooth="yes"/>
			<point x="266" y="82"/>
			<point x="283" y="54"/>
			<point x="283" y="15" type="curve" smooth="yes"/>
			<point x="283" y="-41"/>
			<point x="236" y="-83"/>
			<point x="162" y="-83" type="curve" smooth="yes"/>
			<point x="135" y="-83"/>
			<point x="118" y="-79"/>
			<point x="94" y="-66" type="curve"/>
			<point x="122" y="-93" type="line"/>
			<point x="101" y="-24" type="line" smooth="yes"/>
			<point x="96" y="-6"/>
			<point x="87" y="3"/>
			<point x="69" y="3" type="curve" smooth="yes"/>
			<point x="56" y="3"/>
			<point x="46" y="-7"/>
			<point x="43" y="-20" type="curve"/>
			<point x="57" y="-81"/>
			<point x="96" y="-109"/>
		</contour>
		<contour>
			<point x="342" y="688" type="curve" smooth="yes"/>
			<point x="255" y="688"/>
			<point x="197" y="634"/>
			<point x="197" y="559" type="curve" smooth="yes"/>
			<point x="197" y="502"/>
			<point x="232" y="467"/>
			<point x="277" y="434" type="curve" smooth="yes"/>
			<point x="327" y="398" type="line" smooth="yes"/>
			<point x="383" y="358"/>
			<point x="400" y="325"/>
			<point x="400" y="284" type="curve" smooth="yes"/>
			<point x="400" y="215"/>
			<point x="335" y="163"/>
			<point x="219" y="158" type="curve"/>
			<point x="229" y="129" type="line"/>
			<point x="229" y="137" type="line"/>
			<point x="356" y="140"/>
			<point x="440" y="200"/>
			<point x="440" y="294" type="curve" smooth="yes"/>
			<point x="440" y="348"/>
			<point x="418" y="384"/>
			<point x="354" y="430" type="curve" smooth="yes"/>
			<point x="314" y="459" type="line" smooth="yes"/>
			<point x="259" y="499"/>
			<point x="238" y="519"/>
			<point x="238" y="568" type="curve" smooth="yes"/>
			<point x="238" y="620"/>
			<point x="275" y="662"/>
			<point x="351" y="662" type="curve" smooth="yes"/>
			<point x="370" y="662"/>
			<point x="388" y="657"/>
			<point x="403" y="649" type="curve"/>
			<point x="375" y="676" type="line"/>
			<point x="398" y="619" type="line" smooth="yes"/>
			<point x="407" y="598"/>
			<point x="419" y="589"/>
			<point x="434" y="589" type="curve" smooth="yes"/>
			<point x="446" y="589"/>
			<point x="458" y="597"/>
			<point x="460" y="610" type="curve"/>
			<point x="448" y="659"/>
			<point x="405" y="688"/>
		</contour>
	</outline>
</glyph>
<glyph name="copyright" format="1">
	<unicode hex="00A9"/>
	<advance width="758"/>
	<outline>
		<contour>
			<point x="389" y="-14" type="curve" smooth="yes"/>
			<point x="586" y="-14"/>
			<point x="768" y="132"/>
			<point x="768" y="377" type="curve" smooth="yes"/>
			<point x="768" y="573"/>
			<point x="634" y="688"/>
			<point x="447" y="688" type="curve" smooth="yes"/>
			<point x="250" y="688"/>
			<point x="68" y="542"/>
			<point x="68" y="296" type="curve" smooth="yes"/>
			<point x="68" y="101"/>
			<point x="202" y="-14"/>
		</contour>
		<contour>
			<point x="385" y="15" type="curve" smooth="yes"/>
			<point x="221" y="15"/>
			<point x="103" y="120"/>
			<point x="103" y="301" type="curve" smooth="yes"/>
			<point x="103" y="524"/>
			<point x="268" y="659"/>
			<point x="451" y="659" type="curve" smooth="yes"/>
			<point x="615" y="659"/>
			<point x="733" y="553"/>
			<point x="733" y="373" type="curve" smooth="yes"/>
			<point x="733" y="148"/>
			<point x="569" y="15"/>
		</contour>
		<contour>
			<point x="409" y="130" type="curve" smooth="yes"/>
			<point x="449" y="130"/>
			<point x="479" y="140"/>
			<point x="515" y="157" type="curve"/>
			<point x="532" y="247" type="line"/>
			<point x="506" y="247" type="line"/>
			<point x="478" y="157" type="line"/>
			<point x="503" y="182" type="line"/>
			<point x="475" y="165"/>
			<point x="447" y="157"/>
			<point x="415" y="157" type="curve" smooth="yes"/>
			<point x="342" y="157"/>
			<point x="277" y="215"/>
			<point x="277" y="320" type="curve" smooth="yes"/>
			<point x="277" y="436"/>
			<point x="349" y="522"/>
			<point x="453" y="522" type="curve" smooth="yes"/>
			<point x="497" y="522"/>
			<point x="527" y="513"/>
			<point x="555" y="492" type="curve"/>
			<point x="535" y="518" type="line"/>
			<point x="531" y="424" type="line"/>
			<point x="557" y="424" type="line"/>
			<point x="571" y="517" type="line"/>
			<point x="535" y="540"/>
			<point x="500" y="548"/>
			<point x="455" y="548" type="curve" smooth="yes"/>
			<point x="330" y="548"/>
			<point x="235" y="452"/>
			<point x="235" y="317" type="curve" smooth="yes"/>
			<point x="235" y="206"/>
			<point x="306" y="130"/>
		</contour>
	</outline>
</glyph>
<glyph name="logicalnot" format="1">
	<unicode hex="00AC"/>
	<advance width="530"/>
	<outline>
		<contour>
			<point x="51" y="352" type="line"/>
			<point x="478" y="352" type="line"/>
			<point x="469" y="363" type="line"/>
			<point x="469" y="169" type="line"/>
			<point x="510" y="169" type="line"/>
			<point x="510" y="391" type="line"/>
			<point x="51" y="391" type="line"/>
		</contour>
	</outline>
</glyph>
<glyph name="registered" format="1">
	<unicode hex="00AE"/>
	<advance width="452"/>
	<outline>
		<contour>
			<point x="302" y="318" type="curve" smooth="yes"/>
			<point x="412" y="318"/>
			<point x="511" y="398"/>
			<point x="511" y="525" type="curve" smooth="yes"/>
			<point x="511" y="639"/>
			<point x="422" y="712"/>
			<point x="321" y="712" type="curve" smooth="yes"/>
			<point x="211" y="712"/>
			<point x="112" y="633"/>
			<point x="112" y="508" type="curve" smooth="yes"/>
			<point x="112" y="393"/>
			<point x="201" y="318"/>
		</contour>
		<contour>
			<point x="304" y="342" type="curve" smooth="yes"/>
			<point x="216" y="342"/>
			<point x="142" y="410"/>
			<point x="142" y="511" type="curve" smooth="yes"/>
			<point x="142" y="618"/>
			<point x="227" y="688"/>
			<point x="318" y="688" type="curve" smooth="yes"/>
			<point x="406" y="688"/>
			<point x="481" y="621"/>
			<point x="481" y="522" type="curve" smooth="yes"/>
			<point x="481" y="414"/>
			<point x="401" y="342"/>
		</contour>
		<contour>
			<point x="406" y="419" type="curve"/>
			<point x="407" y="432" type="line"/>
			<point x="371" y="435" type="line"/>
			<point x="385" y="425" type="line"/>
			<point x="364" y="484" type="line" smooth="yes"/>
			<point x="356" y="506"/>
			<point x="346" y="515"/>
			<point x="321" y="517" type="curve"/>
			<point x="318" y="513" type="line"/>
			<point x="364" y="515"/>
			<point x="389" y="538"/>
			<point x="389" y="569" type="curve" smooth="yes"/>
			<point x="389" y="603"/>
			<point x="364" y="621"/>
			<point x="321" y="621" type="curve" smooth="yes"/>
			<point x="286" y="621" type="line"/>
			<point x="285" y="607" type="line"/>
			<point x="318" y="607" type="line" smooth="yes"/>
			<point x="348" y="607"/>
			<point x="359" y="593"/>
			<point x="359" y="571" type="curve" smooth="yes"/>
			<point x="359" y="542"/>
			<point x="342" y="523"/>
			<point x="311" y="523" type="curve" smooth="yes"/>
			<point x="278" y="523" type="line"/>
			<point x="277" y="509" type="line"/>
			<point x="303" y="509" type="line" smooth="yes"/>
			<point x="322" y="509"/>
			<point x="328" y="501"/>
			<point x="333" y="485" type="curve" smooth="yes"/>
			<point x="349" y="437" type="line" smooth="yes"/>
			<point x="354" y="422"/>
			<point x="361" y="417"/>
			<point x="382" y="417" type="curve" smooth="yes"/>
			<point x="391" y="417"/>
			<point x="397" y="417"/>
		</contour>
		<contour>
			<point x="251" y="419" type="line"/>
			<point x="281" y="419" type="line"/>
			<point x="298" y="621" type="line"/>
			<point x="267" y="621" type="line"/>
		</contour>
		<contour>
			<point x="239" y="608" type="line"/>
			<point x="278" y="605" type="line"/>
			<point x="281" y="608" type="line"/>
			<point x="283" y="621" type="line"/>
			<point x="241" y="621" type="line"/>
		</contour>
		<contour>
			<point x="224" y="419" type="line"/>
			<point x="308" y="419" type="line"/>
			<point x="309" y="432" type="line"/>
			<point x="270" y="435" type="line"/>
			<point x="265" y="435" type="line"/>
			<point x="225" y="432" type="line"/>
		</contour>
	</outline>
</glyph>
<glyph name="degree" format="2">
	<unicode hex="00B0"/>
	<advance width="319"/>
	<outline>
		<contour>
			<point x="236" y="475" type="curve" smooth="yes"/>
			<point x="188" y="475"/>
			<point x="150" y="512"/>
			<point x="150" y="567" type="curve" smooth="yes"/>
			<point x="150" y="622"/>
			<point x="188" y="661"/>
			<point x="236" y="661" type="curve" smooth="yes"/>
			<point x="285" y="661"/>
			<point x="323" y="622"/>
			<point x="323" y="567" type="curve" smooth="yes"/>
			<point x="323" y="512"/>
			<point x="285" y="475"/>
		</contour>
		<contour>
			<point x="236" y="447" type="curve" smooth="yes"/>
			<point x="300" y="447"/>
			<point x="355" y="494"/>
			<point x="355" y="567" type="curve" smooth="yes"/>
			<point x="355" y="639"/>
			<point x="300" y="688"/>
			<point x="236" y="688" type="curve" smooth="yes"/>
			<point x="172" y="688"/>
			<point x="118" y="639"/>
			<point x="118" y="567" type="curve" smooth="yes"/>
			<point x="118" y="494"/>
			<point x="172" y="447"/>
		</contour>
	</outline>
</glyph>
<glyph name="plusminus" format="1">
	<unicode hex="00B1"/>
	<advance width="530"/>
	<outline>
		<contour>
			<point x="249" y="98" type="line"/>
			<point x="290" y="98" type="line"/>
			<point x="290" y="565" type="line"/>
			<point x="249" y="565" type="line"/>
		</contour>
		<contour>
			<point x="499" y="314" type="line"/>
			<point x="499" y="353" type="line"/>
			<point x="40" y="353" type="line"/>
			<point x="40" y="314" type="line"/>
		</contour>
		<contour>
			<point x="499" y="0" type="line"/>
			<point x="499" y="38" type="line"/>
			<point x="40" y="38" type="line"/>
			<point x="40" y="0" type="line"/>
		</contour>
	</outline>
</glyph>
<glyph name="two.sups" format="2">
	<unicode hex="00B2"/>
	<advance width="334"/>
	<outline>
		<contour>
			<point x="96" y="433" type="line"/>
			<point x="338" y="433" type="line"/>
			<point x="347" y="474" type="line"/>
			<point x="132" y="474" type="line"/>
			<point x="136" y="468" type="line"/>
			<point x="335" y="641"/>
			<point x="383" y="680"/>
			<point x="383" y="745" type="curve" smooth="yes"/>
			<point x="383" y="798"/>
			<point x="348" y="836"/>
			<point x="277" y="836" type="curve" smooth="yes"/>
			<point x="211" y="836"/>
			<point x="160" y="805"/>
			<point x="148" y="729" type="curve"/>
			<point x="150" y="716"/>
			<point x="159" y="707"/>
			<point x="171" y="707" type="curve" smooth="yes"/>
			<point x="186" y="707"/>
			<point x="196" y="717"/>
			<point x="198" y="747" type="curve" smooth="yes"/>
			<point x="201" y="806" type="line"/>
			<point x="183" y="769" type="line"/>
			<point x="199" y="800"/>
			<point x="231" y="813"/>
			<point x="262" y="813" type="curve" smooth="yes"/>
			<point x="311" y="813"/>
			<point x="338" y="786"/>
			<point x="338" y="741" type="curve" smooth="yes"/>
			<point x="338" y="689"/>
			<point x="307" y="650"/>
			<point x="102" y="465" type="curve"/>
		</contour>
	</outline>
</glyph>
<glyph name="paragraph" format="2">
	<unicode hex="00B6"/>
	<advance width="600"/>
	<outline>
		<contour>
			<point x="537" y="674" type="line"/>
			<point x="530" y="635" type="line"/>
			<point x="536" y="635" type="line"/>
			<point x="661" y="645" type="line"/>
			<point x="665" y="674" type="line"/>
		</contour>
		<contour>
			<point x="369" y="-130" type="line"/>
			<point x="416" y="-130" type="line"/>
			<point x="432" y="-28"/>
			<point x="451" y="76"/>
			<point x="470" y="180" type="curve" smooth="yes"/>
			<point x="562" y="674" type="line"/>
			<point x="517" y="674" type="line"/>
		</contour>
		<contour>
			<point x="441" y="641" type="line"/>
			<point x="531" y="641" type="line"/>
			<point x="537" y="674" type="line"/>
			<point x="471" y="674" type="line" smooth="yes"/>
			<point x="229" y="674"/>
			<point x="112" y="562"/>
			<point x="112" y="397" type="curve" smooth="yes"/>
			<point x="112" y="254"/>
			<point x="214" y="184"/>
			<point x="353" y="167" type="curve"/>
		</contour>
	</outline>
</glyph>
<glyph name="AE" format="2">
	<unicode hex="00C6"/>
	<advance width="888"/>
	<outline>
		<contour>
			<point x="438" y="0" type="line"/>
			<point x="806" y="0" type="line"/>
			<point x="845" y="163" type="line"/>
			<point x="810" y="163" type="line"/>
			<point x="756" y="0" type="line"/>
			<point x="789" y="33" type="line"/>
			<point x="445" y="33" type="line"/>
		</contour>
		<contour>
			<point x="837" y="511" type="line"/>
			<point x="872" y="511" type="line"/>
			<point x="893" y="674" type="line"/>
			<point x="565" y="674" type="line"/>
			<point x="558" y="641" type="line"/>
			<point x="862" y="641" type="line"/>
			<point x="843" y="674" type="line"/>
		</contour>
		<contour>
			<point x="-38" y="0" type="line"/>
			<point x="170" y="0" type="line"/>
			<point x="176" y="28" type="line"/>
			<point x="79" y="38" type="line"/>
			<point x="63" y="38" type="line"/>
			<point x="-33" y="28" type="line"/>
		</contour>
		<contour>
			<point x="413" y="0" type="line"/>
			<point x="469" y="0" type="line"/>
			<point x="485" y="104"/>
			<point x="504" y="208"/>
			<point x="523" y="312" type="curve" smooth="yes"/>
			<point x="591" y="674" type="line"/>
			<point x="536" y="674" type="line"/>
			<point x="519" y="571"/>
			<point x="502" y="466"/>
			<point x="482" y="362" type="curve" smooth="yes"/>
		</contour>
		<contour>
			<point x="700" y="230" type="line"/>
			<point x="728" y="230" type="line"/>
			<point x="771" y="454" type="line"/>
			<point x="742" y="454" type="line"/>
			<point x="710" y="353" type="line"/>
			<point x="707" y="333" type="line"/>
		</contour>
		<contour>
			<point x="317" y="0" type="line"/>
			<point x="438" y="0" type="line"/>
			<point x="445" y="38" type="line"/>
			<point x="439" y="38" type="line"/>
			<point x="323" y="28" type="line"/>
		</contour>
		<contour>
			<point x="396" y="646" type="line"/>
			<point x="522" y="636" type="line"/>
			<point x="557" y="636" type="line"/>
			<point x="565" y="674" type="line"/>
			<point x="401" y="674" type="line"/>
		</contour>
		<contour>
			<point x="27" y="0" type="line"/>
			<point x="69" y="0" type="line"/>
			<point x="548" y="674" type="line"/>
			<point x="512" y="674" type="line"/>
		</contour>
		<contour>
			<point x="228" y="246" type="line"/>
			<point x="486" y="246" type="line"/>
			<point x="492" y="276" type="line"/>
			<point x="248" y="276" type="line"/>
		</contour>
		<contour>
			<point x="501" y="326" type="line"/>
			<point x="724" y="326" type="line"/>
			<point x="729" y="358" type="line"/>
			<point x="507" y="358" type="line"/>
		</contour>
	</outline>
	<anchor name="aboveUC" x="663" y="694"/>
</glyph>
<glyph name="Idieresis" format="2">
	<unicode hex="00CF"/>
	<advance width="343"/>
	<outline>
		<contour>
			<point x="185" y="753" type="curve" smooth="yes"/>
			<point x="207" y="753"/>
			<point x="228" y="771"/>
			<point x="228" y="798" type="curve" smooth="yes"/>
			<point x="228" y="818"/>
			<point x="213" y="832"/>
			<point x="193" y="832" type="curve" smooth="yes"/>
			<point x="172" y="832"/>
			<point x="151" y="815"/>
			<point x="151" y="788" type="curve" smooth="yes"/>
			<point x="151" y="765"/>
			<point x="167" y="753"/>
		</contour>
		<contour>
			<point x="356" y="753" type="curve" smooth="yes"/>
			<point x="378" y="753"/>
			<point x="399" y="771"/>
			<point x="399" y="798" type="curve" smooth="yes"/>
			<point x="399" y="818"/>
			<point x="384" y="832"/>
			<point x="364" y="832" type="curve" smooth="yes"/>
			<point x="343" y="832"/>
			<point x="322" y="815"/>
			<point x="322" y="788" type="curve" smooth="yes"/>
			<point x="322" y="765"/>
			<point x="338" y="753"/>
		</contour>
		<component base="I"/>
	</outline>
</glyph>
<glyph name="Eth" format="2">
	<unicode hex="00D0"/>
	<advance width="681"/>
	<outline>
		<contour>
			<point x="402" y="329" type="line"/>
			<point x="407" y="361" type="line"/>
			<point x="63" y="361" type="line"/>
			<point x="57" y="329" type="line"/>
		</contour>
		<component base="D"/>
	</outline>
</glyph>
<glyph name="multiply" format="1">
	<unicode hex="00D7"/>
	<advance width="530"/>
	<outline>
		<contour>
			<point x="475" y="120" type="line"/>
			<point x="503" y="148" type="line"/>
			<point x="104" y="547" type="line"/>
			<point x="76" y="520" type="line"/>
		</contour>
		<contour>
			<point x="503" y="519" type="line"/>
			<point x="475" y="547" type="line"/>
			<point x="76" y="147" type="line"/>
			<point x="104" y="120" type="line"/>
		</contour>
	</outline>
</glyph>
<glyph name="Oslash" format="2">
	<unicode hex="00D8"/>
	<advance width="656"/>
	<outline>
		<contour>
			<point x="689" y="669" type="line"/>
			<point x="664" y="692" type="line"/>
			<point x="1" y="6" type="line"/>
			<point x="25" y="-17" type="line"/>
		</contour>
		<contour>
			<point x="296" y="-13" type="curve" smooth="yes"/>
			<point x="491" y="-13"/>
			<point x="641" y="173"/>
			<point x="641" y="414" type="curve" smooth="yes"/>
			<point x="641" y="572"/>
			<point x="559" y="687"/>
			<point x="402" y="687" type="curve" smooth="yes"/>
			<point x="212" y="687"/>
			<point x="58" y="498"/>
			<point x="58" y="259" type="curve" smooth="yes"/>
			<point x="58" y="98"/>
			<point x="145" y="-13"/>
		</contour>
		<contour>
			<point x="303" y="20" type="curve" smooth="yes"/>
			<point x="173" y="20"/>
			<point x="111" y="103"/>
			<point x="111" y="269" type="curve" smooth="yes"/>
			<point x="111" y="475"/>
			<point x="235" y="654"/>
			<point x="396" y="654" type="curve" smooth="yes"/>
			<point x="528" y="654"/>
			<point x="588" y="576"/>
			<point x="588" y="405" type="curve" smooth="yes"/>
			<point x="588" y="189"/>
			<point x="463" y="20"/>
		</contour>
	</outline>
	<anchor name="aboveUC" x="401" y="694"/>
</glyph>
<glyph name="Thorn" format="2">
	<unicode hex="00DE"/>
	<advance width="560"/>
	<outline>
		<contour>
			<point x="162" y="160" type="line"/>
			<point x="278" y="160" type="line" smooth="yes"/>
			<point x="455" y="160"/>
			<point x="553" y="248"/>
			<point x="553" y="370" type="curve" smooth="yes"/>
			<point x="553" y="472"/>
			<point x="479" y="535"/>
			<point x="328" y="535" type="curve" smooth="yes"/>
			<point x="236" y="535" type="line"/>
			<point x="230" y="503" type="line"/>
			<point x="320" y="503" type="line" smooth="yes"/>
			<point x="444" y="503"/>
			<point x="498" y="457"/>
			<point x="498" y="370" type="curve" smooth="yes"/>
			<point x="498" y="267"/>
			<point x="433" y="190"/>
			<point x="277" y="190" type="curve" smooth="yes"/>
			<point x="168" y="190" type="line"/>
		</contour>
		<contour>
			<point x="6" y="0" type="line"/>
			<point x="261" y="0" type="line"/>
			<point x="266" y="28" type="line"/>
			<point x="146" y="38" type="line"/>
			<point x="131" y="38" type="line"/>
			<point x="12" y="28" type="line"/>
		</contour>
		<contour>
			<point x="103" y="0" type="line"/>
			<point x="159" y="0" type="line"/>
			<point x="175" y="104"/>
			<point x="193" y="208"/>
			<point x="212" y="312" type="curve" smooth="yes"/>
			<point x="280" y="674" type="line"/>
			<point x="225" y="674" type="line"/>
			<point x="208" y="570"/>
			<point x="191" y="466"/>
			<point x="171" y="362" type="curve" smooth="yes"/>
		</contour>
		<contour>
			<point x="117" y="645" type="line"/>
			<point x="238" y="635" type="line"/>
			<point x="254" y="635" type="line"/>
			<point x="372" y="645" type="line"/>
			<point x="377" y="674" type="line"/>
			<point x="123" y="674" type="line"/>
		</contour>
	</outline>
</glyph>
<glyph name="germandbls" format="2">
	<unicode hex="00DF"/>
	<advance width="507"/>
	<outline>
		<contour>
			<point x="98" y="39" type="curve" smooth="yes"/>
			<point x="79" y="-75"/>
			<point x="63" y="-131"/>
			<point x="28" y="-175" type="curve" smooth="yes"/>
			<point x="0" y="-211"/>
			<point x="-25" y="-226"/>
			<point x="-63" y="-231" type="curve"/>
			<point x="-63" y="-236" type="line"/>
			<point x="-34" y="-232" type="line"/>
			<point x="-69" y="-198" type="line" smooth="yes"/>
			<point x="-84" y="-183"/>
			<point x="-98" y="-172"/>
			<point x="-116" y="-172" type="curve" smooth="yes"/>
			<point x="-131" y="-172"/>
			<point x="-144" y="-182"/>
			<point x="-145" y="-199" type="curve"/>
			<point x="-136" y="-229"/>
			<point x="-101" y="-253"/>
			<point x="-62" y="-253" type="curve" smooth="yes"/>
			<point x="-24" y="-253"/>
			<point x="7" y="-240"/>
			<point x="46" y="-201" type="curve" smooth="yes"/>
			<point x="101" y="-148"/>
			<point x="118" y="-75"/>
			<point x="139" y="39" type="curve" smooth="yes"/>
			<point x="166" y="190"/>
			<point x="189" y="346"/>
			<point x="213" y="495" type="curve" smooth="yes"/>
			<point x="235" y="623"/>
			<point x="279" y="730"/>
			<point x="391" y="730" type="curve" smooth="yes"/>
			<point x="446" y="730"/>
			<point x="480" y="697"/>
			<point x="480" y="642" type="curve" smooth="yes"/>
			<point x="480" y="596"/>
			<point x="460" y="563"/>
			<point x="393" y="504" type="curve" smooth="yes"/>
			<point x="330" y="449"/>
			<point x="289" y="412"/>
			<point x="289" y="344" type="curve" smooth="yes"/>
			<point x="289" y="295"/>
			<point x="314" y="255"/>
			<point x="365" y="220" type="curve" smooth="yes"/>
			<point x="422" y="180"/>
			<point x="440" y="150"/>
			<point x="440" y="112" type="curve" smooth="yes"/>
			<point x="440" y="55"/>
			<point x="393" y="13"/>
			<point x="319" y="13" type="curve" smooth="yes"/>
			<point x="292" y="13"/>
			<point x="275" y="17"/>
			<point x="252" y="30" type="curve"/>
			<point x="279" y="3" type="line"/>
			<point x="258" y="72" type="line" smooth="yes"/>
			<point x="253" y="90"/>
			<point x="244" y="99"/>
			<point x="226" y="99" type="curve" smooth="yes"/>
			<point x="213" y="99"/>
			<point x="203" y="89"/>
			<point x="200" y="76" type="curve"/>
			<point x="214" y="14"/>
			<point x="251" y="-13"/>
			<point x="325" y="-13" type="curve" smooth="yes"/>
			<point x="415" y="-13"/>
			<point x="482" y="38"/>
			<point x="482" y="121" type="curve" smooth="yes"/>
			<point x="482" y="173"/>
			<point x="460" y="205"/>
			<point x="393" y="254" type="curve" smooth="yes"/>
			<point x="347" y="288"/>
			<point x="328" y="313"/>
			<point x="328" y="357" type="curve" smooth="yes"/>
			<point x="328" y="408"/>
			<point x="355" y="439"/>
			<point x="412" y="484" type="curve" smooth="yes"/>
			<point x="484" y="542"/>
			<point x="522" y="589"/>
			<point x="522" y="647" type="curve" smooth="yes"/>
			<point x="522" y="710"/>
			<point x="477" y="755"/>
			<point x="396" y="755" type="curve" smooth="yes"/>
			<point x="259" y="755"/>
			<point x="191" y="635"/>
			<point x="169" y="495" type="curve" smooth="yes"/>
			<point x="145" y="339"/>
			<point x="124" y="192"/>
		</contour>
	</outline>
</glyph>
<glyph name="ae" format="1">
	<unicode hex="00E6"/>
	<advance width="662"/>
	<outline>
		<contour>
			<point x="151" y="-13" type="curve" smooth="yes"/>
			<point x="215" y="-13"/>
			<point x="280" y="44"/>
			<point x="338" y="121" type="curve"/>
			<point x="333" y="143" type="line"/>
			<point x="269" y="68"/>
			<point x="222" y="30"/>
			<point x="172" y="30" type="curve" smooth="yes"/>
			<point x="130" y="30"/>
			<point x="101" y="59"/>
			<point x="101" y="132" type="curve" smooth="yes"/>
			<point x="101" y="222"/>
			<point x="142" y="316"/>
			<point x="202" y="377" type="curve" smooth="yes"/>
			<point x="243" y="418"/>
			<point x="292" y="444"/>
			<point x="339" y="444" type="curve" smooth="yes"/>
			<point x="375" y="444"/>
			<point x="405" y="433"/>
			<point x="434" y="400" type="curve"/>
			<point x="457" y="426" type="line"/>
			<point x="433" y="465"/>
			<point x="401" y="485"/>
			<point x="356" y="485" type="curve" smooth="yes"/>
			<point x="216" y="485"/>
			<point x="53" y="280"/>
			<point x="53" y="111" type="curve" smooth="yes"/>
			<point x="53" y="20"/>
			<point x="101" y="-13"/>
		</contour>
		<component base="e" xOffset="255"/>
		<contour>
			<point name="aboveLC" x="468" y="502" type="move"/>
		</contour>
		<contour>
			<point name="belowLC" x="340" y="-22" type="move"/>
		</contour>
	</outline>
</glyph>
<glyph name="idieresis" format="2">
	<unicode hex="00EF"/>
	<advance width="294"/>
	<outline>
		<contour>
			<point x="157" y="648" type="curve" smooth="yes"/>
			<point x="178" y="648"/>
			<point x="198" y="666"/>
			<point x="198" y="692" type="curve" smooth="yes"/>
			<point x="198" y="712"/>
			<point x="183" y="725"/>
			<point x="164" y="725" type="curve" smooth="yes"/>
			<point x="144" y="725"/>
			<point x="123" y="708"/>
			<point x="123" y="682" type="curve" smooth="yes"/>
			<point x="123" y="660"/>
			<point x="139" y="648"/>
		</contour>
		<contour>
			<point x="316" y="648" type="curve" smooth="yes"/>
			<point x="337" y="648"/>
			<point x="358" y="666"/>
			<point x="358" y="692" type="curve" smooth="yes"/>
			<point x="358" y="712"/>
			<point x="343" y="725"/>
			<point x="324" y="725" type="curve" smooth="yes"/>
			<point x="304" y="725"/>
			<point x="283" y="708"/>
			<point x="283" y="682" type="curve" smooth="yes"/>
			<point x="283" y="660"/>
			<point x="299" y="648"/>
		</contour>
		<component base="dotlessi"/>
	</outline>
</glyph>
<glyph name="eth" format="2">
	<unicode hex="00F0"/>
	<advance width="476"/>
	<outline>
		<contour>
			<point x="206" y="-13" type="curve" smooth="yes"/>
			<point x="336" y="-13"/>
			<point x="452" y="130"/>
			<point x="452" y="329" type="curve" smooth="yes"/>
			<point x="452" y="526"/>
			<point x="369" y="674"/>
			<point x="219" y="754" type="curve"/>
			<point x="202" y="733" type="line"/>
			<point x="344" y="647"/>
			<point x="410" y="516"/>
			<point x="412" y="344" type="curve"/>
			<point x="432" y="361" type="line"/>
			<point x="413" y="441"/>
			<point x="366" y="483"/>
			<point x="298" y="483" type="curve" smooth="yes"/>
			<point x="163" y="483"/>
			<point x="50" y="329"/>
			<point x="50" y="164" type="curve" smooth="yes"/>
			<point x="50" y="42"/>
			<point x="124" y="-13"/>
		</contour>
		<contour>
			<point x="210" y="15" type="curve" smooth="yes"/>
			<point x="146" y="15"/>
			<point x="98" y="64"/>
			<point x="98" y="172" type="curve" smooth="yes"/>
			<point x="98" y="310"/>
			<point x="182" y="454"/>
			<point x="296" y="454" type="curve" smooth="yes"/>
			<point x="358" y="454"/>
			<point x="407" y="417"/>
			<point x="407" y="314" type="curve" smooth="yes"/>
			<point x="407" y="159"/>
			<point x="318" y="15"/>
		</contour>
		<contour>
			<point x="188" y="550" type="line"/>
			<point x="474" y="715" type="line"/>
			<point x="462" y="737" type="line"/>
			<point x="175" y="572" type="line"/>
		</contour>
	</outline>
</glyph>
<glyph name="divide" format="1">
	<unicode hex="00F7"/>
	<advance width="530"/>
	<outline>
		<contour>
			<point x="285" y="96" type="curve" smooth="yes"/>
			<point x="311" y="96"/>
			<point x="331" y="116"/>
			<point x="331" y="141" type="curve" smooth="yes"/>
			<point x="331" y="167"/>
			<point x="311" y="185"/>
			<point x="285" y="185" type="curve" smooth="yes"/>
			<point x="259" y="185"/>
			<point x="239" y="167"/>
			<point x="239" y="141" type="curve" smooth="yes"/>
			<point x="239" y="116"/>
			<point x="259" y="96"/>
		</contour>
		<contour>
			<point x="285" y="479" type="curve" smooth="yes"/>
			<point x="311" y="479"/>
			<point x="331" y="499"/>
			<point x="331" y="524" type="curve" smooth="yes"/>
			<point x="331" y="550"/>
			<point x="311" y="568"/>
			<point x="285" y="568" type="curve" smooth="yes"/>
			<point x="259" y="568"/>
			<point x="239" y="550"/>
			<point x="239" y="524" type="curve" smooth="yes"/>
			<point x="239" y="499"/>
			<point x="259" y="479"/>
		</contour>
		<component base="minus"/>
	</outline>
</glyph>
<glyph name="oslash" format="2">
	<unicode hex="00F8"/>
	<advance width="485"/>
	<outline>
		<contour>
			<point x="509" y="478" type="line"/>
			<point x="490" y="496" type="line"/>
			<point x="-16" y="-4" type="line"/>
			<point x="4" y="-22" type="line"/>
		</contour>
		<contour>
			<point x="210" y="-13" type="curve" smooth="yes"/>
			<point x="346" y="-13"/>
			<point x="455" y="139"/>
			<point x="455" y="308" type="curve" smooth="yes"/>
			<point x="455" y="430"/>
			<point x="386" y="485"/>
			<point x="301" y="485" type="curve" smooth="yes"/>
			<point x="162" y="485"/>
			<point x="54" y="325"/>
			<point x="54" y="162" type="curve" smooth="yes"/>
			<point x="54" y="39"/>
			<point x="133" y="-13"/>
		</contour>
		<contour>
			<point x="217" y="15" type="curve" smooth="yes"/>
			<point x="152" y="15"/>
			<point x="101" y="52"/>
			<point x="101" y="170" type="curve" smooth="yes"/>
			<point x="101" y="309"/>
			<point x="181" y="456"/>
			<point x="296" y="456" type="curve" smooth="yes"/>
			<point x="362" y="456"/>
			<point x="408" y="420"/>
			<point x="408" y="297" type="curve" smooth="yes"/>
			<point x="408" y="164"/>
			<point x="328" y="15"/>
		</contour>
	</outline>
	<anchor name="aboveLC" x="299" y="492"/>
</glyph>
<glyph name="thorn" format="2">
	<unicode hex="00FE"/>
	<advance width="507"/>
	<outline>
		<contour>
			<point x="-73" y="-243" type="line"/>
			<point x="162" y="-243" type="line"/>
			<point x="167" y="-217" type="line"/>
			<point x="51" y="-206" type="line"/>
			<point x="38" y="-206" type="line"/>
			<point x="-68" y="-217" type="line"/>
		</contour>
		<contour>
			<point x="13" y="-243" type="line"/>
			<point x="59" y="-243" type="line"/>
			<point x="74" y="-165"/>
			<point x="96" y="-54"/>
			<point x="113" y="24" type="curve"/>
			<point x="116" y="31" type="line"/>
			<point x="177" y="322" type="line"/>
			<point x="179" y="331" type="line"/>
			<point x="263" y="736" type="line"/>
			<point x="253" y="745" type="line"/>
			<point x="99" y="716" type="line"/>
			<point x="95" y="696" type="line"/>
			<point x="220" y="691" type="line"/>
			<point x="209" y="703" type="line"/>
			<point x="197" y="636"/>
			<point x="185" y="568"/>
			<point x="171" y="501" type="curve" smooth="yes"/>
		</contour>
		<contour>
			<point x="181" y="-13" type="curve" smooth="yes"/>
			<point x="328" y="-13"/>
			<point x="487" y="191"/>
			<point x="487" y="364" type="curve" smooth="yes"/>
			<point x="487" y="453"/>
			<point x="448" y="485"/>
			<point x="396" y="485" type="curve" smooth="yes"/>
			<point x="320" y="485"/>
			<point x="211" y="404"/>
			<point x="148" y="295" type="curve"/>
			<point x="141" y="295" type="line"/>
			<point x="155" y="290" type="line"/>
			<point x="238" y="383"/>
			<point x="313" y="443"/>
			<point x="375" y="443" type="curve" smooth="yes"/>
			<point x="415" y="443"/>
			<point x="440" y="412"/>
			<point x="440" y="343" type="curve" smooth="yes"/>
			<point x="440" y="266"/>
			<point x="410" y="184"/>
			<point x="362" y="122" type="curve" smooth="yes"/>
			<point x="319" y="66"/>
			<point x="262" y="29"/>
			<point x="202" y="29" type="curve" smooth="yes"/>
			<point x="170" y="29"/>
			<point x="137" y="39"/>
			<point x="106" y="69" type="curve"/>
			<point x="85" y="32" type="line"/>
			<point x="113" y="-1"/>
			<point x="146" y="-13"/>
		</contour>
	</outline>
	<anchor name="aboveLC" x="239" y="745"/>
	<anchor name="belowLC" x="319" y="-20"/>
</glyph>
<glyph name="Aogonek" format="1">
	<unicode hex="0104"/>
	<advance width="661"/>
	<outline>
		<component base="A"/>
		<component base="ogonekcmb" xOffset="494"/>
		<contour>
			<point name="aboveUC" x="415" y="686" type="move"/>
		</contour>
	</outline>
</glyph>
<glyph name="aogonek" format="2">
	<unicode hex="0105"/>
	<advance width="517"/>
	<outline>
		<contour>
			<point x="145" y="-13" type="curve" smooth="yes"/>
			<point x="223" y="-13"/>
			<point x="299" y="72"/>
			<point x="369" y="172" type="curve"/>
			<point x="372" y="172" type="line"/>
			<point x="363" y="186" type="line"/>
			<point x="279" y="85"/>
			<point x="225" y="30"/>
			<point x="165" y="30" type="curve" smooth="yes"/>
			<point x="123" y="30"/>
			<point x="94" y="59"/>
			<point x="94" y="132" type="curve" smooth="yes"/>
			<point x="94" y="222"/>
			<point x="136" y="316"/>
			<point x="196" y="377" type="curve" smooth="yes"/>
			<point x="236" y="418"/>
			<point x="285" y="444"/>
			<point x="332" y="444" type="curve" smooth="yes"/>
			<point x="363" y="444"/>
			<point x="391" y="430"/>
			<point x="413" y="403" type="curve"/>
			<point x="432" y="425" type="line"/>
			<point x="412" y="462"/>
			<point x="386" y="485"/>
			<point x="349" y="485" type="curve" smooth="yes"/>
			<point x="209" y="485"/>
			<point x="47" y="280"/>
			<point x="47" y="111" type="curve" smooth="yes"/>
			<point x="47" y="20"/>
			<point x="94" y="-13"/>
		</contour>
		<contour>
			<point x="290" y="-170" type="curve" smooth="yes"/>
			<point x="290" y="-212"/>
			<point x="315" y="-243"/>
			<point x="369" y="-243" type="curve" smooth="yes"/>
			<point x="408" y="-243"/>
			<point x="446" y="-221"/>
			<point x="475" y="-194" type="curve"/>
			<point x="464" y="-181" type="line"/>
			<point x="440" y="-198"/>
			<point x="408" y="-210"/>
			<point x="383" y="-210" type="curve" smooth="yes"/>
			<point x="349" y="-210"/>
			<point x="331" y="-190"/>
			<point x="331" y="-154" type="curve" smooth="yes"/>
			<point x="331" y="-101"/>
			<point x="380" y="-36"/>
			<point x="438" y="14" type="curve" smooth="yes"/>
			<point x="471" y="42"/>
			<point x="493" y="69"/>
			<point x="513" y="99" type="curve"/>
			<point x="497" y="112" type="line"/>
			<point x="460" y="64"/>
			<point x="419" y="30"/>
			<point x="388" y="30" type="curve" smooth="yes"/>
			<point x="372" y="30"/>
			<point x="360" y="36"/>
			<point x="360" y="52" type="curve" smooth="yes"/>
			<point x="360" y="69"/>
			<point x="365" y="92"/>
			<point x="370" y="114" type="curve" smooth="yes"/>
			<point x="450" y="481" type="line"/>
			<point x="438" y="489" type="line"/>
			<point x="399" y="447" type="line"/>
			<point x="396" y="444" type="line"/>
			<point x="327" y="118" type="line"/>
			<point x="326" y="110" type="line" smooth="yes"/>
			<point x="319" y="79"/>
			<point x="315" y="62"/>
			<point x="315" y="37" type="curve" smooth="yes"/>
			<point x="315" y="4"/>
			<point x="336" y="-13"/>
			<point x="362" y="-13" type="curve" smooth="yes"/>
			<point x="371" y="-13"/>
			<point x="378" y="-13"/>
			<point x="400" y="-3" type="curve"/>
			<point x="385" y="7" type="line"/>
			<point x="385" y="-10" type="line"/>
			<point x="333" y="-60"/>
			<point x="290" y="-117"/>
		</contour>
	</outline>
	<anchor name="aboveLC" x="338" y="492"/>
	<anchor name="belowLC" x="225" y="-20"/>
</glyph>
<glyph name="dcroat" format="1">
	<unicode hex="0111"/>
	<advance width="535"/>
	<outline>
		<contour>
			<point x="281" y="569" type="line"/>
			<point x="600" y="569" type="line"/>
			<point x="605" y="598" type="line"/>
			<point x="287" y="598" type="line"/>
		</contour>
		<component base="d"/>
	</outline>
</glyph>
<glyph name="Eogonek" format="1">
	<unicode hex="0118"/>
	<advance width="577"/>
	<outline>
		<component base="E"/>
		<component base="ogonekcmb" xOffset="434"/>
		<contour>
			<point name="aboveUC" x="401" y="686" type="move"/>
		</contour>
	</outline>
</glyph>
<glyph name="eogonek" format="2">
	<unicode hex="0119"/>
	<advance width="407"/>
	<outline>
		<contour>
			<point x="226" y="-243" type="curve" smooth="yes"/>
			<point x="265" y="-243"/>
			<point x="304" y="-221"/>
			<point x="332" y="-194" type="curve"/>
			<point x="322" y="-181" type="line"/>
			<point x="298" y="-198"/>
			<point x="265" y="-210"/>
			<point x="240" y="-210" type="curve" smooth="yes"/>
			<point x="207" y="-210"/>
			<point x="188" y="-190"/>
			<point x="188" y="-154" type="curve" smooth="yes"/>
			<point x="188" y="-100"/>
			<point x="238" y="-35"/>
			<point x="306" y="22" type="curve" smooth="yes"/>
			<point x="332" y="44"/>
			<point x="354" y="69"/>
			<point x="373" y="99" type="curve"/>
			<point x="357" y="111" type="line"/>
			<point x="322" y="64"/>
			<point x="276" y="30"/>
			<point x="216" y="30" type="curve" smooth="yes"/>
			<point x="144" y="30"/>
			<point x="99" y="76"/>
			<point x="99" y="180" type="curve" smooth="yes"/>
			<point x="99" y="316"/>
			<point x="209" y="456"/>
			<point x="302" y="456" type="curve" smooth="yes"/>
			<point x="340" y="456"/>
			<point x="366" y="436"/>
			<point x="366" y="397" type="curve" smooth="yes"/>
			<point x="366" y="321"/>
			<point x="272" y="243"/>
			<point x="80" y="193" type="curve"/>
			<point x="83" y="168" type="line"/>
			<point x="306" y="226"/>
			<point x="407" y="318"/>
			<point x="407" y="403" type="curve" smooth="yes"/>
			<point x="407" y="458"/>
			<point x="369" y="485"/>
			<point x="314" y="485" type="curve" smooth="yes"/>
			<point x="178" y="485"/>
			<point x="57" y="325"/>
			<point x="57" y="166" type="curve" smooth="yes"/>
			<point x="57" y="38"/>
			<point x="123" y="-13"/>
			<point x="201" y="-13" type="curve" smooth="yes"/>
			<point x="220" y="-13"/>
			<point x="238" y="-9"/>
			<point x="247" y="-5" type="curve"/>
			<point x="247" y="-6" type="line"/>
			<point x="192" y="-57"/>
			<point x="147" y="-116"/>
			<point x="147" y="-170" type="curve" smooth="yes"/>
			<point x="147" y="-212"/>
			<point x="172" y="-243"/>
		</contour>
	</outline>
	<anchor name="aboveLC" x="314" y="492"/>
	<anchor name="belowLC" x="200" y="-20"/>
</glyph>
<glyph name="Hbar" format="2">
	<unicode hex="0126"/>
	<advance width="765"/>
	<outline>
		<contour>
			<point x="13" y="0" type="line"/>
			<point x="268" y="0" type="line"/>
			<point x="274" y="28" type="line"/>
			<point x="153" y="38" type="line"/>
			<point x="138" y="38" type="line"/>
			<point x="19" y="28" type="line"/>
		</contour>
		<contour>
			<point x="109" y="0" type="line"/>
			<point x="165" y="0" type="line"/>
			<point x="181" y="104"/>
			<point x="200" y="208"/>
			<point x="219" y="312" type="curve" smooth="yes"/>
			<point x="287" y="674" type="line"/>
			<point x="232" y="674" type="line"/>
			<point x="215" y="571"/>
			<point x="197" y="466"/>
			<point x="178" y="362" type="curve" smooth="yes"/>
		</contour>
		<contour>
			<point x="124" y="646" type="line"/>
			<point x="245" y="636" type="line"/>
			<point x="261" y="636" type="line"/>
			<point x="378" y="646" type="line"/>
			<point x="384" y="674" type="line"/>
			<point x="129" y="674" type="line"/>
		</contour>
		<contour>
			<point x="196" y="321" type="line"/>
			<point x="613" y="321" type="line"/>
			<point x="618" y="353" type="line"/>
			<point x="203" y="353" type="line"/>
		</contour>
		<contour>
			<point x="434" y="0" type="line"/>
			<point x="689" y="0" type="line"/>
			<point x="694" y="28" type="line"/>
			<point x="574" y="38" type="line"/>
			<point x="559" y="38" type="line"/>
			<point x="440" y="28" type="line"/>
		</contour>
		<contour>
			<point x="530" y="0" type="line"/>
			<point x="586" y="0" type="line"/>
			<point x="602" y="104"/>
			<point x="621" y="208"/>
			<point x="640" y="312" type="curve" smooth="yes"/>
			<point x="708" y="674" type="line"/>
			<point x="652" y="674" type="line"/>
			<point x="636" y="571"/>
			<point x="618" y="466"/>
			<point x="599" y="362" type="curve" smooth="yes"/>
		</contour>
		<contour>
			<point x="545" y="646" type="line"/>
			<point x="666" y="636" type="line"/>
			<point x="682" y="636" type="line"/>
			<point x="799" y="646" type="line"/>
			<point x="805" y="674" type="line"/>
			<point x="550" y="674" type="line"/>
		</contour>
		<contour>
			<point x="79" y="485" type="line"/>
			<point x="802" y="485" type="line"/>
			<point x="808" y="517" type="line"/>
			<point x="84" y="517" type="line"/>
		</contour>
	</outline>
</glyph>
<glyph name="hbar" format="2">
	<unicode hex="0127"/>
	<advance width="530"/>
	<outline>
		<contour>
			<point x="68" y="-6" type="line"/>
			<point x="107" y="0" type="line"/>
			<point x="119" y="69"/>
			<point x="133" y="139"/>
			<point x="147" y="208" type="curve" smooth="yes"/>
			<point x="176" y="349" type="line"/>
			<point x="178" y="360" type="line"/>
			<point x="255" y="736" type="line"/>
			<point x="245" y="745" type="line"/>
			<point x="91" y="716" type="line"/>
			<point x="88" y="696" type="line"/>
			<point x="212" y="691" type="line"/>
			<point x="201" y="708" type="line"/>
			<point x="189" y="639"/>
			<point x="176" y="570"/>
			<point x="162" y="501" type="curve" smooth="yes"/>
			<point x="61" y="0" type="line"/>
		</contour>
		<contour>
			<point x="376" y="-13" type="curve" smooth="yes"/>
			<point x="436" y="-13"/>
			<point x="489" y="39"/>
			<point x="529" y="99" type="curve"/>
			<point x="514" y="111" type="line"/>
			<point x="474" y="62"/>
			<point x="434" y="30"/>
			<point x="404" y="30" type="curve" smooth="yes"/>
			<point x="388" y="30"/>
			<point x="379" y="37"/>
			<point x="379" y="53" type="curve" smooth="yes"/>
			<point x="379" y="68"/>
			<point x="385" y="91"/>
			<point x="391" y="114" type="curve" smooth="yes"/>
			<point x="438" y="317" type="line" smooth="yes"/>
			<point x="447" y="354"/>
			<point x="455" y="383"/>
			<point x="455" y="415" type="curve" smooth="yes"/>
			<point x="455" y="456"/>
			<point x="434" y="481"/>
			<point x="391" y="481" type="curve" smooth="yes"/>
			<point x="331" y="481"/>
			<point x="235" y="425"/>
			<point x="161" y="346" type="curve"/>
			<point x="158" y="320" type="line"/>
			<point x="256" y="406"/>
			<point x="319" y="439"/>
			<point x="367" y="439" type="curve" smooth="yes"/>
			<point x="393" y="439"/>
			<point x="407" y="427"/>
			<point x="407" y="394" type="curve" smooth="yes"/>
			<point x="407" y="370"/>
			<point x="399" y="338"/>
			<point x="391" y="305" type="curve" smooth="yes"/>
			<point x="344" y="103" type="line" smooth="yes"/>
			<point x="336" y="68"/>
			<point x="331" y="53"/>
			<point x="331" y="28" type="curve" smooth="yes"/>
			<point x="331" y="4"/>
			<point x="349" y="-13"/>
		</contour>
		<contour>
			<point x="63" y="563" type="line"/>
			<point x="401" y="563" type="line"/>
			<point x="407" y="593" type="line"/>
			<point x="69" y="593" type="line"/>
		</contour>
	</outline>
</glyph>
<glyph name="iogonek" format="2">
	<unicode hex="012F"/>
	<advance width="294"/>
	<outline>
		<contour>
			<point x="228" y="649" type="curve" smooth="yes"/>
			<point x="249" y="649"/>
			<point x="271" y="669"/>
			<point x="271" y="695" type="curve" smooth="yes"/>
			<point x="271" y="720"/>
			<point x="254" y="735"/>
			<point x="232" y="735" type="curve" smooth="yes"/>
			<point x="211" y="735"/>
			<point x="189" y="716"/>
			<point x="189" y="689" type="curve" smooth="yes"/>
			<point x="189" y="663"/>
			<point x="206" y="649"/>
		</contour>
		<contour>
			<point x="143" y="-243" type="curve" smooth="yes"/>
			<point x="182" y="-243"/>
			<point x="220" y="-221"/>
			<point x="249" y="-194" type="curve"/>
			<point x="238" y="-181" type="line"/>
			<point x="214" y="-198"/>
			<point x="182" y="-210"/>
			<point x="157" y="-210" type="curve" smooth="yes"/>
			<point x="123" y="-210"/>
			<point x="105" y="-190"/>
			<point x="105" y="-154" type="curve" smooth="yes"/>
			<point x="105" y="-100"/>
			<point x="148" y="-48"/>
			<point x="219" y="22" type="curve" smooth="yes"/>
			<point x="246" y="48"/>
			<point x="266" y="70"/>
			<point x="286" y="99" type="curve"/>
			<point x="271" y="111" type="line"/>
			<point x="229" y="60"/>
			<point x="192" y="30"/>
			<point x="162" y="30" type="curve" smooth="yes"/>
			<point x="146" y="30"/>
			<point x="136" y="38"/>
			<point x="136" y="54" type="curve" smooth="yes"/>
			<point x="136" y="69"/>
			<point x="142" y="92"/>
			<point x="146" y="114" type="curve" smooth="yes"/>
			<point x="223" y="475" type="line"/>
			<point x="210" y="485" type="line"/>
			<point x="59" y="455" type="line"/>
			<point x="55" y="435" type="line"/>
			<point x="185" y="430" type="line"/>
			<point x="173" y="447" type="line"/>
			<point x="100" y="103" type="line" smooth="yes"/>
			<point x="92" y="68"/>
			<point x="88" y="53"/>
			<point x="88" y="32" type="curve" smooth="yes"/>
			<point x="88" y="4"/>
			<point x="110" y="-13"/>
			<point x="135" y="-13" type="curve" smooth="yes"/>
			<point x="148" y="-13"/>
			<point x="155" y="-10"/>
			<point x="159" y="-9" type="curve"/>
			<point x="159" y="-10" type="line"/>
			<point x="107" y="-60"/>
			<point x="64" y="-117"/>
			<point x="64" y="-170" type="curve" smooth="yes"/>
			<point x="64" y="-212"/>
			<point x="89" y="-243"/>
		</contour>
	</outline>
</glyph>
<glyph name="dotlessi" format="1">
	<unicode hex="0131"/>
	<advance width="291"/>
	<outline>
		<contour>
			<point x="94" y="32" type="curve" smooth="yes"/>
			<point x="94" y="4"/>
			<point x="115" y="-13"/>
			<point x="140" y="-13" type="curve" smooth="yes"/>
			<point x="202" y="-13"/>
			<point x="249" y="39"/>
			<point x="292" y="99" type="curve"/>
			<point x="276" y="111" type="line"/>
			<point x="235" y="60"/>
			<point x="197" y="30"/>
			<point x="167" y="30" type="curve" smooth="yes"/>
			<point x="152" y="30"/>
			<point x="141" y="38"/>
			<point x="141" y="54" type="curve" smooth="yes"/>
			<point x="141" y="69"/>
			<point x="147" y="92"/>
			<point x="152" y="114" type="curve" smooth="yes"/>
			<point x="229" y="475" type="line"/>
			<point x="216" y="485" type="line"/>
			<point x="64" y="455" type="line"/>
			<point x="61" y="435" type="line"/>
			<point x="186" y="431" type="line"/>
			<point x="177" y="441" type="line"/>
			<point x="105" y="103" type="line" smooth="yes"/>
			<point x="97" y="68"/>
			<point x="94" y="53"/>
		</contour>
		<contour>
			<point name="aboveLC" x="204" y="502" type="move"/>
		</contour>
	</outline>
</glyph>
<glyph name="kgreenlandic" format="2">
	<unicode hex="0138"/>
	<advance width="485"/>
	<outline>
		<contour>
			<point x="86" y="-6" type="line"/>
			<point x="125" y="0" type="line"/>
			<point x="138" y="70"/>
			<point x="151" y="139"/>
			<point x="166" y="208" type="curve" smooth="yes"/>
			<point x="198" y="351" type="line"/>
			<point x="222" y="475" type="line"/>
			<point x="209" y="485" type="line"/>
			<point x="59" y="455" type="line"/>
			<point x="55" y="435" type="line"/>
			<point x="181" y="431" type="line"/>
			<point x="171" y="441" type="line"/>
			<point x="78" y="0" type="line"/>
		</contour>
		<contour>
			<point x="421" y="-9" type="curve" smooth="yes"/>
			<point x="439" y="-9"/>
			<point x="459" y="-7"/>
			<point x="485" y="1" type="curve"/>
			<point x="488" y="21" type="line"/>
			<point x="436" y="23" type="line" smooth="yes"/>
			<point x="404" y="25"/>
			<point x="385" y="34"/>
			<point x="365" y="70" type="curve" smooth="yes"/>
			<point x="325" y="145" type="line" smooth="yes"/>
			<point x="293" y="204"/>
			<point x="269" y="233"/>
			<point x="212" y="246" type="curve" smooth="yes"/>
			<point x="184" y="253" type="line"/>
			<point x="182" y="245" type="line"/>
			<point x="461" y="424" type="line" smooth="yes"/>
			<point x="483" y="438"/>
			<point x="490" y="445"/>
			<point x="490" y="457" type="curve" smooth="yes"/>
			<point x="490" y="469"/>
			<point x="480" y="481"/>
			<point x="466" y="482" type="curve"/>
			<point x="166" y="251" type="line"/>
			<point x="169" y="237" type="line"/>
			<point x="192" y="230" type="line" smooth="yes"/>
			<point x="238" y="218"/>
			<point x="253" y="197"/>
			<point x="281" y="141" type="curve" smooth="yes"/>
			<point x="323" y="59" type="line" smooth="yes"/>
			<point x="349" y="7"/>
			<point x="376" y="-9"/>
		</contour>
	</outline>
</glyph>
<glyph name="Lcaron" format="1">
	<unicode hex="013D"/>
	<advance width="550"/>
	<outline>
		<contour>
			<point x="553" y="741" type="curve" smooth="yes"/>
			<point x="543" y="741"/>
			<point x="535" y="739"/>
			<point x="525" y="735" type="curve"/>
			<point x="482" y="518" type="line"/>
			<point x="503" y="517" type="line"/>
			<point x="529" y="583" type="line" smooth="yes"/>
			<point x="551" y="641"/>
			<point x="575" y="698"/>
			<point x="575" y="721" type="curve" smooth="yes"/>
			<point x="575" y="731"/>
			<point x="571" y="741"/>
		</contour>
		<component base="L"/>
	</outline>
</glyph>
<glyph name="Lslash" format="2">
	<unicode hex="0141"/>
	<advance width="550"/>
	<outline>
		<contour>
			<point x="425" y="468" type="line"/>
			<point x="189" y="346" type="line"/>
			<point x="181" y="307" type="line"/>
			<point x="417" y="429" type="line"/>
		</contour>
		<contour>
			<point x="190" y="349" type="line"/>
			<point x="45" y="274" type="line"/>
			<point x="37" y="235" type="line"/>
			<point x="181" y="308" type="line"/>
		</contour>
		<component base="L"/>
	</outline>
</glyph>
<glyph name="lslash" format="1">
	<unicode hex="0142"/>
	<advance width="278"/>
	<outline>
		<contour>
			<point x="161" y="404" type="line"/>
			<point x="29" y="338" type="line"/>
			<point x="22" y="299" type="line"/>
			<point x="153" y="364" type="line"/>
		</contour>
		<contour>
			<point x="291" y="467" type="line"/>
			<point x="161" y="401" type="line"/>
			<point x="153" y="363" type="line"/>
			<point x="283" y="427" type="line"/>
		</contour>
		<component base="l"/>
	</outline>
</glyph>
<glyph name="OE" format="1">
	<unicode hex="0152"/>
	<advance width="878"/>
	<outline>
		<contour>
			<point x="435" y="0" type="curve"/>
			<point x="442" y="34" type="line"/>
			<point x="410" y="26"/>
			<point x="375" y="18"/>
			<point x="334" y="18" type="curve" smooth="yes"/>
			<point x="199" y="18"/>
			<point x="119" y="125"/>
			<point x="119" y="268" type="curve" smooth="yes"/>
			<point x="119" y="479"/>
			<point x="261" y="656"/>
			<point x="446" y="656" type="curve" smooth="yes"/>
			<point x="491" y="656"/>
			<point x="527" y="650"/>
			<point x="554" y="639" type="curve"/>
			<point x="561" y="674" type="line"/>
			<point x="530" y="682"/>
			<point x="497" y="689"/>
			<point x="453" y="689" type="curve" smooth="yes"/>
			<point x="237" y="689"/>
			<point x="64" y="498"/>
			<point x="64" y="263" type="curve" smooth="yes"/>
			<point x="64" y="99"/>
			<point x="169" y="-15"/>
			<point x="327" y="-15" type="curve" smooth="yes"/>
			<point x="366" y="-15"/>
			<point x="403" y="-6"/>
		</contour>
		<contour>
			<point x="410" y="0" type="line"/>
			<point x="466" y="0" type="line"/>
			<point x="482" y="104"/>
			<point x="501" y="208"/>
			<point x="520" y="312" type="curve" smooth="yes"/>
			<point x="588" y="674" type="line"/>
			<point x="532" y="674" type="line"/>
			<point x="516" y="571"/>
			<point x="498" y="466"/>
			<point x="479" y="362" type="curve" smooth="yes"/>
		</contour>
		<contour>
			<point x="435" y="0" type="line"/>
			<point x="803" y="0" type="line"/>
			<point x="842" y="163" type="line"/>
			<point x="807" y="163" type="line"/>
			<point x="753" y="0" type="line"/>
			<point x="786" y="33" type="line"/>
			<point x="442" y="33" type="line"/>
		</contour>
		<contour>
			<point x="498" y="326" type="line"/>
			<point x="720" y="326" type="line"/>
			<point x="726" y="358" type="line"/>
			<point x="504" y="358" type="line"/>
		</contour>
		<contour>
			<point x="555" y="641" type="line"/>
			<point x="863" y="641" type="line"/>
			<point x="844" y="674" type="line"/>
			<point x="838" y="511" type="line"/>
			<point x="873" y="511" type="line"/>
			<point x="894" y="674" type="line"/>
			<point x="562" y="674" type="line"/>
		</contour>
		<contour>
			<point x="697" y="230" type="line"/>
			<point x="725" y="230" type="line"/>
			<point x="768" y="454" type="line"/>
			<point x="739" y="454" type="line"/>
			<point x="707" y="353" type="line"/>
			<point x="704" y="333" type="line"/>
		</contour>
		<contour>
			<point name="aboveUC" x="564" y="686" type="move"/>
		</contour>
	</outline>
</glyph>
<glyph name="oe" format="2">
	<unicode hex="0153"/>
	<advance width="746"/>
	<outline>
		<contour>
			<point x="210" y="-13" type="curve" smooth="yes"/>
			<point x="301" y="-13"/>
			<point x="377" y="56"/>
			<point x="419" y="152" type="curve"/>
			<point x="396" y="152" type="line"/>
			<point x="400" y="34"/>
			<point x="465" y="-13"/>
			<point x="540" y="-13" type="curve" smooth="yes"/>
			<point x="612" y="-13"/>
			<point x="669" y="33"/>
			<point x="712" y="99" type="curve"/>
			<point x="696" y="111" type="line"/>
			<point x="660" y="64"/>
			<point x="615" y="30"/>
			<point x="555" y="30" type="curve" smooth="yes"/>
			<point x="483" y="30"/>
			<point x="438" y="76"/>
			<point x="438" y="180" type="curve" smooth="yes"/>
			<point x="438" y="316"/>
			<point x="548" y="456"/>
			<point x="641" y="456" type="curve" smooth="yes"/>
			<point x="679" y="456"/>
			<point x="705" y="436"/>
			<point x="705" y="397" type="curve" smooth="yes"/>
			<point x="705" y="321"/>
			<point x="611" y="243"/>
			<point x="419" y="193" type="curve"/>
			<point x="422" y="168" type="line"/>
			<point x="645" y="226"/>
			<point x="746" y="318"/>
			<point x="746" y="403" type="curve" smooth="yes"/>
			<point x="746" y="458"/>
			<point x="708" y="485"/>
			<point x="653" y="485" type="curve" smooth="yes"/>
			<point x="561" y="485"/>
			<point x="478" y="412"/>
			<point x="432" y="318" type="curve"/>
			<point x="451" y="317" type="line"/>
			<point x="444" y="434"/>
			<point x="380" y="485"/>
			<point x="301" y="485" type="curve" smooth="yes"/>
			<point x="162" y="485"/>
			<point x="54" y="325"/>
			<point x="54" y="162" type="curve" smooth="yes"/>
			<point x="54" y="39"/>
			<point x="133" y="-13"/>
		</contour>
		<contour>
			<point x="217" y="15" type="curve" smooth="yes"/>
			<point x="153" y="15"/>
			<point x="104" y="62"/>
			<point x="104" y="170" type="curve" smooth="yes"/>
			<point x="104" y="309"/>
			<point x="183" y="456"/>
			<point x="296" y="456" type="curve" smooth="yes"/>
			<point x="361" y="456"/>
			<point x="406" y="410"/>
			<point x="406" y="297" type="curve" smooth="yes"/>
			<point x="406" y="164"/>
			<point x="327" y="15"/>
		</contour>
	</outline>
	<anchor name="aboveLC" x="463" y="492"/>
</glyph>
<glyph name="tcaron" format="1">
	<unicode hex="0165"/>
	<advance width="324"/>
	<outline>
		<contour>
			<point x="410" y="755" type="curve" smooth="yes"/>
			<point x="400" y="755"/>
			<point x="392" y="753"/>
			<point x="383" y="749" type="curve"/>
			<point x="339" y="532" type="line"/>
			<point x="360" y="530" type="line"/>
			<point x="387" y="597" type="line" smooth="yes"/>
			<point x="408" y="654"/>
			<point x="432" y="711"/>
			<point x="432" y="734" type="curve" smooth="yes"/>
			<point x="432" y="744"/>
			<point x="428" y="755"/>
		</contour>
		<component base="t"/>
	</outline>
</glyph>
<glyph name="Uogonek" format="2">
	<unicode hex="0172"/>
	<advance width="720"/>
	<outline>
		<contour>
			<point x="127" y="167" type="curve" smooth="yes"/>
			<point x="127" y="48"/>
			<point x="207" y="-14"/>
			<point x="328" y="-14" type="curve" smooth="yes"/>
			<point x="370" y="-14"/>
			<point x="403" y="-8"/>
			<point x="431" y="2" type="curve"/>
			<point x="431" y="1" type="line"/>
			<point x="373" y="-52"/>
			<point x="324" y="-114"/>
			<point x="324" y="-170" type="curve" smooth="yes"/>
			<point x="324" y="-212"/>
			<point x="349" y="-243"/>
			<point x="403" y="-243" type="curve" smooth="yes"/>
			<point x="442" y="-243"/>
			<point x="480" y="-221"/>
			<point x="509" y="-194" type="curve"/>
			<point x="498" y="-181" type="line"/>
			<point x="474" y="-198"/>
			<point x="442" y="-210"/>
			<point x="417" y="-210" type="curve" smooth="yes"/>
			<point x="383" y="-210"/>
			<point x="365" y="-190"/>
			<point x="365" y="-154" type="curve" smooth="yes"/>
			<point x="365" y="-99"/>
			<point x="419" y="-30"/>
			<point x="489" y="29" type="curve" smooth="yes"/>
			<point x="550" y="81"/>
			<point x="580" y="144"/>
			<point x="602" y="257" type="curve" smooth="yes"/>
			<point x="680" y="674" type="line"/>
			<point x="645" y="674" type="line"/>
			<point x="571" y="282" type="line" smooth="yes"/>
			<point x="534" y="87"/>
			<point x="480" y="30"/>
			<point x="335" y="30" type="curve" smooth="yes"/>
			<point x="245" y="30"/>
			<point x="179" y="77"/>
			<point x="179" y="177" type="curve" smooth="yes"/>
			<point x="179" y="210"/>
			<point x="183" y="236"/>
			<point x="188" y="265" type="curve" smooth="yes"/>
			<point x="265" y="674" type="line"/>
			<point x="211" y="674" type="line"/>
			<point x="194" y="570"/>
			<point x="175" y="465"/>
			<point x="156" y="361" type="curve" smooth="yes"/>
			<point x="137" y="262" type="line" smooth="yes"/>
			<point x="131" y="228"/>
			<point x="127" y="196"/>
		</contour>
		<contour>
			<point x="109" y="645" type="line"/>
			<point x="224" y="635" type="line"/>
			<point x="240" y="635" type="line"/>
			<point x="357" y="645" type="line"/>
			<point x="363" y="674" type="line"/>
			<point x="114" y="674" type="line"/>
		</contour>
		<contour>
			<point x="528" y="645" type="line"/>
			<point x="647" y="635" type="line"/>
			<point x="663" y="635" type="line"/>
			<point x="766" y="645" type="line"/>
			<point x="772" y="674" type="line"/>
			<point x="533" y="674" type="line"/>
		</contour>
	</outline>
	<anchor name="aboveUC" x="449" y="694"/>
	<anchor name="belowLC" x="331" y="-20"/>
</glyph>
<glyph name="uogonek" format="2">
	<unicode hex="0173"/>
	<advance width="554"/>
	<outline>
		<contour>
			<point x="154" y="-13" type="curve" smooth="yes"/>
			<point x="226" y="-13"/>
			<point x="297" y="35"/>
			<point x="396" y="135" type="curve"/>
			<point x="401" y="135" type="line"/>
			<point x="395" y="155" type="line"/>
			<point x="290" y="59"/>
			<point x="226" y="31"/>
			<point x="180" y="31" type="curve" smooth="yes"/>
			<point x="151" y="31"/>
			<point x="138" y="47"/>
			<point x="138" y="75" type="curve" smooth="yes"/>
			<point x="138" y="102"/>
			<point x="149" y="160"/>
			<point x="158" y="201" type="curve" smooth="yes"/>
			<point x="220" y="475" type="line"/>
			<point x="207" y="485" type="line"/>
			<point x="62" y="456" type="line"/>
			<point x="59" y="436" type="line"/>
			<point x="172" y="433" type="line"/>
			<point x="168" y="445" type="line"/>
			<point x="111" y="186" type="line" smooth="yes"/>
			<point x="102" y="146"/>
			<point x="90" y="95"/>
			<point x="90" y="57" type="curve" smooth="yes"/>
			<point x="90" y="7"/>
			<point x="116" y="-13"/>
		</contour>
		<contour>
			<point x="327" y="-170" type="curve" smooth="yes"/>
			<point x="327" y="-212"/>
			<point x="353" y="-243"/>
			<point x="407" y="-243" type="curve" smooth="yes"/>
			<point x="445" y="-243"/>
			<point x="483" y="-221"/>
			<point x="512" y="-194" type="curve"/>
			<point x="502" y="-181" type="line"/>
			<point x="477" y="-198"/>
			<point x="445" y="-210"/>
			<point x="420" y="-210" type="curve" smooth="yes"/>
			<point x="387" y="-210"/>
			<point x="368" y="-190"/>
			<point x="368" y="-154" type="curve" smooth="yes"/>
			<point x="368" y="-100"/>
			<point x="420" y="-36"/>
			<point x="479" y="17" type="curve" smooth="yes"/>
			<point x="509" y="43"/>
			<point x="530" y="70"/>
			<point x="551" y="99" type="curve"/>
			<point x="535" y="111" type="line"/>
			<point x="494" y="60"/>
			<point x="457" y="30"/>
			<point x="426" y="30" type="curve" smooth="yes"/>
			<point x="409" y="30"/>
			<point x="398" y="37"/>
			<point x="398" y="54" type="curve" smooth="yes"/>
			<point x="398" y="68"/>
			<point x="404" y="92"/>
			<point x="409" y="113" type="curve" smooth="yes"/>
			<point x="485" y="477" type="line"/>
			<point x="475" y="485" type="line"/>
			<point x="437" y="468" type="line"/>
			<point x="425" y="404"/>
			<point x="413" y="340"/>
			<point x="399" y="276" type="curve" smooth="yes"/>
			<point x="366" y="120" type="line"/>
			<point x="364" y="108" type="line"/>
			<point x="355" y="69"/>
			<point x="352" y="54"/>
			<point x="352" y="35" type="curve" smooth="yes"/>
			<point x="352" y="4"/>
			<point x="373" y="-13"/>
			<point x="400" y="-13" type="curve" smooth="yes"/>
			<point x="411" y="-13"/>
			<point x="419" y="-11"/>
			<point x="442" y="-2" type="curve"/>
			<point x="423" y="11" type="line"/>
			<point x="423" y="-10" type="line"/>
			<point x="371" y="-61"/>
			<point x="327" y="-118"/>
		</contour>
	</outline>
	<anchor name="aboveLC" x="328" y="492"/>
	<anchor name="belowLC" x="258" y="-20"/>
</glyph>
<glyph name="longs" format="2">
	<unicode hex="017F"/>
	<advance width="295"/>
	<outline>
		<contour>
			<point x="381" y="755" type="curve" smooth="yes"/>
			<point x="277" y="755"/>
			<point x="204" y="674"/>
			<point x="177" y="496" type="curve" smooth="yes"/>
			<point x="103" y="35" type="line" smooth="yes"/>
			<point x="84" y="-73"/>
			<point x="61" y="-142"/>
			<point x="30" y="-182" type="curve" smooth="yes"/>
			<point x="6" y="-213"/>
			<point x="-22" y="-228"/>
			<point x="-56" y="-231" type="curve"/>
			<point x="-56" y="-235" type="line"/>
			<point x="-27" y="-232" type="line"/>
			<point x="-62" y="-198" type="line" smooth="yes"/>
			<point x="-77" y="-183"/>
			<point x="-91" y="-172"/>
			<point x="-109" y="-172" type="curve" smooth="yes"/>
			<point x="-124" y="-172"/>
			<point x="-137" y="-182"/>
			<point x="-139" y="-199" type="curve"/>
			<point x="-130" y="-229"/>
			<point x="-94" y="-253"/>
			<point x="-55" y="-253" type="curve" smooth="yes"/>
			<point x="-19" y="-253"/>
			<point x="22" y="-240"/>
			<point x="58" y="-198" type="curve" smooth="yes"/>
			<point x="95" y="-156"/>
			<point x="127" y="-85"/>
			<point x="146" y="32" type="curve" smooth="yes"/>
			<point x="220" y="493" type="line" smooth="yes"/>
			<point x="248" y="661"/>
			<point x="292" y="723"/>
			<point x="401" y="736" type="curve"/>
			<point x="401" y="741" type="line"/>
			<point x="368" y="740" type="line"/>
			<point x="406" y="700" type="line" smooth="yes"/>
			<point x="428" y="675"/>
			<point x="437" y="667"/>
			<point x="455" y="667" type="curve" smooth="yes"/>
			<point x="468" y="667"/>
			<point x="480" y="676"/>
			<point x="482" y="691" type="curve"/>
			<point x="475" y="722"/>
			<point x="436" y="755"/>
		</contour>
	</outline>
</glyph>
<glyph name="Schwa" format="2">
	<unicode hex="018F"/>
	<advance width="624"/>
	<outline>
		<contour>
			<point x="275" y="-13" type="curve" smooth="yes"/>
			<point x="442" y="-13"/>
			<point x="605" y="154"/>
			<point x="605" y="394" type="curve" smooth="yes"/>
			<point x="605" y="591"/>
			<point x="506" y="687"/>
			<point x="360" y="687" type="curve" smooth="yes"/>
			<point x="280" y="687"/>
			<point x="208" y="657"/>
			<point x="147" y="600" type="curve"/>
			<point x="162" y="580" type="line"/>
			<point x="217" y="627"/>
			<point x="278" y="650"/>
			<point x="348" y="650" type="curve" smooth="yes"/>
			<point x="466" y="650"/>
			<point x="553" y="572"/>
			<point x="553" y="409" type="curve" smooth="yes"/>
			<point x="553" y="172"/>
			<point x="423" y="19"/>
			<point x="282" y="19" type="curve" smooth="yes"/>
			<point x="170" y="19"/>
			<point x="108" y="93"/>
			<point x="108" y="216" type="curve" smooth="yes"/>
			<point x="108" y="269"/>
			<point x="114" y="298"/>
			<point x="126" y="331" type="curve"/>
			<point x="564" y="331" type="line"/>
			<point x="569" y="364" type="line"/>
			<point x="83" y="364" type="line"/>
			<point x="67" y="319"/>
			<point x="57" y="272"/>
			<point x="57" y="221" type="curve" smooth="yes"/>
			<point x="57" y="80"/>
			<point x="138" y="-13"/>
		</contour>
	</outline>
	<anchor name="aboveUC" x="358" y="694"/>
	<anchor name="belowLC" x="269" y="-20"/>
</glyph>
<glyph name="florin" format="2">
	<unicode hex="0192"/>
	<advance width="510"/>
	<outline>
		<contour>
			<point x="147" y="355" type="line"/>
			<point x="430" y="355" type="line"/>
			<point x="436" y="390" type="line"/>
			<point x="153" y="390" type="line"/>
		</contour>
		<contour>
			<point x="61" y="-100" type="curve" smooth="yes"/>
			<point x="94" y="-100"/>
			<point x="132" y="-88"/>
			<point x="169" y="-49" type="curve" smooth="yes"/>
			<point x="223" y="7"/>
			<point x="250" y="84"/>
			<point x="281" y="228" type="curve" smooth="yes"/>
			<point x="311" y="361" type="line" smooth="yes"/>
			<point x="337" y="485"/>
			<point x="352" y="540"/>
			<point x="390" y="590" type="curve" smooth="yes"/>
			<point x="408" y="614"/>
			<point x="436" y="634"/>
			<point x="471" y="640" type="curve"/>
			<point x="471" y="647" type="line"/>
			<point x="438" y="645" type="line"/>
			<point x="464" y="622" type="line" smooth="yes"/>
			<point x="487" y="602"/>
			<point x="505" y="592"/>
			<point x="523" y="592" type="curve" smooth="yes"/>
			<point x="543" y="592"/>
			<point x="556" y="606"/>
			<point x="560" y="624" type="curve"/>
			<point x="547" y="646"/>
			<point x="520" y="664"/>
			<point x="481" y="664" type="curve" smooth="yes"/>
			<point x="448" y="664"/>
			<point x="410" y="653"/>
			<point x="372" y="613" type="curve" smooth="yes"/>
			<point x="323" y="562"/>
			<point x="294" y="490"/>
			<point x="267" y="363" type="curve" smooth="yes"/>
			<point x="235" y="217" type="line" smooth="yes"/>
			<point x="207" y="84"/>
			<point x="189" y="24"/>
			<point x="152" y="-26" type="curve" smooth="yes"/>
			<point x="134" y="-50"/>
			<point x="106" y="-70"/>
			<point x="71" y="-76" type="curve"/>
			<point x="71" y="-87" type="line"/>
			<point x="102" y="-83" type="line"/>
			<point x="76" y="-59" type="line" smooth="yes"/>
			<point x="54" y="-39"/>
			<point x="35" y="-28"/>
			<point x="19" y="-28" type="curve" smooth="yes"/>
			<point x="-2" y="-28"/>
			<point x="-14" y="-42"/>
			<point x="-18" y="-59" type="curve"/>
			<point x="-5" y="-82"/>
			<point x="22" y="-100"/>
		</contour>
	</outline>
</glyph>
